NotoSansLinearA-Regular.ufo
<glyph name="u10600" format="2">
  <advance width="530"/>
  <unicode hex="10600"/>
  <outline>
    <contour>
      <point x="80" y="0" type="line"/>
      <point x="150" y="0" type="line"/>
      <point x="150" y="377" type="line"/>
      <point x="480" y="377" type="line"/>
      <point x="480" y="440" type="line"/>
      <point x="150" y="440" type="line"/>
      <point x="150" y="800" type="line"/>
      <point x="80" y="800" type="line"/>
    </contour>
  </outline>
</glyph>
<glyph name="u10601" format="2">
  <advance width="650"/>
  <unicode hex="10601"/>
  <outline>
    <contour>
      <point x="290" y="0" type="line"/>
      <point x="360" y="0" type="line"/>
      <point x="360" y="377" type="line"/>
      <point x="600" y="377" type="line"/>
      <point x="600" y="440" type="line"/>
      <point x="360" y="440" type="line"/>
      <point x="360" y="800" type="line"/>
      <point x="290" y="800" type="line"/>
      <point x="290" y="440" type="line"/>
      <point x="50" y="440" type="line"/>
      <point x="50" y="377" type="line"/>
      <point x="290" y="377" type="line"/>
    </contour>
  </outline>
</glyph>
<glyph name="u10602" format="2">
  <advance width="650"/>
  <unicode hex="10602"/>
  <outline>
    <contour>
      <point x="290" y="0" type="line"/>
      <point x="360" y="0" type="line"/>
      <point x="360" y="277" type="line"/>
      <point x="600" y="277" type="line"/>
      <point x="600" y="340" type="line"/>
      <point x="360" y="340" type="line"/>
      <point x="360" y="477" type="line"/>
      <point x="600" y="477" type="line"/>
      <point x="600" y="540" type="line"/>
      <point x="360" y="540" type="line"/>
      <point x="360" y="800" type="line"/>
      <point x="290" y="800" type="line"/>
      <point x="290" y="540" type="line"/>
      <point x="50" y="540" type="line"/>
      <point x="50" y="477" type="line"/>
      <point x="290" y="477" type="line"/>
      <point x="290" y="340" type="line"/>
      <point x="50" y="340" type="line"/>
      <point x="50" y="277" type="line"/>
      <point x="290" y="277" type="line"/>
    </contour>
  </outline>
</glyph>
<glyph name="u10603" format="2">
  <advance width="700"/>
  <unicode hex="10603"/>
  <outline>
    <contour>
      <point x="315" y="0" type="line"/>
      <point x="385" y="0" type="line"/>
      <point x="385" y="108" type="line"/>
      <point x="620" y="352" type="line"/>
      <point x="571" y="397" type="line"/>
      <point x="385" y="199" type="line"/>
      <point x="385" y="283" type="line"/>
      <point x="620" y="527" type="line"/>
      <point x="571" y="572" type="line"/>
      <point x="385" y="374" type="line"/>
      <point x="385" y="458" type="line"/>
      <point x="620" y="702" type="line"/>
      <point x="571" y="747" type="line"/>
      <point x="385" y="549" type="line"/>
      <point x="385" y="800" type="line"/>
      <point x="315" y="800" type="line"/>
      <point x="315" y="549" type="line"/>
      <point x="129" y="747" type="line"/>
      <point x="80" y="702" type="line"/>
      <point x="315" y="458" type="line"/>
      <point x="315" y="374" type="line"/>
      <point x="129" y="572" type="line"/>
      <point x="80" y="527" type="line"/>
      <point x="315" y="283" type="line"/>
      <point x="315" y="199" type="line"/>
      <point x="129" y="397" type="line"/>
      <point x="80" y="352" type="line"/>
      <point x="315" y="108" type="line"/>
    </contour>
  </outline>
</glyph>
<glyph name="u10604" format="2">
  <advance width="494"/>
  <unicode hex="10604"/>
  <outline>
    <contour>
      <point x="212" y="0" type="line"/>
      <point x="282" y="0" type="line"/>
      <point x="282" y="477" type="line"/>
      <point x="414" y="477" type="line"/>
      <point x="414" y="540" type="line"/>
      <point x="282" y="540" type="line"/>
      <point x="282" y="737" type="line"/>
      <point x="474" y="737" type="line"/>
      <point x="474" y="800" type="line"/>
      <point x="20" y="800" type="line"/>
      <point x="20" y="737" type="line"/>
      <point x="212" y="737" type="line"/>
      <point x="212" y="540" type="line"/>
      <point x="80" y="540" type="line"/>
      <point x="80" y="477" type="line"/>
      <point x="212" y="477" type="line"/>
    </contour>
  </outline>
</glyph>
<glyph name="u10605" format="2">
  <advance width="494"/>
  <unicode hex="10605"/>
  <outline>
    <contour>
      <point x="212" y="0" type="line"/>
      <point x="282" y="0" type="line"/>
      <point x="282" y="470" type="line"/>
      <point x="212" y="470" type="line"/>
    </contour>
    <contour>
      <point x="248" y="536" type="curve" smooth="yes"/>
      <point x="283" y="536"/>
      <point x="310" y="563"/>
      <point x="310" y="597" type="curve" smooth="yes"/>
      <point x="310" y="632"/>
      <point x="283" y="659"/>
      <point x="248" y="659" type="curve" smooth="yes"/>
      <point x="214" y="659"/>
      <point x="187" y="632"/>
      <point x="187" y="597" type="curve" smooth="yes"/>
      <point x="187" y="563"/>
      <point x="214" y="536"/>
    </contour>
    <contour>
      <point x="20" y="737" type="line"/>
      <point x="474" y="737" type="line"/>
      <point x="474" y="800" type="line"/>
      <point x="20" y="800" type="line"/>
    </contour>
  </outline>
</glyph>
<glyph name="u10606" format="2">
  <advance width="654"/>
  <unicode hex="10606"/>
  <outline>
    <contour>
      <point x="100" y="737" type="line"/>
      <point x="554" y="737" type="line"/>
      <point x="554" y="800" type="line"/>
      <point x="100" y="800" type="line"/>
    </contour>
    <contour>
      <point x="292" y="0" type="line"/>
      <point x="362" y="0" type="line"/>
      <point x="362" y="400" type="line"/>
      <point x="292" y="400" type="line"/>
    </contour>
    <contour>
      <point x="80" y="460" type="line"/>
      <point x="150" y="460" type="line"/>
      <point x="150" y="677" type="line"/>
      <point x="80" y="677" type="line"/>
    </contour>
    <contour>
      <point x="292" y="460" type="line"/>
      <point x="362" y="460" type="line"/>
      <point x="362" y="677" type="line"/>
      <point x="292" y="677" type="line"/>
    </contour>
    <contour>
      <point x="504" y="460" type="line"/>
      <point x="574" y="460" type="line"/>
      <point x="574" y="677" type="line"/>
      <point x="504" y="677" type="line"/>
    </contour>
  </outline>
</glyph>
<glyph name="u10607" format="2">
  <advance width="654"/>
  <unicode hex="10607"/>
  <outline>
    <contour>
      <point x="292" y="0" type="line"/>
      <point x="362" y="0" type="line"/>
      <point x="362" y="577" type="line"/>
      <point x="504" y="577" type="line"/>
      <point x="504" y="420" type="line"/>
      <point x="574" y="420" type="line"/>
      <point x="574" y="800" type="line"/>
      <point x="504" y="800" type="line"/>
      <point x="504" y="640" type="line"/>
      <point x="150" y="640" type="line"/>
      <point x="150" y="800" type="line"/>
      <point x="80" y="800" type="line"/>
      <point x="80" y="420" type="line"/>
      <point x="150" y="420" type="line"/>
      <point x="150" y="577" type="line"/>
      <point x="292" y="577" type="line"/>
    </contour>
  </outline>
</glyph>
<glyph name="u10608" format="2">
  <advance width="674"/>
  <unicode hex="10608"/>
  <outline>
    <contour>
      <point x="100" y="0" type="line"/>
      <point x="170" y="0" type="line"/>
      <point x="170" y="480" type="line"/>
      <point x="594" y="480" type="line"/>
      <point x="594" y="800" type="line"/>
      <point x="524" y="800" type="line"/>
      <point x="524" y="543" type="line"/>
      <point x="382" y="543" type="line"/>
      <point x="382" y="800" type="line"/>
      <point x="312" y="800" type="line"/>
      <point x="312" y="543" type="line"/>
      <point x="170" y="543" type="line"/>
      <point x="170" y="800" type="line"/>
      <point x="100" y="800" type="line"/>
    </contour>
  </outline>
</glyph>
<glyph name="u10609" format="2">
  <advance width="585"/>
  <unicode hex="10609"/>
  <outline>
    <contour>
      <point x="80" y="0" type="line"/>
      <point x="150" y="0" type="line"/>
      <point x="150" y="144" type="line" smooth="yes"/>
      <point x="150" y="219"/>
      <point x="155" y="287"/>
      <point x="165" y="350" type="curve"/>
      <point x="372" y="350" type="line"/>
      <point x="372" y="270" type="line"/>
      <point x="442" y="270" type="line"/>
      <point x="442" y="350" type="line"/>
      <point x="525" y="350" type="line"/>
      <point x="525" y="413" type="line"/>
      <point x="442" y="413" type="line"/>
      <point x="442" y="736" type="line"/>
      <point x="445" y="736"/>
      <point x="449" y="737"/>
      <point x="453" y="737" type="curve" smooth="yes"/>
      <point x="535" y="737" type="line"/>
      <point x="535" y="800" type="line"/>
      <point x="453" y="800" type="line" smooth="yes"/>
      <point x="271" y="800"/>
      <point x="80" y="613"/>
      <point x="80" y="144" type="curve" smooth="yes"/>
    </contour>
    <contour>
      <point x="177" y="413" type="line"/>
      <point x="214" y="572"/>
      <point x="283" y="679"/>
      <point x="372" y="719" type="curve"/>
      <point x="372" y="413" type="line"/>
    </contour>
  </outline>
</glyph>
<glyph name="u1060A" format="2">
  <advance width="611"/>
  <unicode hex="1060A"/>
  <outline>
    <contour>
      <point x="346" y="0" type="line"/>
      <point x="416" y="0" type="line"/>
      <point x="416" y="490" type="line"/>
      <point x="139" y="587" type="line"/>
      <point x="561" y="762" type="line"/>
      <point x="536" y="820" type="line"/>
      <point x="50" y="618" type="line"/>
      <point x="50" y="547" type="line"/>
      <point x="346" y="439" type="line"/>
    </contour>
  </outline>
</glyph>
<glyph name="u1060B" format="2">
  <advance width="769"/>
  <unicode hex="1060B"/>
  <outline>
    <contour>
      <point x="254" y="0" type="line"/>
      <point x="324" y="0" type="line"/>
      <point x="324" y="529" type="line"/>
      <point x="488" y="529" type="line"/>
      <point x="488" y="430" type="line"/>
      <point x="558" y="430" type="line"/>
      <point x="558" y="530" type="line"/>
      <point x="678" y="540"/>
      <point x="739" y="624"/>
      <point x="739" y="700" type="curve" smooth="yes"/>
      <point x="739" y="758"/>
      <point x="703" y="815"/>
      <point x="624" y="815" type="curve" smooth="yes"/>
      <point x="533" y="815"/>
      <point x="491" y="742"/>
      <point x="488" y="592" type="curve"/>
      <point x="323" y="592" type="line"/>
      <point x="315" y="736"/>
      <point x="257" y="815"/>
      <point x="159" y="815" type="curve" smooth="yes"/>
      <point x="75" y="815"/>
      <point x="30" y="758"/>
      <point x="30" y="689" type="curve" smooth="yes"/>
      <point x="30" y="609"/>
      <point x="92" y="529"/>
      <point x="228" y="529" type="curve" smooth="yes"/>
      <point x="254" y="529" type="line"/>
    </contour>
    <contour>
      <point x="443" y="216" type="line"/>
      <point x="669" y="268" type="line"/>
      <point x="656" y="325" type="line"/>
      <point x="429" y="274" type="line"/>
    </contour>
    <contour>
      <point x="228" y="592" type="line" smooth="yes"/>
      <point x="130" y="592"/>
      <point x="98" y="648"/>
      <point x="98" y="689" type="curve" smooth="yes"/>
      <point x="98" y="721"/>
      <point x="121" y="750"/>
      <point x="160" y="750" type="curve" smooth="yes"/>
      <point x="209" y="750"/>
      <point x="248" y="711"/>
      <point x="253" y="592" type="curve"/>
    </contour>
    <contour>
      <point x="420" y="314" type="line"/>
      <point x="646" y="365" type="line"/>
      <point x="633" y="423" type="line"/>
      <point x="407" y="371" type="line"/>
    </contour>
    <contour>
      <point x="558" y="593" type="curve"/>
      <point x="560" y="711"/>
      <point x="581" y="750"/>
      <point x="623" y="750" type="curve" smooth="yes"/>
      <point x="659" y="750"/>
      <point x="671" y="721"/>
      <point x="671" y="694" type="curve" smooth="yes"/>
      <point x="671" y="652"/>
      <point x="638" y="601"/>
    </contour>
  </outline>
</glyph>
<glyph name="u1060C" format="2">
  <advance width="604"/>
  <unicode hex="1060C"/>
  <outline>
    <contour>
      <point x="267" y="90" type="line"/>
      <point x="337" y="90" type="line"/>
      <point x="337" y="496" type="line"/>
      <point x="401" y="510"/>
      <point x="452" y="559"/>
      <point x="464" y="624" type="curve"/>
      <point x="574" y="624" type="line"/>
      <point x="574" y="687" type="line"/>
      <point x="463" y="687" type="line"/>
      <point x="447" y="761"/>
      <point x="381" y="815"/>
      <point x="302" y="815" type="curve" smooth="yes"/>
      <point x="222" y="815"/>
      <point x="156" y="761"/>
      <point x="140" y="687" type="curve"/>
      <point x="30" y="687" type="line"/>
      <point x="30" y="624" type="line"/>
      <point x="139" y="624" type="line"/>
      <point x="151" y="559"/>
      <point x="202" y="510"/>
      <point x="267" y="496" type="curve"/>
    </contour>
    <contour>
      <point x="95" y="0" type="line"/>
      <point x="509" y="0" type="line"/>
      <point x="509" y="63" type="line"/>
      <point x="95" y="63" type="line"/>
    </contour>
    <contour>
      <point x="302" y="555" type="curve" smooth="yes"/>
      <point x="247" y="555"/>
      <point x="205" y="599"/>
      <point x="205" y="654" type="curve" smooth="yes"/>
      <point x="205" y="708"/>
      <point x="247" y="753"/>
      <point x="302" y="753" type="curve" smooth="yes"/>
      <point x="355" y="753"/>
      <point x="399" y="708"/>
      <point x="399" y="654" type="curve" smooth="yes"/>
      <point x="399" y="599"/>
      <point x="355" y="555"/>
    </contour>
  </outline>
</glyph>
<glyph name="u1060D" format="2">
  <advance width="454"/>
  <unicode hex="1060D"/>
  <outline>
    <contour>
      <point x="192" y="0" type="line"/>
      <point x="262" y="0" type="line"/>
      <point x="262" y="439" type="line"/>
      <point x="404" y="439" type="line"/>
      <point x="404" y="502" type="line"/>
      <point x="282" y="502" type="line"/>
      <point x="346" y="523"/>
      <point x="392" y="582"/>
      <point x="392" y="653" type="curve" smooth="yes"/>
      <point x="392" y="744"/>
      <point x="318" y="815"/>
      <point x="227" y="815" type="curve" smooth="yes"/>
      <point x="136" y="815"/>
      <point x="62" y="744"/>
      <point x="62" y="653" type="curve" smooth="yes"/>
      <point x="62" y="582"/>
      <point x="108" y="523"/>
      <point x="172" y="502" type="curve"/>
      <point x="50" y="502" type="line"/>
      <point x="50" y="439" type="line"/>
      <point x="192" y="439" type="line"/>
    </contour>
    <contour>
      <point x="227" y="555" type="curve" smooth="yes"/>
      <point x="172" y="555"/>
      <point x="130" y="599"/>
      <point x="130" y="654" type="curve" smooth="yes"/>
      <point x="130" y="708"/>
      <point x="172" y="753"/>
      <point x="227" y="753" type="curve" smooth="yes"/>
      <point x="280" y="753"/>
      <point x="324" y="708"/>
      <point x="324" y="654" type="curve" smooth="yes"/>
      <point x="324" y="599"/>
      <point x="280" y="555"/>
    </contour>
  </outline>
</glyph>
<glyph name="u1060E" format="2">
  <advance width="576"/>
  <unicode hex="1060E"/>
  <outline>
    <contour>
      <point x="158" y="374" type="line"/>
      <point x="418" y="374" type="line"/>
      <point x="418" y="437" type="line"/>
      <point x="158" y="437" type="line"/>
    </contour>
    <contour>
      <point x="253" y="0" type="line"/>
      <point x="323" y="0" type="line"/>
      <point x="323" y="712" type="line"/>
      <point x="478" y="532" type="line"/>
      <point x="526" y="575" type="line"/>
      <point x="323" y="810" type="line"/>
      <point x="253" y="810" type="line"/>
      <point x="50" y="575" type="line"/>
      <point x="98" y="532" type="line"/>
      <point x="253" y="712" type="line"/>
    </contour>
  </outline>
</glyph>
<glyph name="u1060F" format="2">
  <advance width="770"/>
  <unicode hex="1060F"/>
  <outline>
    <contour>
      <point x="476" y="0" type="line"/>
      <point x="546" y="0" type="line"/>
      <point x="546" y="380" type="line"/>
      <point x="720" y="380" type="line"/>
      <point x="720" y="443" type="line"/>
      <point x="546" y="443" type="line"/>
      <point x="546" y="800" type="line"/>
      <point x="307" y="800" type="line" smooth="yes"/>
      <point x="106" y="800"/>
      <point x="50" y="673"/>
      <point x="50" y="585" type="curve" smooth="yes"/>
      <point x="50" y="497"/>
      <point x="105" y="380"/>
      <point x="307" y="380" type="curve" smooth="yes"/>
      <point x="476" y="380" type="line"/>
    </contour>
    <contour>
      <point x="296" y="443" type="line" smooth="yes"/>
      <point x="218" y="443"/>
      <point x="120" y="480"/>
      <point x="120" y="585" type="curve" smooth="yes"/>
      <point x="120" y="689"/>
      <point x="218" y="737"/>
      <point x="296" y="737" type="curve" smooth="yes"/>
      <point x="476" y="737" type="line"/>
      <point x="476" y="443" type="line"/>
    </contour>
  </outline>
</glyph>
<glyph name="u10610" format="2">
  <advance width="860"/>
  <unicode hex="10610"/>
  <outline>
    <contour>
      <point x="248" y="-10" type="line"/>
      <point x="394" y="380" type="line"/>
      <point x="476" y="380" type="line"/>
      <point x="476" y="0" type="line"/>
      <point x="546" y="0" type="line"/>
      <point x="546" y="380" type="line"/>
      <point x="625" y="380" type="line"/>
      <point x="772" y="-10" type="line"/>
      <point x="840" y="19" type="line"/>
      <point x="538" y="800" type="line"/>
      <point x="307" y="800" type="line" smooth="yes"/>
      <point x="106" y="800"/>
      <point x="50" y="673"/>
      <point x="50" y="585" type="curve" smooth="yes"/>
      <point x="50" y="497"/>
      <point x="105" y="380"/>
      <point x="307" y="380" type="curve" smooth="yes"/>
      <point x="319" y="380" type="line"/>
      <point x="180" y="19" type="line"/>
    </contour>
    <contour>
      <point x="296" y="443" type="line" smooth="yes"/>
      <point x="218" y="443"/>
      <point x="120" y="480"/>
      <point x="120" y="585" type="curve" smooth="yes"/>
      <point x="120" y="689"/>
      <point x="218" y="737"/>
      <point x="296" y="737" type="curve" smooth="yes"/>
      <point x="457" y="737" type="line"/>
      <point x="344" y="443" type="line"/>
    </contour>
    <contour>
      <point x="418" y="443" type="line"/>
      <point x="510" y="687" type="line"/>
      <point x="601" y="443" type="line"/>
    </contour>
  </outline>
</glyph>
<glyph name="u10611" format="2">
  <advance width="800"/>
  <unicode hex="10611"/>
  <outline>
    <contour>
      <point x="476" y="0" type="line"/>
      <point x="546" y="0" type="line"/>
      <point x="546" y="380" type="line"/>
      <point x="720" y="380" type="line"/>
      <point x="720" y="443" type="line"/>
      <point x="546" y="443" type="line"/>
      <point x="546" y="800" type="line"/>
      <point x="307" y="800" type="line" smooth="yes"/>
      <point x="106" y="800"/>
      <point x="50" y="673"/>
      <point x="50" y="585" type="curve" smooth="yes"/>
      <point x="50" y="497"/>
      <point x="105" y="380"/>
      <point x="307" y="380" type="curve" smooth="yes"/>
      <point x="476" y="380" type="line"/>
    </contour>
    <contour>
      <point x="296" y="443" type="line" smooth="yes"/>
      <point x="218" y="443"/>
      <point x="120" y="480"/>
      <point x="120" y="585" type="curve" smooth="yes"/>
      <point x="120" y="689"/>
      <point x="218" y="737"/>
      <point x="296" y="737" type="curve" smooth="yes"/>
      <point x="476" y="737" type="line"/>
      <point x="476" y="443" type="line"/>
    </contour>
    <contour>
      <point x="300" y="244" type="line"/>
      <point x="720" y="244" type="line"/>
      <point x="720" y="307" type="line"/>
      <point x="300" y="307" type="line"/>
    </contour>
    <contour>
      <point x="300" y="94" type="line"/>
      <point x="720" y="94" type="line"/>
      <point x="720" y="157" type="line"/>
      <point x="300" y="157" type="line"/>
    </contour>
  </outline>
</glyph>
<glyph name="u10613" format="2">
  <advance width="953"/>
  <unicode hex="10613"/>
  <outline>
    <contour>
      <point x="660" y="0" type="line"/>
      <point x="730" y="0" type="line"/>
      <point x="730" y="712" type="line"/>
      <point x="885" y="532" type="line"/>
      <point x="933" y="575" type="line"/>
      <point x="730" y="810" type="line"/>
      <point x="660" y="810" type="line"/>
      <point x="503" y="629" type="line"/>
      <point x="340" y="810" type="line"/>
      <point x="270" y="810" type="line"/>
      <point x="20" y="523" type="line"/>
      <point x="71" y="480" type="line"/>
      <point x="305" y="745" type="line"/>
      <point x="479" y="545" type="line"/>
      <point x="524" y="545" type="line"/>
      <point x="660" y="711" type="line"/>
    </contour>
    <contour>
      <point x="516" y="335" type="line"/>
      <point x="634" y="530" type="line"/>
      <point x="580" y="561" type="line"/>
      <point x="461" y="364" type="line"/>
    </contour>
    <contour>
      <point x="874" y="335" type="line"/>
      <point x="929" y="364" type="line"/>
      <point x="810" y="561" type="line"/>
      <point x="756" y="530" type="line"/>
    </contour>
  </outline>
</glyph>
<glyph name="u10614" format="2">
  <advance width="953"/>
  <unicode hex="10614"/>
  <outline>
    <contour>
      <point x="660" y="0" type="line"/>
      <point x="730" y="0" type="line"/>
      <point x="730" y="712" type="line"/>
      <point x="885" y="532" type="line"/>
      <point x="933" y="575" type="line"/>
      <point x="730" y="810" type="line"/>
      <point x="660" y="810" type="line"/>
      <point x="503" y="629" type="line"/>
      <point x="340" y="810" type="line"/>
      <point x="270" y="810" type="line"/>
      <point x="20" y="523" type="line"/>
      <point x="71" y="480" type="line"/>
      <point x="305" y="745" type="line"/>
      <point x="479" y="545" type="line"/>
      <point x="524" y="545" type="line"/>
      <point x="660" y="711" type="line"/>
    </contour>
    <contour>
      <point x="516" y="335" type="line"/>
      <point x="634" y="530" type="line"/>
      <point x="580" y="561" type="line"/>
      <point x="461" y="364" type="line"/>
    </contour>
    <contour>
      <point x="530" y="254" type="line"/>
      <point x="860" y="254" type="line"/>
      <point x="860" y="317" type="line"/>
      <point x="530" y="317" type="line"/>
    </contour>
    <contour>
      <point x="530" y="104" type="line"/>
      <point x="860" y="104" type="line"/>
      <point x="860" y="167" type="line"/>
      <point x="530" y="167" type="line"/>
    </contour>
  </outline>
</glyph>
<glyph name="u10615" format="2">
  <advance width="683"/>
  <unicode hex="10615"/>
  <outline>
    <contour>
      <point x="274" y="0" type="line"/>
      <point x="344" y="0" type="line"/>
      <point x="344" y="524" type="line"/>
      <point x="633" y="524" type="line"/>
      <point x="633" y="587" type="line"/>
      <point x="343" y="587" type="line"/>
      <point x="335" y="731"/>
      <point x="277" y="810"/>
      <point x="178" y="810" type="curve" smooth="yes"/>
      <point x="94" y="810"/>
      <point x="50" y="753"/>
      <point x="50" y="685" type="curve" smooth="yes"/>
      <point x="50" y="604"/>
      <point x="112" y="524"/>
      <point x="248" y="524" type="curve" smooth="yes"/>
      <point x="274" y="524" type="line"/>
    </contour>
    <contour>
      <point x="248" y="587" type="line" smooth="yes"/>
      <point x="150" y="587"/>
      <point x="118" y="643"/>
      <point x="118" y="686" type="curve" smooth="yes"/>
      <point x="118" y="716"/>
      <point x="139" y="745"/>
      <point x="178" y="745" type="curve" smooth="yes"/>
      <point x="229" y="745"/>
      <point x="268" y="706"/>
      <point x="273" y="587" type="curve"/>
    </contour>
    <contour>
      <point x="477" y="604" type="line"/>
      <point x="535" y="635" type="line"/>
      <point x="429" y="826" type="line"/>
      <point x="372" y="795" type="line"/>
    </contour>
  </outline>
</glyph>
<glyph name="u10617" format="2">
  <advance width="554"/>
  <unicode hex="10617"/>
  <outline>
    <contour>
      <point x="112" y="379" type="line"/>
      <point x="442" y="379" type="line"/>
      <point x="442" y="442" type="line"/>
      <point x="112" y="442" type="line"/>
    </contour>
    <contour>
      <point x="50" y="0" type="line"/>
      <point x="504" y="0" type="line"/>
      <point x="504" y="63" type="line"/>
      <point x="312" y="63" type="line"/>
      <point x="312" y="737" type="line"/>
      <point x="504" y="737" type="line"/>
      <point x="504" y="800" type="line"/>
      <point x="50" y="800" type="line"/>
      <point x="50" y="737" type="line"/>
      <point x="242" y="737" type="line"/>
      <point x="242" y="63" type="line"/>
      <point x="50" y="63" type="line"/>
    </contour>
  </outline>
</glyph>
<glyph name="u10618" format="2">
  <advance width="726"/>
  <unicode hex="10618"/>
  <outline>
    <contour>
      <point x="328" y="0" type="line"/>
      <point x="398" y="0" type="line"/>
      <point x="398" y="500" type="line"/>
      <point x="427" y="477"/>
      <point x="467" y="465"/>
      <point x="513" y="465" type="curve" smooth="yes"/>
      <point x="628" y="465"/>
      <point x="696" y="547"/>
      <point x="696" y="646" type="curve" smooth="yes"/>
      <point x="696" y="721"/>
      <point x="655" y="790"/>
      <point x="591" y="820" type="curve"/>
      <point x="547" y="774" type="line"/>
      <point x="599" y="748"/>
      <point x="626" y="701"/>
      <point x="626" y="647" type="curve" smooth="yes"/>
      <point x="626" y="584"/>
      <point x="588" y="529"/>
      <point x="513" y="529" type="curve" smooth="yes"/>
      <point x="439" y="529"/>
      <point x="398" y="572"/>
      <point x="398" y="625" type="curve" smooth="yes"/>
      <point x="398" y="637" type="line"/>
      <point x="328" y="637" type="line"/>
      <point x="328" y="625" type="line" smooth="yes"/>
      <point x="328" y="572"/>
      <point x="287" y="529"/>
      <point x="213" y="529" type="curve" smooth="yes"/>
      <point x="138" y="529"/>
      <point x="100" y="584"/>
      <point x="100" y="647" type="curve" smooth="yes"/>
      <point x="100" y="701"/>
      <point x="127" y="748"/>
      <point x="179" y="774" type="curve"/>
      <point x="135" y="820" type="line"/>
      <point x="71" y="790"/>
      <point x="30" y="721"/>
      <point x="30" y="646" type="curve" smooth="yes"/>
      <point x="30" y="547"/>
      <point x="98" y="465"/>
      <point x="213" y="465" type="curve" smooth="yes"/>
      <point x="259" y="465"/>
      <point x="298" y="477"/>
      <point x="328" y="500" type="curve"/>
    </contour>
  </outline>
</glyph>
<glyph name="u10619" format="2">
  <advance width="730"/>
  <unicode hex="10619"/>
  <outline>
    <contour>
      <point x="330" y="0" type="line"/>
      <point x="400" y="0" type="line"/>
      <point x="400" y="450" type="line"/>
      <point x="590" y="462"/>
      <point x="680" y="581"/>
      <point x="680" y="752" type="curve" smooth="yes"/>
      <point x="680" y="800" type="line"/>
      <point x="610" y="800" type="line"/>
      <point x="610" y="756" type="line" smooth="yes"/>
      <point x="610" y="631"/>
      <point x="556" y="528"/>
      <point x="400" y="515" type="curve"/>
      <point x="400" y="800" type="line"/>
      <point x="330" y="800" type="line"/>
      <point x="330" y="515" type="line"/>
      <point x="173" y="528"/>
      <point x="120" y="631"/>
      <point x="120" y="756" type="curve" smooth="yes"/>
      <point x="120" y="800" type="line"/>
      <point x="50" y="800" type="line"/>
      <point x="50" y="752" type="line" smooth="yes"/>
      <point x="50" y="581"/>
      <point x="139" y="462"/>
      <point x="330" y="450" type="curve"/>
    </contour>
  </outline>
</glyph>
<glyph name="u1061A" format="2">
  <advance width="666"/>
  <unicode hex="1061A"/>
  <outline>
    <contour>
      <point x="298" y="0" type="line"/>
      <point x="368" y="0" type="line"/>
      <point x="368" y="270" type="line"/>
      <point x="550" y="270" type="line"/>
      <point x="550" y="333" type="line"/>
      <point x="282" y="333" type="line" smooth="yes"/>
      <point x="204" y="333"/>
      <point x="156" y="340"/>
      <point x="156" y="385" type="curve" smooth="yes"/>
      <point x="156" y="439"/>
      <point x="204" y="447"/>
      <point x="282" y="447" type="curve" smooth="yes"/>
      <point x="550" y="447" type="line"/>
      <point x="550" y="460" type="line"/>
      <point x="616" y="800" type="line"/>
      <point x="546" y="800" type="line"/>
      <point x="489" y="510" type="line"/>
      <point x="368" y="510" type="line"/>
      <point x="368" y="800" type="line"/>
      <point x="298" y="800" type="line"/>
      <point x="298" y="510" type="line"/>
      <point x="283" y="510" type="line" smooth="yes"/>
      <point x="241" y="510"/>
      <point x="207" y="506"/>
      <point x="178" y="498" type="curve"/>
      <point x="120" y="800" type="line"/>
      <point x="50" y="800" type="line"/>
      <point x="115" y="464" type="line"/>
      <point x="95" y="445"/>
      <point x="86" y="418"/>
      <point x="86" y="385" type="curve" smooth="yes"/>
      <point x="86" y="297"/>
      <point x="151" y="270"/>
      <point x="283" y="270" type="curve" smooth="yes"/>
      <point x="298" y="270" type="line"/>
    </contour>
  </outline>
</glyph>
<glyph name="u1061B" format="2">
  <advance width="845"/>
  <unicode hex="1061B"/>
  <outline>
    <contour>
      <point x="298" y="0" type="line"/>
      <point x="368" y="0" type="line"/>
      <point x="368" y="270" type="line"/>
      <point x="685" y="270" type="line"/>
      <point x="685" y="372" type="line"/>
      <point x="795" y="372" type="line"/>
      <point x="795" y="430" type="line"/>
      <point x="740" y="430" type="line"/>
      <point x="740" y="582" type="line"/>
      <point x="795" y="582" type="line"/>
      <point x="795" y="640" type="line"/>
      <point x="620" y="640" type="line"/>
      <point x="620" y="582" type="line"/>
      <point x="675" y="582" type="line"/>
      <point x="675" y="430" type="line"/>
      <point x="620" y="430" type="line"/>
      <point x="620" y="333" type="line"/>
      <point x="282" y="333" type="line" smooth="yes"/>
      <point x="204" y="333"/>
      <point x="156" y="340"/>
      <point x="156" y="385" type="curve" smooth="yes"/>
      <point x="156" y="439"/>
      <point x="204" y="447"/>
      <point x="282" y="447" type="curve" smooth="yes"/>
      <point x="550" y="447" type="line"/>
      <point x="550" y="460" type="line"/>
      <point x="616" y="800" type="line"/>
      <point x="546" y="800" type="line"/>
      <point x="489" y="510" type="line"/>
      <point x="427" y="510" type="line"/>
      <point x="466" y="800" type="line"/>
      <point x="396" y="800" type="line"/>
      <point x="357" y="510" type="line"/>
      <point x="309" y="510" type="line"/>
      <point x="270" y="800" type="line"/>
      <point x="200" y="800" type="line"/>
      <point x="239" y="508" type="line"/>
      <point x="216" y="506"/>
      <point x="196" y="503"/>
      <point x="178" y="498" type="curve"/>
      <point x="120" y="800" type="line"/>
      <point x="50" y="800" type="line"/>
      <point x="115" y="464" type="line"/>
      <point x="95" y="445"/>
      <point x="86" y="418"/>
      <point x="86" y="385" type="curve" smooth="yes"/>
      <point x="86" y="297"/>
      <point x="151" y="270"/>
      <point x="283" y="270" type="curve" smooth="yes"/>
      <point x="298" y="270" type="line"/>
    </contour>
  </outline>
</glyph>
<glyph name="u1061C" format="2">
  <advance width="730"/>
  <unicode hex="1061C"/>
  <outline>
    <contour>
      <point x="80" y="0" type="line"/>
      <point x="650" y="0" type="line"/>
      <point x="650" y="63" type="line"/>
      <point x="530" y="63" type="line"/>
      <point x="571" y="263" type="line"/>
      <point x="635" y="251" type="line"/>
      <point x="647" y="312" type="line"/>
      <point x="584" y="324" type="line"/>
      <point x="680" y="783" type="line"/>
      <point x="613" y="800" type="line"/>
      <point x="518" y="337" type="line"/>
      <point x="451" y="350" type="line"/>
      <point x="439" y="289" type="line"/>
      <point x="505" y="276" type="line"/>
      <point x="462" y="63" type="line"/>
      <point x="400" y="63" type="line"/>
      <point x="400" y="175" type="line"/>
      <point x="465" y="175" type="line"/>
      <point x="465" y="238" type="line"/>
      <point x="400" y="238" type="line"/>
      <point x="400" y="800" type="line"/>
      <point x="330" y="800" type="line"/>
      <point x="330" y="238" type="line"/>
      <point x="265" y="238" type="line"/>
      <point x="265" y="175" type="line"/>
      <point x="330" y="175" type="line"/>
      <point x="330" y="63" type="line"/>
      <point x="267" y="63" type="line"/>
      <point x="224" y="276" type="line"/>
      <point x="291" y="289" type="line"/>
      <point x="279" y="350" type="line"/>
      <point x="211" y="337" type="line"/>
      <point x="117" y="800" type="line"/>
      <point x="50" y="783" type="line"/>
      <point x="145" y="324" type="line"/>
      <point x="83" y="312" type="line"/>
      <point x="95" y="251" type="line"/>
      <point x="158" y="263" type="line"/>
      <point x="200" y="63" type="line"/>
      <point x="80" y="63" type="line"/>
    </contour>
  </outline>
</glyph>
<glyph name="u1061D" format="2">
  <advance width="794"/>
  <unicode hex="1061D"/>
  <outline>
    <contour>
      <point x="362" y="0" type="line"/>
      <point x="432" y="0" type="line"/>
      <point x="432" y="697" type="line"/>
      <point x="529" y="697" type="line"/>
      <point x="492" y="656" type="line"/>
      <point x="540" y="614" type="line"/>
      <point x="599" y="680" type="line"/>
      <point x="659" y="614" type="line"/>
      <point x="707" y="656" type="line"/>
      <point x="670" y="697" type="line"/>
      <point x="764" y="697" type="line"/>
      <point x="764" y="760" type="line"/>
      <point x="672" y="760" type="line"/>
      <point x="707" y="799" type="line"/>
      <point x="661" y="843" type="line"/>
      <point x="599" y="775" type="line"/>
      <point x="538" y="843" type="line"/>
      <point x="492" y="799" type="line"/>
      <point x="527" y="760" type="line"/>
      <point x="265" y="760" type="line"/>
      <point x="300" y="799" type="line"/>
      <point x="254" y="843" type="line"/>
      <point x="192" y="775" type="line"/>
      <point x="131" y="843" type="line"/>
      <point x="85" y="799" type="line"/>
      <point x="120" y="760" type="line"/>
      <point x="30" y="760" type="line"/>
      <point x="30" y="697" type="line"/>
      <point x="122" y="697" type="line"/>
      <point x="85" y="656" type="line"/>
      <point x="133" y="614" type="line"/>
      <point x="192" y="680" type="line"/>
      <point x="252" y="614" type="line"/>
      <point x="300" y="656" type="line"/>
      <point x="263" y="697" type="line"/>
      <point x="362" y="697" type="line"/>
    </contour>
  </outline>
</glyph>
<glyph name="u1061E" format="2">
  <advance width="674"/>
  <unicode hex="1061E"/>
  <outline>
    <contour>
      <point x="303" y="0" type="line"/>
      <point x="373" y="0" type="line"/>
      <point x="373" y="399" type="line"/>
      <point x="654" y="784" type="line"/>
      <point x="595" y="820" type="line"/>
      <point x="337" y="464" type="line"/>
      <point x="79" y="820" type="line"/>
      <point x="20" y="784" type="line"/>
      <point x="303" y="396" type="line"/>
    </contour>
  </outline>
</glyph>
<glyph name="u1061F" format="2">
  <advance width="706"/>
  <unicode hex="1061F"/>
  <outline>
    <contour>
      <point x="444" y="-15" type="curve" smooth="yes"/>
      <point x="524" y="-15"/>
      <point x="578" y="-1"/>
      <point x="626" y="24" type="curve"/>
      <point x="595" y="83" type="line"/>
      <point x="557" y="62"/>
      <point x="513" y="50"/>
      <point x="444" y="50" type="curve" smooth="yes"/>
      <point x="269" y="50"/>
      <point x="130" y="180"/>
      <point x="130" y="402" type="curve" smooth="yes"/>
      <point x="130" y="624"/>
      <point x="269" y="750"/>
      <point x="444" y="750" type="curve" smooth="yes"/>
      <point x="513" y="750"/>
      <point x="557" y="738"/>
      <point x="595" y="717" type="curve"/>
      <point x="626" y="776" type="line"/>
      <point x="578" y="801"/>
      <point x="524" y="815"/>
      <point x="444" y="815" type="curve" smooth="yes"/>
      <point x="227" y="815"/>
      <point x="60" y="656"/>
      <point x="60" y="403" type="curve" smooth="yes"/>
      <point x="60" y="148"/>
      <point x="227" y="-15"/>
    </contour>
  </outline>
</glyph>
<glyph name="u10620" format="2">
  <advance width="700"/>
  <unicode hex="10620"/>
  <outline>
    <contour>
      <point x="88" y="-10" type="line"/>
      <point x="350" y="687" type="line"/>
      <point x="612" y="-10" type="line"/>
      <point x="680" y="19" type="line"/>
      <point x="378" y="800" type="line"/>
      <point x="322" y="800" type="line"/>
      <point x="20" y="19" type="line"/>
    </contour>
  </outline>
</glyph>
<glyph name="u10621" format="2">
  <advance width="700"/>
  <unicode hex="10621"/>
  <outline>
    <contour>
      <point x="140" y="513" type="line"/>
      <point x="560" y="513" type="line"/>
      <point x="560" y="576" type="line"/>
      <point x="140" y="576" type="line"/>
    </contour>
    <contour>
      <point x="40" y="264" type="line"/>
      <point x="300" y="264" type="line"/>
      <point x="300" y="327" type="line"/>
      <point x="40" y="327" type="line"/>
    </contour>
    <contour>
      <point x="400" y="264" type="line"/>
      <point x="660" y="264" type="line"/>
      <point x="660" y="327" type="line"/>
      <point x="400" y="327" type="line"/>
    </contour>
    <contour>
      <point x="88" y="-10" type="line"/>
      <point x="350" y="687" type="line"/>
      <point x="612" y="-10" type="line"/>
      <point x="680" y="19" type="line"/>
      <point x="378" y="800" type="line"/>
      <point x="322" y="800" type="line"/>
      <point x="20" y="19" type="line"/>
    </contour>
  </outline>
</glyph>
<glyph name="u10622" format="2">
  <advance width="655"/>
  <unicode hex="10622"/>
  <outline>
    <contour>
      <point x="50" y="0" type="line"/>
      <point x="605" y="0" type="line"/>
      <point x="605" y="64" type="line"/>
      <point x="583" y="249"/>
      <point x="516" y="457"/>
      <point x="366" y="567" type="curve"/>
      <point x="555" y="567" type="line"/>
      <point x="555" y="630" type="line"/>
      <point x="362" y="630" type="line"/>
      <point x="362" y="800" type="line"/>
      <point x="292" y="800" type="line"/>
      <point x="292" y="630" type="line"/>
      <point x="100" y="630" type="line"/>
      <point x="100" y="567" type="line"/>
      <point x="288" y="567" type="line"/>
      <point x="138" y="457"/>
      <point x="71" y="249"/>
      <point x="50" y="64" type="curve"/>
    </contour>
    <contour>
      <point x="119" y="63" type="line"/>
      <point x="136" y="251"/>
      <point x="203" y="414"/>
      <point x="292" y="486" type="curve"/>
      <point x="292" y="63" type="line"/>
    </contour>
    <contour>
      <point x="362" y="63" type="line"/>
      <point x="362" y="486" type="line"/>
      <point x="451" y="414"/>
      <point x="517" y="251"/>
      <point x="536" y="63" type="curve"/>
    </contour>
  </outline>
</glyph>
<glyph name="u10623" format="2">
  <advance width="620"/>
  <unicode hex="10623"/>
  <outline>
    <contour>
      <point x="50" y="0" type="line"/>
      <point x="520" y="0" type="line"/>
      <point x="520" y="800" type="line"/>
      <point x="468" y="800" type="line" smooth="yes"/>
      <point x="219" y="800"/>
      <point x="50" y="468"/>
      <point x="50" y="104" type="curve" smooth="yes"/>
    </contour>
    <contour>
      <point x="120" y="63" type="line"/>
      <point x="120" y="107" type="line" smooth="yes"/>
      <point x="120" y="175"/>
      <point x="127" y="252"/>
      <point x="144" y="329" type="curve"/>
      <point x="264" y="329" type="line"/>
      <point x="264" y="63" type="line"/>
    </contour>
    <contour>
      <point x="334" y="63" type="line"/>
      <point x="334" y="329" type="line"/>
      <point x="450" y="329" type="line"/>
      <point x="450" y="63" type="line"/>
    </contour>
    <contour>
      <point x="159" y="392" type="line"/>
      <point x="183" y="476"/>
      <point x="217" y="556"/>
      <point x="264" y="617" type="curve"/>
      <point x="264" y="392" type="line"/>
    </contour>
    <contour>
      <point x="334" y="392" type="line"/>
      <point x="334" y="688" type="line"/>
      <point x="368" y="713"/>
      <point x="407" y="730"/>
      <point x="450" y="735" type="curve"/>
      <point x="450" y="392" type="line"/>
    </contour>
  </outline>
</glyph>
<glyph name="u10624" format="2">
  <advance width="526"/>
  <unicode hex="10624"/>
  <outline>
    <contour>
      <point x="228" y="0" type="line"/>
      <point x="298" y="0" type="line"/>
      <point x="298" y="377" type="line"/>
      <point x="466" y="377" type="line" smooth="yes"/>
      <point x="489" y="377"/>
      <point x="496" y="418"/>
      <point x="496" y="434" type="curve" smooth="yes"/>
      <point x="496" y="499"/>
      <point x="469" y="560"/>
      <point x="393" y="622" type="curve"/>
      <point x="352" y="576" type="line"/>
      <point x="402" y="531"/>
      <point x="429" y="483"/>
      <point x="429" y="449" type="curve" smooth="yes"/>
      <point x="429" y="440" type="line"/>
      <point x="298" y="440" type="line"/>
      <point x="298" y="800" type="line"/>
      <point x="228" y="800" type="line"/>
      <point x="228" y="440" type="line"/>
      <point x="97" y="440" type="line"/>
      <point x="97" y="449" type="line" smooth="yes"/>
      <point x="97" y="483"/>
      <point x="124" y="531"/>
      <point x="174" y="576" type="curve"/>
      <point x="133" y="622" type="line"/>
      <point x="57" y="560"/>
      <point x="30" y="499"/>
      <point x="30" y="434" type="curve" smooth="yes"/>
      <point x="30" y="418"/>
      <point x="37" y="377"/>
      <point x="60" y="377" type="curve" smooth="yes"/>
      <point x="228" y="377" type="line"/>
    </contour>
  </outline>
</glyph>
<glyph name="u10625" format="2">
  <advance width="688"/>
  <unicode hex="10625"/>
  <outline>
    <contour>
      <point x="310" y="0" type="line"/>
      <point x="380" y="0" type="line"/>
      <point x="380" y="287" type="line"/>
      <point x="571" y="30" type="line"/>
      <point x="627" y="71" type="line"/>
      <point x="400" y="377" type="line"/>
      <point x="638" y="377" type="line"/>
      <point x="638" y="440" type="line"/>
      <point x="421" y="440" type="line"/>
      <point x="633" y="726" type="line"/>
      <point x="577" y="766" type="line"/>
      <point x="380" y="500" type="line"/>
      <point x="380" y="800" type="line"/>
      <point x="310" y="800" type="line"/>
      <point x="310" y="498" type="line"/>
      <point x="111" y="766" type="line"/>
      <point x="55" y="726" type="line"/>
      <point x="267" y="440" type="line"/>
      <point x="50" y="440" type="line"/>
      <point x="50" y="377" type="line"/>
      <point x="288" y="377" type="line"/>
      <point x="61" y="71" type="line"/>
      <point x="117" y="30" type="line"/>
      <point x="310" y="290" type="line"/>
    </contour>
  </outline>
</glyph>
<glyph name="u10626" format="2">
  <advance width="768"/>
  <unicode hex="10626"/>
  <outline>
    <contour>
      <point x="107" y="0" type="line"/>
      <point x="177" y="0" type="line"/>
      <point x="177" y="372" type="line"/>
      <point x="349" y="372" type="line"/>
      <point x="349" y="0" type="line"/>
      <point x="419" y="0" type="line"/>
      <point x="419" y="372" type="line"/>
      <point x="591" y="372" type="line"/>
      <point x="591" y="0" type="line"/>
      <point x="661" y="0" type="line"/>
      <point x="661" y="372" type="line"/>
      <point x="718" y="372" type="line"/>
      <point x="718" y="441" type="line"/>
      <point x="599" y="579" type="line"/>
      <point x="683" y="662" type="line"/>
      <point x="635" y="708" type="line"/>
      <point x="556" y="629" type="line"/>
      <point x="399" y="810" type="line"/>
      <point x="369" y="810" type="line"/>
      <point x="212" y="629" type="line"/>
      <point x="133" y="708" type="line"/>
      <point x="85" y="662" type="line"/>
      <point x="169" y="579" type="line"/>
      <point x="50" y="441" type="line"/>
      <point x="50" y="372" type="line"/>
      <point x="107" y="372" type="line"/>
    </contour>
    <contour>
      <point x="125" y="435" type="line"/>
      <point x="384" y="734" type="line"/>
      <point x="643" y="435" type="line"/>
    </contour>
  </outline>
</glyph>
<glyph name="u10627" format="2">
  <advance width="627"/>
  <unicode hex="10627"/>
  <outline>
    <contour>
      <point x="30" y="0" type="line"/>
      <point x="191" y="0" type="line"/>
      <point x="191" y="63" type="line"/>
      <point x="108" y="63" type="line"/>
      <point x="271" y="394" type="line"/>
      <point x="465" y="0" type="line"/>
      <point x="607" y="0" type="line"/>
      <point x="607" y="63" type="line"/>
      <point x="512" y="63" type="line"/>
      <point x="310" y="472" type="line"/>
      <point x="464" y="784" type="line"/>
      <point x="402" y="810" type="line"/>
      <point x="272" y="549" type="line"/>
      <point x="143" y="810" type="line"/>
      <point x="81" y="784" type="line"/>
      <point x="233" y="472" type="line"/>
      <point x="30" y="63" type="line"/>
    </contour>
  </outline>
</glyph>
<glyph name="u10628" format="2">
  <advance width="518"/>
  <unicode hex="10628"/>
  <outline>
    <contour>
      <point x="77" y="-10" type="line"/>
      <point x="200" y="223" type="line"/>
      <point x="218" y="217"/>
      <point x="238" y="214"/>
      <point x="259" y="214" type="curve" smooth="yes"/>
      <point x="279" y="214"/>
      <point x="299" y="217"/>
      <point x="318" y="222" type="curve"/>
      <point x="441" y="-10" type="line"/>
      <point x="498" y="22" type="line"/>
      <point x="376" y="251" type="line"/>
      <point x="422" y="285"/>
      <point x="453" y="339"/>
      <point x="453" y="402" type="curve" smooth="yes"/>
      <point x="453" y="465"/>
      <point x="422" y="519"/>
      <point x="375" y="553" type="curve"/>
      <point x="498" y="787" type="line"/>
      <point x="441" y="817" type="line"/>
      <point x="316" y="582" type="line"/>
      <point x="298" y="587"/>
      <point x="279" y="590"/>
      <point x="259" y="590" type="curve" smooth="yes"/>
      <point x="239" y="590"/>
      <point x="219" y="587"/>
      <point x="201" y="581" type="curve"/>
      <point x="77" y="817" type="line"/>
      <point x="20" y="787" type="line"/>
      <point x="143" y="553" type="line"/>
      <point x="96" y="519"/>
      <point x="66" y="464"/>
      <point x="66" y="402" type="curve" smooth="yes"/>
      <point x="66" y="340"/>
      <point x="96" y="286"/>
      <point x="142" y="252" type="curve"/>
      <point x="20" y="22" type="line"/>
    </contour>
    <contour>
      <point x="259" y="272" type="curve" smooth="yes"/>
      <point x="248" y="272"/>
      <point x="238" y="273"/>
      <point x="228" y="275" type="curve"/>
      <point x="259" y="334" type="line"/>
      <point x="290" y="276" type="line"/>
      <point x="280" y="273"/>
      <point x="269" y="272"/>
    </contour>
    <contour>
      <point x="170" y="306" type="line"/>
      <point x="145" y="330"/>
      <point x="130" y="364"/>
      <point x="130" y="402" type="curve" smooth="yes"/>
      <point x="130" y="440"/>
      <point x="146" y="475"/>
      <point x="172" y="499" type="curve"/>
      <point x="222" y="404" type="line"/>
    </contour>
    <contour>
      <point x="347" y="306" type="curve"/>
      <point x="295" y="404" type="line"/>
      <point x="346" y="499" type="line"/>
      <point x="372" y="475"/>
      <point x="389" y="440"/>
      <point x="389" y="402" type="curve" smooth="yes"/>
      <point x="389" y="364"/>
      <point x="372" y="330"/>
    </contour>
    <contour>
      <point x="259" y="473" type="line"/>
      <point x="229" y="529" type="line"/>
      <point x="238" y="531"/>
      <point x="248" y="533"/>
      <point x="259" y="533" type="curve" smooth="yes"/>
      <point x="269" y="533"/>
      <point x="279" y="532"/>
      <point x="289" y="529" type="curve"/>
    </contour>
  </outline>
</glyph>
<glyph name="u10629" format="2">
  <advance width="1040"/>
  <unicode hex="10629"/>
  <outline>
    <contour>
      <point x="330" y="0" type="line"/>
      <point x="400" y="0" type="line"/>
      <point x="400" y="57" type="line" smooth="yes"/>
      <point x="400" y="166"/>
      <point x="448" y="264"/>
      <point x="520" y="345" type="curve"/>
      <point x="592" y="264"/>
      <point x="640" y="166"/>
      <point x="640" y="57" type="curve" smooth="yes"/>
      <point x="640" y="0" type="line"/>
      <point x="710" y="0" type="line"/>
      <point x="710" y="55" type="line" smooth="yes"/>
      <point x="710" y="196"/>
      <point x="654" y="305"/>
      <point x="569" y="395" type="curve"/>
      <point x="598" y="421"/>
      <point x="629" y="445"/>
      <point x="662" y="467" type="curve"/>
      <point x="960" y="467" type="line"/>
      <point x="960" y="530" type="line"/>
      <point x="630" y="530" type="line"/>
      <point x="591" y="503"/>
      <point x="554" y="474"/>
      <point x="520" y="444" type="curve"/>
      <point x="486" y="474"/>
      <point x="449" y="503"/>
      <point x="410" y="530" type="curve"/>
      <point x="80" y="530" type="line"/>
      <point x="80" y="467" type="line"/>
      <point x="378" y="467" type="line"/>
      <point x="410" y="445"/>
      <point x="441" y="421"/>
      <point x="470" y="395" type="curve"/>
      <point x="385" y="305"/>
      <point x="330" y="196"/>
      <point x="330" y="55" type="curve" smooth="yes"/>
    </contour>
    <contour>
      <point x="90" y="583" type="line"/>
      <point x="155" y="583" type="line"/>
      <point x="155" y="800" type="line"/>
      <point x="90" y="800" type="line"/>
    </contour>
    <contour>
      <point x="192" y="583" type="line"/>
      <point x="257" y="583" type="line"/>
      <point x="257" y="800" type="line"/>
      <point x="192" y="800" type="line"/>
    </contour>
    <contour>
      <point x="294" y="583" type="line"/>
      <point x="359" y="583" type="line"/>
      <point x="359" y="800" type="line"/>
      <point x="294" y="800" type="line"/>
    </contour>
    <contour>
      <point x="396" y="583" type="line"/>
      <point x="461" y="583" type="line"/>
      <point x="461" y="800" type="line"/>
      <point x="396" y="800" type="line"/>
    </contour>
    <contour>
      <point x="579" y="583" type="line"/>
      <point x="644" y="583" type="line"/>
      <point x="644" y="800" type="line"/>
      <point x="579" y="800" type="line"/>
    </contour>
    <contour>
      <point x="681" y="583" type="line"/>
      <point x="746" y="583" type="line"/>
      <point x="746" y="800" type="line"/>
      <point x="681" y="800" type="line"/>
    </contour>
    <contour>
      <point x="783" y="583" type="line"/>
      <point x="848" y="583" type="line"/>
      <point x="848" y="800" type="line"/>
      <point x="783" y="800" type="line"/>
    </contour>
    <contour>
      <point x="885" y="583" type="line"/>
      <point x="950" y="583" type="line"/>
      <point x="950" y="800" type="line"/>
      <point x="885" y="800" type="line"/>
    </contour>
  </outline>
</glyph>
<glyph name="u1062A" format="2">
  <advance width="732"/>
  <unicode hex="1062A"/>
  <outline>
    <contour>
      <point x="490" y="0" type="line"/>
      <point x="662" y="0" type="line"/>
      <point x="662" y="63" type="line"/>
      <point x="610" y="63" type="line"/>
      <point x="610" y="500" type="line"/>
      <point x="662" y="500" type="line"/>
      <point x="662" y="563" type="line"/>
      <point x="610" y="563" type="line"/>
      <point x="610" y="710" type="line"/>
      <point x="540" y="710" type="line"/>
      <point x="540" y="563" type="line"/>
      <point x="490" y="563" type="line"/>
      <point x="490" y="500" type="line"/>
      <point x="540" y="500" type="line"/>
      <point x="540" y="63" type="line"/>
      <point x="490" y="63" type="line"/>
    </contour>
    <contour>
      <point x="70" y="0" type="line"/>
      <point x="242" y="0" type="line"/>
      <point x="242" y="63" type="line"/>
      <point x="190" y="63" type="line"/>
      <point x="190" y="500" type="line"/>
      <point x="242" y="500" type="line"/>
      <point x="242" y="563" type="line"/>
      <point x="190" y="563" type="line"/>
      <point x="190" y="710" type="line"/>
      <point x="120" y="710" type="line"/>
      <point x="120" y="563" type="line"/>
      <point x="70" y="563" type="line"/>
      <point x="70" y="500" type="line"/>
      <point x="120" y="500" type="line"/>
      <point x="120" y="63" type="line"/>
      <point x="70" y="63" type="line"/>
    </contour>
    <contour>
      <point x="280" y="0" type="line"/>
      <point x="452" y="0" type="line"/>
      <point x="452" y="63" type="line"/>
      <point x="400" y="63" type="line"/>
      <point x="400" y="500" type="line"/>
      <point x="452" y="500" type="line"/>
      <point x="452" y="563" type="line"/>
      <point x="400" y="563" type="line"/>
      <point x="400" y="710" type="line"/>
      <point x="330" y="710" type="line"/>
      <point x="330" y="563" type="line"/>
      <point x="280" y="563" type="line"/>
      <point x="280" y="500" type="line"/>
      <point x="330" y="500" type="line"/>
      <point x="330" y="63" type="line"/>
      <point x="280" y="63" type="line"/>
    </contour>
    <contour>
      <point x="45" y="738" type="line"/>
      <point x="103" y="799"/>
      <point x="141" y="817"/>
      <point x="191" y="817" type="curve" smooth="yes"/>
      <point x="244" y="817"/>
      <point x="305" y="763"/>
      <point x="356" y="763" type="curve" smooth="yes"/>
      <point x="376" y="763" type="line" smooth="yes"/>
      <point x="427" y="763"/>
      <point x="488" y="817"/>
      <point x="541" y="817" type="curve" smooth="yes"/>
      <point x="591" y="817"/>
      <point x="629" y="799"/>
      <point x="687" y="738" type="curve"/>
      <point x="732" y="783" type="line"/>
      <point x="698" y="820"/>
      <point x="629" y="883"/>
      <point x="541" y="883" type="curve" smooth="yes"/>
      <point x="471" y="883"/>
      <point x="413" y="827"/>
      <point x="373" y="827" type="curve" smooth="yes"/>
      <point x="359" y="827" type="line" smooth="yes"/>
      <point x="319" y="827"/>
      <point x="261" y="883"/>
      <point x="191" y="883" type="curve" smooth="yes"/>
      <point x="103" y="883"/>
      <point x="34" y="820"/>
      <point x="0" y="783" type="curve"/>
    </contour>
  </outline>
</glyph>
<glyph name="u1062B" format="2">
  <advance width="692"/>
  <unicode hex="1062B"/>
  <outline>
    <contour>
      <point x="50" y="0" type="line"/>
      <point x="222" y="0" type="line"/>
      <point x="222" y="63" type="line"/>
      <point x="170" y="63" type="line"/>
      <point x="170" y="288" type="line" smooth="yes"/>
      <point x="170" y="337"/>
      <point x="187" y="359"/>
      <point x="210" y="375" type="curve" smooth="yes"/>
      <point x="291" y="429" type="line"/>
      <point x="312" y="63" type="line"/>
      <point x="260" y="63" type="line"/>
      <point x="260" y="0" type="line"/>
      <point x="432" y="0" type="line"/>
      <point x="432" y="63" type="line"/>
      <point x="377" y="63" type="line"/>
      <point x="355" y="469" type="line"/>
      <point x="436" y="520" type="line"/>
      <point x="514" y="63" type="line"/>
      <point x="470" y="63" type="line"/>
      <point x="470" y="0" type="line"/>
      <point x="642" y="0" type="line"/>
      <point x="642" y="63" type="line"/>
      <point x="579" y="63" type="line"/>
      <point x="494" y="559" type="line"/>
      <point x="550" y="605"/>
      <point x="561" y="647"/>
      <point x="561" y="690" type="curve" smooth="yes"/>
      <point x="561" y="768"/>
      <point x="498" y="812"/>
      <point x="402" y="812" type="curve" smooth="yes"/>
      <point x="332" y="812"/>
      <point x="289" y="789"/>
      <point x="253" y="760" type="curve"/>
      <point x="288" y="708" type="line"/>
      <point x="310" y="727"/>
      <point x="348" y="747"/>
      <point x="402" y="747" type="curve" smooth="yes"/>
      <point x="464" y="747"/>
      <point x="491" y="722"/>
      <point x="491" y="684" type="curve" smooth="yes"/>
      <point x="491" y="628"/>
      <point x="456" y="605"/>
      <point x="358" y="543" type="curve" smooth="yes"/>
      <point x="167" y="421" type="line" smooth="yes"/>
      <point x="118" y="390"/>
      <point x="100" y="351"/>
      <point x="100" y="288" type="curve" smooth="yes"/>
      <point x="100" y="63" type="line"/>
      <point x="50" y="63" type="line"/>
    </contour>
  </outline>
</glyph>
<glyph name="u1062C" format="2">
  <advance width="880"/>
  <unicode hex="1062C"/>
  <outline>
    <contour>
      <point x="456" y="-10" type="line"/>
      <point x="589" y="364" type="line"/>
      <point x="723" y="-10" type="line"/>
      <point x="787" y="14" type="line"/>
      <point x="626" y="446" type="line"/>
      <point x="830" y="446" type="line"/>
      <point x="830" y="509" type="line"/>
      <point x="625" y="509" type="line"/>
      <point x="625" y="800" type="line"/>
      <point x="555" y="800" type="line"/>
      <point x="555" y="509" type="line"/>
      <point x="364" y="509" type="line"/>
      <point x="364" y="540" type="line" smooth="yes"/>
      <point x="364" y="717"/>
      <point x="316" y="812"/>
      <point x="173" y="812" type="curve" smooth="yes"/>
      <point x="101" y="812"/>
      <point x="53" y="789"/>
      <point x="20" y="768" type="curve"/>
      <point x="52" y="710" type="line"/>
      <point x="79" y="730"/>
      <point x="117" y="747"/>
      <point x="173" y="747" type="curve" smooth="yes"/>
      <point x="270" y="747"/>
      <point x="294" y="677"/>
      <point x="294" y="535" type="curve" smooth="yes"/>
      <point x="294" y="0" type="line"/>
      <point x="364" y="0" type="line"/>
      <point x="364" y="446" type="line"/>
      <point x="552" y="446" type="line"/>
      <point x="392" y="14" type="line"/>
    </contour>
  </outline>
</glyph>
<glyph name="u1062D" format="2">
  <advance width="525"/>
  <unicode hex="1062D"/>
  <outline>
    <contour>
      <point x="50" y="0" type="line"/>
      <point x="475" y="0" type="line"/>
      <point x="475" y="63" type="line"/>
      <point x="127" y="63" type="line"/>
      <point x="358" y="356" type="line" smooth="yes"/>
      <point x="417" y="431"/>
      <point x="475" y="523"/>
      <point x="475" y="631" type="curve" smooth="yes"/>
      <point x="475" y="730"/>
      <point x="412" y="815"/>
      <point x="277" y="815" type="curve" smooth="yes"/>
      <point x="170" y="815"/>
      <point x="106" y="753"/>
      <point x="68" y="684" type="curve"/>
      <point x="123" y="649" type="line"/>
      <point x="153" y="703"/>
      <point x="201" y="752"/>
      <point x="279" y="752" type="curve" smooth="yes"/>
      <point x="366" y="752"/>
      <point x="405" y="695"/>
      <point x="405" y="631" type="curve" smooth="yes"/>
      <point x="405" y="558"/>
      <point x="387" y="504"/>
      <point x="326" y="419" type="curve"/>
      <point x="311" y="459"/>
      <point x="272" y="489"/>
      <point x="228" y="489" type="curve" smooth="yes"/>
      <point x="172" y="489"/>
      <point x="125" y="442"/>
      <point x="125" y="386" type="curve" smooth="yes"/>
      <point x="125" y="332"/>
      <point x="168" y="287"/>
      <point x="221" y="283" type="curve"/>
      <point x="50" y="64" type="line"/>
    </contour>
    <contour>
      <point x="228" y="329" type="curve" smooth="yes"/>
      <point x="197" y="329"/>
      <point x="173" y="353"/>
      <point x="173" y="385" type="curve" smooth="yes"/>
      <point x="173" y="417"/>
      <point x="197" y="443"/>
      <point x="228" y="443" type="curve" smooth="yes"/>
      <point x="259" y="443"/>
      <point x="284" y="417"/>
      <point x="284" y="385" type="curve" smooth="yes"/>
      <point x="284" y="353"/>
      <point x="259" y="329"/>
    </contour>
  </outline>
</glyph>
<glyph name="u1062E" format="2">
  <advance width="770"/>
  <unicode hex="1062E"/>
  <outline>
    <contour>
      <point x="100" y="0" type="line"/>
      <point x="170" y="0" type="line"/>
      <point x="170" y="347" type="line"/>
      <point x="350" y="347" type="line"/>
      <point x="350" y="0" type="line"/>
      <point x="420" y="0" type="line"/>
      <point x="420" y="347" type="line"/>
      <point x="600" y="347" type="line"/>
      <point x="600" y="0" type="line"/>
      <point x="670" y="0" type="line"/>
      <point x="670" y="800" type="line"/>
      <point x="100" y="800" type="line"/>
    </contour>
    <contour>
      <point x="170" y="410" type="line"/>
      <point x="170" y="737" type="line"/>
      <point x="600" y="737" type="line"/>
      <point x="600" y="410" type="line"/>
    </contour>
  </outline>
</glyph>
<glyph name="u1062F" format="2">
  <advance width="650"/>
  <unicode hex="1062F"/>
  <outline>
    <contour>
      <point x="100" y="0" type="line"/>
      <point x="170" y="0" type="line"/>
      <point x="170" y="257" type="line"/>
      <point x="480" y="257" type="line"/>
      <point x="480" y="0" type="line"/>
      <point x="550" y="0" type="line"/>
      <point x="550" y="800" type="line"/>
      <point x="480" y="800" type="line"/>
      <point x="480" y="550" type="line"/>
      <point x="170" y="550" type="line"/>
      <point x="170" y="800" type="line"/>
      <point x="100" y="800" type="line"/>
    </contour>
    <contour>
      <point x="170" y="320" type="line"/>
      <point x="170" y="487" type="line"/>
      <point x="480" y="487" type="line"/>
      <point x="480" y="320" type="line"/>
    </contour>
  </outline>
</glyph>
<glyph name="u10630" format="2">
  <advance width="650"/>
  <unicode hex="10630"/>
  <outline>
    <contour>
      <point x="100" y="0" type="line"/>
      <point x="170" y="0" type="line"/>
      <point x="170" y="167" type="line"/>
      <point x="480" y="167" type="line"/>
      <point x="480" y="0" type="line"/>
      <point x="550" y="0" type="line"/>
      <point x="550" y="800" type="line"/>
      <point x="480" y="800" type="line"/>
      <point x="480" y="630" type="line"/>
      <point x="170" y="630" type="line"/>
      <point x="170" y="800" type="line"/>
      <point x="100" y="800" type="line"/>
    </contour>
    <contour>
      <point x="170" y="230" type="line"/>
      <point x="170" y="367" type="line"/>
      <point x="480" y="367" type="line"/>
      <point x="480" y="230" type="line"/>
    </contour>
    <contour>
      <point x="170" y="430" type="line"/>
      <point x="170" y="567" type="line"/>
      <point x="480" y="567" type="line"/>
      <point x="480" y="430" type="line"/>
    </contour>
  </outline>
</glyph>
<glyph name="u10631" format="2">
  <advance width="650"/>
  <unicode hex="10631"/>
  <outline>
    <contour>
      <point x="100" y="0" type="line"/>
      <point x="550" y="0" type="line"/>
      <point x="550" y="800" type="line"/>
      <point x="100" y="800" type="line"/>
    </contour>
    <contour>
      <point x="170" y="63" type="line"/>
      <point x="170" y="160" type="line"/>
      <point x="480" y="160" type="line"/>
      <point x="480" y="63" type="line"/>
    </contour>
    <contour>
      <point x="170" y="223" type="line"/>
      <point x="170" y="577" type="line"/>
      <point x="480" y="577" type="line"/>
      <point x="480" y="223" type="line"/>
    </contour>
    <contour>
      <point x="170" y="640" type="line"/>
      <point x="170" y="737" type="line"/>
      <point x="480" y="737" type="line"/>
      <point x="480" y="640" type="line"/>
    </contour>
  </outline>
</glyph>
<glyph name="u10632" format="2">
  <advance width="680"/>
  <unicode hex="10632"/>
  <outline>
    <contour>
      <point x="100" y="0" type="line"/>
      <point x="591" y="0" type="line"/>
      <point x="591" y="63" type="line"/>
      <point x="170" y="63" type="line"/>
      <point x="170" y="737" type="line"/>
      <point x="530" y="737" type="line"/>
      <point x="530" y="510" type="line"/>
      <point x="309" y="510" type="line"/>
      <point x="309" y="447" type="line"/>
      <point x="600" y="447" type="line"/>
      <point x="600" y="800" type="line"/>
      <point x="100" y="800" type="line"/>
    </contour>
  </outline>
</glyph>
<glyph name="u10633" format="2">
  <advance width="670"/>
  <unicode hex="10633"/>
  <outline>
    <contour>
      <point x="100" y="0" type="line"/>
      <point x="590" y="0" type="line"/>
      <point x="590" y="63" type="line"/>
      <point x="540" y="179" type="line"/>
      <point x="470" y="179" type="line"/>
      <point x="520" y="63" type="line"/>
      <point x="170" y="63" type="line"/>
      <point x="170" y="737" type="line"/>
      <point x="520" y="737" type="line"/>
      <point x="470" y="621" type="line"/>
      <point x="540" y="621" type="line"/>
      <point x="590" y="737" type="line"/>
      <point x="590" y="800" type="line"/>
      <point x="100" y="800" type="line"/>
    </contour>
  </outline>
</glyph>
<glyph name="u10634" format="2">
  <advance width="685"/>
  <unicode hex="10634"/>
  <outline>
    <contour>
      <point x="100" y="0" type="line"/>
      <point x="602" y="0" type="line"/>
      <point x="602" y="196" type="line"/>
      <point x="591" y="193"/>
      <point x="574" y="191"/>
      <point x="557" y="191" type="curve" smooth="yes"/>
      <point x="502" y="191"/>
      <point x="460" y="235"/>
      <point x="460" y="290" type="curve" smooth="yes"/>
      <point x="460" y="344"/>
      <point x="502" y="389"/>
      <point x="557" y="389" type="curve" smooth="yes"/>
      <point x="577" y="389"/>
      <point x="596" y="383"/>
      <point x="612" y="372" type="curve"/>
      <point x="635" y="432" type="line"/>
      <point x="612" y="444"/>
      <point x="585" y="451"/>
      <point x="557" y="451" type="curve" smooth="yes"/>
      <point x="466" y="451"/>
      <point x="392" y="380"/>
      <point x="392" y="289" type="curve" smooth="yes"/>
      <point x="392" y="207"/>
      <point x="453" y="142"/>
      <point x="532" y="131" type="curve"/>
      <point x="532" y="63" type="line"/>
      <point x="170" y="63" type="line"/>
      <point x="170" y="800" type="line"/>
      <point x="100" y="800" type="line"/>
    </contour>
  </outline>
</glyph>
<glyph name="u10635" format="2">
  <advance width="755"/>
  <unicode hex="10635"/>
  <outline>
    <contour>
      <point x="100" y="0" type="line"/>
      <point x="650" y="0" type="line"/>
      <point x="650" y="464" type="line"/>
      <point x="420" y="464" type="line"/>
      <point x="420" y="800" type="line"/>
      <point x="100" y="800" type="line"/>
    </contour>
    <contour>
      <point x="170" y="218" type="curve"/>
      <point x="170" y="416" type="line"/>
      <point x="221" y="414"/>
      <point x="264" y="370"/>
      <point x="264" y="317" type="curve" smooth="yes"/>
      <point x="264" y="263"/>
      <point x="221" y="219"/>
    </contour>
    <contour>
      <point x="170" y="63" type="line"/>
      <point x="170" y="156" type="line"/>
      <point x="259" y="158"/>
      <point x="330" y="227"/>
      <point x="330" y="316" type="curve" smooth="yes"/>
      <point x="330" y="405"/>
      <point x="259" y="475"/>
      <point x="170" y="478" type="curve"/>
      <point x="170" y="737" type="line"/>
      <point x="350" y="737" type="line"/>
      <point x="350" y="401" type="line"/>
      <point x="580" y="401" type="line"/>
      <point x="580" y="63" type="line"/>
    </contour>
    <contour>
      <point x="490" y="488" type="line"/>
      <point x="581" y="488"/>
      <point x="655" y="558"/>
      <point x="655" y="648" type="curve" smooth="yes"/>
      <point x="655" y="739"/>
      <point x="581" y="810"/>
      <point x="490" y="810" type="curve" smooth="yes"/>
      <point x="479" y="810"/>
      <point x="469" y="809"/>
      <point x="459" y="807" type="curve"/>
      <point x="468" y="746" type="line"/>
      <point x="475" y="748"/>
      <point x="482" y="748"/>
      <point x="490" y="748" type="curve" smooth="yes"/>
      <point x="543" y="748"/>
      <point x="587" y="703"/>
      <point x="587" y="649" type="curve" smooth="yes"/>
      <point x="587" y="594"/>
      <point x="543" y="550"/>
      <point x="490" y="550" type="curve"/>
    </contour>
  </outline>
</glyph>
<glyph name="u10636" format="2">
  <advance width="684"/>
  <unicode hex="10636"/>
  <outline>
    <contour>
      <point x="100" y="0" type="line"/>
      <point x="170" y="0" type="line"/>
      <point x="170" y="84" type="line" smooth="yes"/>
      <point x="170" y="218"/>
      <point x="275" y="333"/>
      <point x="392" y="359" type="curve"/>
      <point x="392" y="165" type="line"/>
      <point x="322" y="165" type="line"/>
      <point x="322" y="102" type="line"/>
      <point x="534" y="102" type="line"/>
      <point x="534" y="165" type="line"/>
      <point x="462" y="165" type="line"/>
      <point x="462" y="364" type="line"/>
      <point x="564" y="351"/>
      <point x="585" y="254"/>
      <point x="590" y="195" type="curve"/>
      <point x="664" y="195" type="line"/>
      <point x="653" y="298"/>
      <point x="598" y="430"/>
      <point x="441" y="430" type="curve" smooth="yes"/>
      <point x="332" y="430"/>
      <point x="230" y="369"/>
      <point x="170" y="277" type="curve"/>
      <point x="170" y="800" type="line"/>
      <point x="100" y="800" type="line"/>
    </contour>
  </outline>
</glyph>
<glyph name="u10637" format="2">
  <advance width="692"/>
  <unicode hex="10637"/>
  <outline>
    <contour>
      <point x="311" y="0" type="line"/>
      <point x="381" y="0" type="line"/>
      <point x="381" y="370" type="line"/>
      <point x="563" y="370" type="line"/>
      <point x="642" y="737" type="line"/>
      <point x="642" y="800" type="line"/>
      <point x="50" y="800" type="line"/>
      <point x="50" y="737" type="line"/>
      <point x="129" y="370" type="line"/>
      <point x="311" y="370" type="line"/>
    </contour>
    <contour>
      <point x="346" y="472" type="curve" smooth="yes"/>
      <point x="370" y="472"/>
      <point x="389" y="491"/>
      <point x="389" y="515" type="curve" smooth="yes"/>
      <point x="389" y="539"/>
      <point x="370" y="558"/>
      <point x="346" y="558" type="curve" smooth="yes"/>
      <point x="322" y="558"/>
      <point x="303" y="539"/>
      <point x="303" y="515" type="curve" smooth="yes"/>
      <point x="303" y="491"/>
      <point x="322" y="472"/>
    </contour>
    <contour>
      <point x="237" y="610" type="curve" smooth="yes"/>
      <point x="261" y="610"/>
      <point x="280" y="629"/>
      <point x="280" y="653" type="curve" smooth="yes"/>
      <point x="280" y="677"/>
      <point x="261" y="696"/>
      <point x="237" y="696" type="curve" smooth="yes"/>
      <point x="213" y="696"/>
      <point x="194" y="677"/>
      <point x="194" y="653" type="curve" smooth="yes"/>
      <point x="194" y="629"/>
      <point x="213" y="610"/>
    </contour>
    <contour>
      <point x="186" y="433" type="line"/>
      <point x="120" y="737" type="line"/>
      <point x="572" y="737" type="line"/>
      <point x="506" y="433" type="line"/>
    </contour>
    <contour>
      <point x="455" y="610" type="curve" smooth="yes"/>
      <point x="479" y="610"/>
      <point x="498" y="629"/>
      <point x="498" y="653" type="curve" smooth="yes"/>
      <point x="498" y="677"/>
      <point x="479" y="696"/>
      <point x="455" y="696" type="curve" smooth="yes"/>
      <point x="431" y="696"/>
      <point x="412" y="677"/>
      <point x="412" y="653" type="curve" smooth="yes"/>
      <point x="412" y="629"/>
      <point x="431" y="610"/>
    </contour>
  </outline>
</glyph>
<glyph name="u10638" format="2">
  <advance width="655"/>
  <unicode hex="10638"/>
  <outline>
    <contour>
      <point x="195" y="0" type="line"/>
      <point x="531" y="0" type="line"/>
      <point x="531" y="63" type="line"/>
      <point x="427" y="63" type="line"/>
      <point x="605" y="600" type="line"/>
      <point x="605" y="660" type="line"/>
      <point x="229" y="660" type="line"/>
      <point x="338" y="760" type="line"/>
      <point x="297" y="810" type="line"/>
      <point x="161" y="684" type="line"/>
      <point x="120" y="810" type="line"/>
      <point x="57" y="791" type="line"/>
      <point x="109" y="635" type="line"/>
      <point x="20" y="553" type="line"/>
      <point x="63" y="506" type="line"/>
      <point x="131" y="569" type="line"/>
      <point x="299" y="63" type="line"/>
      <point x="195" y="63" type="line"/>
    </contour>
    <contour>
      <point x="363" y="72" type="line"/>
      <point x="270" y="352" type="line"/>
      <point x="456" y="352" type="line"/>
    </contour>
    <contour>
      <point x="249" y="415" type="line"/>
      <point x="189" y="597" type="line"/>
      <point x="537" y="597" type="line"/>
      <point x="477" y="415" type="line"/>
    </contour>
  </outline>
</glyph>
<glyph name="u1063A" format="2">
  <advance width="607"/>
  <unicode hex="1063A"/>
  <outline>
    <contour>
      <point x="261" y="0" type="curve"/>
      <point x="346" y="0" type="line"/>
      <point x="368" y="87"/>
      <point x="391" y="271"/>
      <point x="398" y="449" type="curve"/>
      <point x="503" y="475"/>
      <point x="557" y="543"/>
      <point x="557" y="627" type="curve" smooth="yes"/>
      <point x="557" y="733"/>
      <point x="470" y="815"/>
      <point x="303" y="815" type="curve" smooth="yes"/>
      <point x="137" y="815"/>
      <point x="50" y="733"/>
      <point x="50" y="627" type="curve" smooth="yes"/>
      <point x="50" y="543"/>
      <point x="104" y="475"/>
      <point x="208" y="449" type="curve"/>
      <point x="215" y="271"/>
      <point x="238" y="87"/>
    </contour>
    <contour>
      <point x="303" y="77" type="curve"/>
      <point x="284" y="229"/>
      <point x="271" y="384"/>
      <point x="271" y="552" type="curve" smooth="yes"/>
      <point x="271" y="669" type="line"/>
      <point x="206" y="669" type="line"/>
      <point x="206" y="554" type="line" smooth="yes"/>
      <point x="206" y="539"/>
      <point x="208" y="518"/>
      <point x="208" y="509" type="curve"/>
      <point x="143" y="530"/>
      <point x="114" y="575"/>
      <point x="114" y="627" type="curve" smooth="yes"/>
      <point x="114" y="699"/>
      <point x="169" y="758"/>
      <point x="303" y="758" type="curve" smooth="yes"/>
      <point x="434" y="758"/>
      <point x="493" y="699"/>
      <point x="493" y="627" type="curve" smooth="yes"/>
      <point x="493" y="576"/>
      <point x="462" y="531"/>
      <point x="399" y="510" type="curve"/>
      <point x="400" y="525"/>
      <point x="401" y="540"/>
      <point x="401" y="554" type="curve" smooth="yes"/>
      <point x="401" y="669" type="line"/>
      <point x="336" y="669" type="line"/>
      <point x="336" y="552" type="line" smooth="yes"/>
      <point x="336" y="383"/>
      <point x="323" y="229"/>
    </contour>
  </outline>
</glyph>
<glyph name="u1063B" format="2">
  <advance width="611"/>
  <unicode hex="1063B"/>
  <outline>
    <contour>
      <point x="240" y="-12" type="curve" smooth="yes"/>
      <point x="451" y="-12"/>
      <point x="561" y="175"/>
      <point x="561" y="342" type="curve" smooth="yes"/>
      <point x="561" y="429"/>
      <point x="535" y="503"/>
      <point x="494" y="569" type="curve"/>
      <point x="438" y="538" type="line"/>
      <point x="467" y="484"/>
      <point x="491" y="418"/>
      <point x="491" y="341" type="curve" smooth="yes"/>
      <point x="491" y="140"/>
      <point x="345" y="53"/>
      <point x="240" y="53" type="curve" smooth="yes"/>
      <point x="209" y="53"/>
      <point x="170" y="73"/>
      <point x="170" y="96" type="curve" smooth="yes"/>
      <point x="170" y="800" type="line"/>
      <point x="100" y="800" type="line"/>
      <point x="100" y="90" type="line" smooth="yes"/>
      <point x="100" y="8"/>
      <point x="202" y="-12"/>
    </contour>
    <contour>
      <point x="288" y="206" type="curve" smooth="yes"/>
      <point x="321" y="206"/>
      <point x="359" y="223"/>
      <point x="388" y="248" type="curve"/>
      <point x="356" y="295" type="line"/>
      <point x="340" y="285"/>
      <point x="314" y="269"/>
      <point x="296" y="269" type="curve" smooth="yes"/>
      <point x="284" y="269"/>
      <point x="276" y="278"/>
      <point x="276" y="305" type="curve" smooth="yes"/>
      <point x="276" y="356"/>
      <point x="288" y="406"/>
      <point x="308" y="468" type="curve"/>
      <point x="244" y="484" type="line"/>
      <point x="218" y="403"/>
      <point x="210" y="346"/>
      <point x="210" y="297" type="curve" smooth="yes"/>
      <point x="210" y="230"/>
      <point x="245" y="206"/>
    </contour>
    <contour>
      <point x="380" y="378" type="curve" smooth="yes"/>
      <point x="404" y="378"/>
      <point x="423" y="397"/>
      <point x="423" y="421" type="curve" smooth="yes"/>
      <point x="423" y="445"/>
      <point x="404" y="464"/>
      <point x="380" y="464" type="curve" smooth="yes"/>
      <point x="356" y="464"/>
      <point x="337" y="445"/>
      <point x="337" y="421" type="curve" smooth="yes"/>
      <point x="337" y="397"/>
      <point x="356" y="378"/>
    </contour>
  </outline>
</glyph>
<glyph name="u1063C" format="2">
  <advance width="753"/>
  <unicode hex="1063C"/>
  <outline>
    <contour>
      <point x="377" y="-15" type="curve" smooth="yes"/>
      <point x="529" y="-15"/>
      <point x="657" y="83"/>
      <point x="703" y="220" type="curve"/>
      <point x="639" y="244" type="line"/>
      <point x="602" y="133"/>
      <point x="499" y="50"/>
      <point x="377" y="50" type="curve" smooth="yes"/>
      <point x="231" y="50"/>
      <point x="157" y="167"/>
      <point x="150" y="363" type="curve"/>
      <point x="167" y="352"/>
      <point x="186" y="346"/>
      <point x="207" y="346" type="curve" smooth="yes"/>
      <point x="263" y="346"/>
      <point x="311" y="393"/>
      <point x="311" y="449" type="curve" smooth="yes"/>
      <point x="311" y="505"/>
      <point x="263" y="552"/>
      <point x="207" y="552" type="curve" smooth="yes"/>
      <point x="188" y="552"/>
      <point x="171" y="547"/>
      <point x="156" y="538" type="curve"/>
      <point x="164" y="626"/>
      <point x="182" y="710"/>
      <point x="219" y="800" type="curve"/>
      <point x="148" y="800" type="line"/>
      <point x="95" y="651"/>
      <point x="80" y="533"/>
      <point x="80" y="390" type="curve" smooth="yes"/>
      <point x="80" y="140"/>
      <point x="185" y="-15"/>
    </contour>
    <contour>
      <point x="207" y="392" type="curve" smooth="yes"/>
      <point x="176" y="392"/>
      <point x="152" y="416"/>
      <point x="152" y="448" type="curve" smooth="yes"/>
      <point x="152" y="480"/>
      <point x="176" y="506"/>
      <point x="207" y="506" type="curve" smooth="yes"/>
      <point x="238" y="506"/>
      <point x="263" y="480"/>
      <point x="263" y="448" type="curve" smooth="yes"/>
      <point x="263" y="416"/>
      <point x="238" y="392"/>
    </contour>
    <contour>
      <point x="527" y="258" type="line"/>
      <point x="550" y="315" type="line"/>
      <point x="365" y="389" type="line"/>
      <point x="342" y="332" type="line"/>
    </contour>
    <contour>
      <point x="363" y="424" type="line"/>
      <point x="563" y="424" type="line"/>
      <point x="563" y="487" type="line"/>
      <point x="363" y="487" type="line"/>
    </contour>
    <contour>
      <point x="365" y="522" type="line"/>
      <point x="550" y="596" type="line"/>
      <point x="527" y="653" type="line"/>
      <point x="342" y="579" type="line"/>
    </contour>
  </outline>
</glyph>
<glyph name="u1063D" format="2">
  <advance width="738"/>
  <unicode hex="1063D"/>
  <outline>
    <contour>
      <point x="533" y="-15" type="curve"/>
      <point x="536" y="48" type="line"/>
      <point x="451" y="48"/>
      <point x="400" y="88"/>
      <point x="400" y="143" type="curve" smooth="yes"/>
      <point x="400" y="229"/>
      <point x="462" y="290"/>
      <point x="529" y="353" type="curve" smooth="yes"/>
      <point x="606" y="425"/>
      <point x="688" y="502"/>
      <point x="688" y="624" type="curve" smooth="yes"/>
      <point x="688" y="723"/>
      <point x="631" y="815"/>
      <point x="485" y="815" type="curve" smooth="yes"/>
      <point x="467" y="815"/>
      <point x="451" y="814"/>
      <point x="436" y="813" type="curve"/>
      <point x="441" y="748" type="line"/>
      <point x="459" y="751"/>
      <point x="475" y="752"/>
      <point x="489" y="752" type="curve" smooth="yes"/>
      <point x="585" y="752"/>
      <point x="618" y="688"/>
      <point x="618" y="624" type="curve" smooth="yes"/>
      <point x="618" y="536"/>
      <point x="563" y="474"/>
      <point x="501" y="415" type="curve" smooth="yes"/>
      <point x="421" y="339"/>
      <point x="330" y="266"/>
      <point x="330" y="143" type="curve" smooth="yes"/>
      <point x="330" y="46"/>
      <point x="405" y="-15"/>
    </contour>
    <contour>
      <point x="253" y="-15" type="curve"/>
      <point x="256" y="48" type="line"/>
      <point x="171" y="48"/>
      <point x="120" y="88"/>
      <point x="120" y="143" type="curve" smooth="yes"/>
      <point x="120" y="228"/>
      <point x="180" y="289"/>
      <point x="247" y="351" type="curve" smooth="yes"/>
      <point x="325" y="424"/>
      <point x="408" y="501"/>
      <point x="408" y="624" type="curve" smooth="yes"/>
      <point x="408" y="723"/>
      <point x="351" y="815"/>
      <point x="205" y="815" type="curve" smooth="yes"/>
      <point x="187" y="815"/>
      <point x="171" y="814"/>
      <point x="156" y="813" type="curve"/>
      <point x="161" y="748" type="line"/>
      <point x="179" y="751"/>
      <point x="195" y="752"/>
      <point x="209" y="752" type="curve" smooth="yes"/>
      <point x="305" y="752"/>
      <point x="338" y="688"/>
      <point x="338" y="624" type="curve" smooth="yes"/>
      <point x="338" y="532"/>
      <point x="278" y="469"/>
      <point x="213" y="408" type="curve" smooth="yes"/>
      <point x="135" y="334"/>
      <point x="50" y="262"/>
      <point x="50" y="143" type="curve" smooth="yes"/>
      <point x="50" y="46"/>
      <point x="125" y="-15"/>
    </contour>
  </outline>
</glyph>
<glyph name="u1063E" format="2">
  <advance width="855"/>
  <unicode hex="1063E"/>
  <outline>
    <contour>
      <point x="393" y="100" type="line"/>
      <point x="463" y="100" type="line"/>
      <point x="463" y="729" type="line"/>
      <point x="393" y="729" type="line"/>
    </contour>
    <contour>
      <point x="428" y="51" type="curve" smooth="yes"/>
      <point x="631" y="51"/>
      <point x="795" y="215"/>
      <point x="795" y="418" type="curve" smooth="yes"/>
      <point x="795" y="621"/>
      <point x="631" y="785"/>
      <point x="428" y="785" type="curve" smooth="yes"/>
      <point x="224" y="785"/>
      <point x="60" y="621"/>
      <point x="60" y="418" type="curve" smooth="yes"/>
      <point x="60" y="215"/>
      <point x="224" y="51"/>
    </contour>
    <contour>
      <point x="428" y="116" type="curve" smooth="yes"/>
      <point x="263" y="116"/>
      <point x="130" y="254"/>
      <point x="130" y="418" type="curve" smooth="yes"/>
      <point x="130" y="582"/>
      <point x="263" y="720"/>
      <point x="428" y="720" type="curve" smooth="yes"/>
      <point x="592" y="720"/>
      <point x="725" y="582"/>
      <point x="725" y="418" type="curve" smooth="yes"/>
      <point x="725" y="254"/>
      <point x="592" y="116"/>
    </contour>
    <contour>
      <point x="111" y="391" type="line"/>
      <point x="441" y="391" type="line"/>
      <point x="441" y="454" type="line"/>
      <point x="111" y="454" type="line"/>
    </contour>
    <contour>
      <point x="421" y="391" type="line"/>
      <point x="751" y="391" type="line"/>
      <point x="751" y="454" type="line"/>
      <point x="421" y="454" type="line"/>
    </contour>
  </outline>
</glyph>
<glyph name="u1063F" format="2">
  <advance width="855"/>
  <unicode hex="1063F"/>
  <outline>
    <contour>
      <point x="428" y="51" type="curve" smooth="yes"/>
      <point x="631" y="51"/>
      <point x="795" y="215"/>
      <point x="795" y="418" type="curve" smooth="yes"/>
      <point x="795" y="621"/>
      <point x="631" y="785"/>
      <point x="428" y="785" type="curve" smooth="yes"/>
      <point x="224" y="785"/>
      <point x="60" y="621"/>
      <point x="60" y="418" type="curve" smooth="yes"/>
      <point x="60" y="215"/>
      <point x="224" y="51"/>
    </contour>
    <contour>
      <point x="433" y="227" type="curve" smooth="yes"/>
      <point x="457" y="227"/>
      <point x="476" y="246"/>
      <point x="476" y="270" type="curve" smooth="yes"/>
      <point x="476" y="294"/>
      <point x="457" y="313"/>
      <point x="433" y="313" type="curve" smooth="yes"/>
      <point x="409" y="313"/>
      <point x="390" y="294"/>
      <point x="390" y="270" type="curve" smooth="yes"/>
      <point x="390" y="246"/>
      <point x="409" y="227"/>
    </contour>
    <contour>
      <point x="284" y="455" type="curve" smooth="yes"/>
      <point x="308" y="455"/>
      <point x="327" y="474"/>
      <point x="327" y="498" type="curve" smooth="yes"/>
      <point x="327" y="522"/>
      <point x="308" y="541"/>
      <point x="284" y="541" type="curve" smooth="yes"/>
      <point x="260" y="541"/>
      <point x="241" y="522"/>
      <point x="241" y="498" type="curve" smooth="yes"/>
      <point x="241" y="474"/>
      <point x="260" y="455"/>
    </contour>
    <contour>
      <point x="428" y="116" type="curve" smooth="yes"/>
      <point x="263" y="116"/>
      <point x="130" y="254"/>
      <point x="130" y="418" type="curve" smooth="yes"/>
      <point x="130" y="582"/>
      <point x="263" y="720"/>
      <point x="428" y="720" type="curve" smooth="yes"/>
      <point x="592" y="720"/>
      <point x="725" y="582"/>
      <point x="725" y="418" type="curve" smooth="yes"/>
      <point x="725" y="254"/>
      <point x="592" y="116"/>
    </contour>
    <contour>
      <point x="571" y="455" type="curve" smooth="yes"/>
      <point x="595" y="455"/>
      <point x="614" y="474"/>
      <point x="614" y="498" type="curve" smooth="yes"/>
      <point x="614" y="522"/>
      <point x="595" y="541"/>
      <point x="571" y="541" type="curve" smooth="yes"/>
      <point x="547" y="541"/>
      <point x="528" y="522"/>
      <point x="528" y="498" type="curve" smooth="yes"/>
      <point x="528" y="474"/>
      <point x="547" y="455"/>
    </contour>
  </outline>
</glyph>
<glyph name="u10640" format="2">
  <advance width="889"/>
  <unicode hex="10640"/>
  <outline>
    <contour>
      <point x="444" y="-15" type="curve"/>
      <point x="542" y="-15"/>
      <point x="616" y="173"/>
      <point x="649" y="351" type="curve"/>
      <point x="839" y="415" type="line"/>
      <point x="820" y="470" type="line"/>
      <point x="659" y="416" type="line"/>
      <point x="665" y="477" type="line"/>
      <point x="839" y="535" type="line"/>
      <point x="820" y="590" type="line"/>
      <point x="667" y="538" type="line"/>
      <point x="667" y="559"/>
      <point x="666" y="578"/>
      <point x="664" y="597" type="curve"/>
      <point x="839" y="655" type="line"/>
      <point x="820" y="710" type="line"/>
      <point x="655" y="654" type="line"/>
      <point x="632" y="760"/>
      <point x="570" y="815"/>
      <point x="448" y="815" type="curve" smooth="yes"/>
      <point x="321" y="815"/>
      <point x="258" y="761"/>
      <point x="234" y="654" type="curve"/>
      <point x="69" y="710" type="line"/>
      <point x="50" y="655" type="line"/>
      <point x="225" y="596" type="line"/>
      <point x="223" y="578"/>
      <point x="222" y="559"/>
      <point x="222" y="538" type="curve"/>
      <point x="69" y="590" type="line"/>
      <point x="50" y="535" type="line"/>
      <point x="223" y="477" type="line"/>
      <point x="229" y="416" type="line"/>
      <point x="69" y="470" type="line"/>
      <point x="50" y="415" type="line"/>
      <point x="240" y="351" type="line"/>
      <point x="272" y="176"/>
      <point x="346" y="-10"/>
    </contour>
    <contour>
      <point x="444" y="55" type="curve" smooth="yes"/>
      <point x="361" y="55"/>
      <point x="286" y="363"/>
      <point x="286" y="537" type="curve" smooth="yes"/>
      <point x="286" y="664"/>
      <point x="314" y="758"/>
      <point x="448" y="758" type="curve" smooth="yes"/>
      <point x="575" y="758"/>
      <point x="603" y="662"/>
      <point x="603" y="537" type="curve" smooth="yes"/>
      <point x="603" y="363"/>
      <point x="527" y="55"/>
    </contour>
    <contour>
      <point x="409" y="331" type="line"/>
      <point x="479" y="331" type="line"/>
      <point x="479" y="661" type="line"/>
      <point x="409" y="661" type="line"/>
    </contour>
  </outline>
</glyph>
<glyph name="u10641" format="2">
  <advance width="811"/>
  <unicode hex="10641"/>
  <outline>
    <contour>
      <point x="70" y="0" type="line"/>
      <point x="741" y="0" type="line"/>
      <point x="741" y="60" type="line"/>
      <point x="589" y="346" type="line"/>
      <point x="781" y="507" type="line"/>
      <point x="738" y="554" type="line"/>
      <point x="558" y="405" type="line"/>
      <point x="440" y="628" type="line"/>
      <point x="371" y="628" type="line"/>
      <point x="253" y="404" type="line"/>
      <point x="73" y="554" type="line"/>
      <point x="30" y="507" type="line"/>
      <point x="222" y="346" type="line"/>
      <point x="70" y="60" type="line"/>
    </contour>
    <contour>
      <point x="148" y="63" type="line"/>
      <point x="405" y="551" type="line"/>
      <point x="663" y="63" type="line"/>
    </contour>
  </outline>
</glyph>
<glyph name="u10642" format="2">
  <advance width="393"/>
  <unicode hex="10642"/>
  <outline>
    <contour>
      <point x="80" y="-15" type="line"/>
      <point x="363" y="142" type="line"/>
      <point x="363" y="202" type="line"/>
      <point x="234" y="443" type="line"/>
      <point x="329" y="536" type="line"/>
      <point x="329" y="573" type="line"/>
      <point x="82" y="815" type="line"/>
      <point x="30" y="769" type="line"/>
      <point x="254" y="554" type="line"/>
      <point x="30" y="340" type="line"/>
      <point x="82" y="294" type="line"/>
      <point x="187" y="397" type="line"/>
      <point x="300" y="186" type="line"/>
      <point x="48" y="39" type="line"/>
    </contour>
  </outline>
</glyph>
<glyph name="u10643" format="2">
  <advance width="619"/>
  <unicode hex="10643"/>
  <outline>
    <contour>
      <point x="158" y="10" type="line"/>
      <point x="255" y="13"/>
      <point x="340" y="90"/>
      <point x="340" y="202" type="curve" smooth="yes"/>
      <point x="340" y="274"/>
      <point x="301" y="340"/>
      <point x="234" y="372" type="curve"/>
      <point x="200" y="318" type="line"/>
      <point x="245" y="297"/>
      <point x="276" y="250"/>
      <point x="276" y="199" type="curve" smooth="yes"/>
      <point x="276" y="123"/>
      <point x="214" y="69"/>
      <point x="148" y="68" type="curve"/>
    </contour>
    <contour>
      <point x="60" y="198" type="line"/>
      <point x="130" y="198" type="line"/>
      <point x="130" y="563" type="line"/>
      <point x="60" y="563" type="line"/>
    </contour>
    <contour>
      <point x="533" y="-20" type="line"/>
      <point x="556" y="42" type="line"/>
      <point x="381" y="111" type="line"/>
      <point x="358" y="54" type="line"/>
    </contour>
    <contour>
      <point x="379" y="146" type="line"/>
      <point x="569" y="146" type="line"/>
      <point x="569" y="209" type="line"/>
      <point x="379" y="209" type="line"/>
    </contour>
    <contour>
      <point x="381" y="244" type="line"/>
      <point x="556" y="313" type="line"/>
      <point x="533" y="375" type="line"/>
      <point x="358" y="301" type="line"/>
    </contour>
    <contour>
      <point x="201" y="434" type="line"/>
      <point x="280" y="457"/>
      <point x="337" y="528"/>
      <point x="337" y="614" type="curve" smooth="yes"/>
      <point x="337" y="707"/>
      <point x="269" y="782"/>
      <point x="180" y="799" type="curve"/>
      <point x="166" y="743" type="line"/>
      <point x="226" y="732"/>
      <point x="273" y="678"/>
      <point x="273" y="614" type="curve" smooth="yes"/>
      <point x="273" y="554"/>
      <point x="232" y="503"/>
      <point x="177" y="488" type="curve"/>
    </contour>
    <contour>
      <point x="533" y="420" type="line"/>
      <point x="556" y="482" type="line"/>
      <point x="381" y="551" type="line"/>
      <point x="358" y="494" type="line"/>
    </contour>
    <contour>
      <point x="379" y="586" type="line"/>
      <point x="569" y="586" type="line"/>
      <point x="569" y="649" type="line"/>
      <point x="379" y="649" type="line"/>
    </contour>
    <contour>
      <point x="381" y="684" type="line"/>
      <point x="556" y="753" type="line"/>
      <point x="533" y="815" type="line"/>
      <point x="358" y="741" type="line"/>
    </contour>
  </outline>
</glyph>
<glyph name="u10644" format="2">
  <advance width="706"/>
  <unicode hex="10644"/>
  <outline>
    <contour>
      <point x="80" y="208" type="line"/>
      <point x="463" y="208" type="line" smooth="yes"/>
      <point x="526" y="208"/>
      <point x="597" y="212"/>
      <point x="626" y="276" type="curve" smooth="yes"/>
      <point x="638" y="302"/>
      <point x="656" y="358"/>
      <point x="656" y="405" type="curve" smooth="yes"/>
      <point x="656" y="458"/>
      <point x="632" y="489"/>
      <point x="578" y="489" type="curve" smooth="yes"/>
      <point x="562" y="489"/>
      <point x="547" y="487"/>
      <point x="531" y="487" type="curve" smooth="yes"/>
      <point x="449" y="487"/>
      <point x="375" y="546"/>
      <point x="296" y="576" type="curve"/>
      <point x="300" y="598"/>
      <point x="301" y="620"/>
      <point x="301" y="640" type="curve" smooth="yes"/>
      <point x="301" y="716"/>
      <point x="269" y="757"/>
      <point x="208" y="757" type="curve" smooth="yes"/>
      <point x="130" y="757"/>
      <point x="80" y="698"/>
      <point x="80" y="585" type="curve" smooth="yes"/>
    </contour>
    <contour>
      <point x="259" y="394" type="curve" smooth="yes"/>
      <point x="283" y="394"/>
      <point x="302" y="413"/>
      <point x="302" y="437" type="curve" smooth="yes"/>
      <point x="302" y="461"/>
      <point x="283" y="480"/>
      <point x="259" y="480" type="curve" smooth="yes"/>
      <point x="235" y="480"/>
      <point x="216" y="461"/>
      <point x="216" y="437" type="curve" smooth="yes"/>
      <point x="216" y="413"/>
      <point x="235" y="394"/>
    </contour>
    <contour>
      <point x="150" y="271" type="line"/>
      <point x="150" y="585" type="line" smooth="yes"/>
      <point x="150" y="651"/>
      <point x="155" y="691"/>
      <point x="203" y="691" type="curve" smooth="yes"/>
      <point x="231" y="691"/>
      <point x="232" y="666"/>
      <point x="232" y="641" type="curve" smooth="yes"/>
      <point x="232" y="624"/>
      <point x="228" y="592"/>
      <point x="223" y="566" type="curve" smooth="yes"/>
      <point x="222" y="561"/>
      <point x="221" y="557"/>
      <point x="221" y="553" type="curve" smooth="yes"/>
      <point x="221" y="544"/>
      <point x="225" y="535"/>
      <point x="232" y="532" type="curve" smooth="yes"/>
      <point x="287" y="512"/>
      <point x="324" y="482"/>
      <point x="389" y="457" type="curve" smooth="yes"/>
      <point x="430" y="441"/>
      <point x="478" y="420"/>
      <point x="522" y="420" type="curve" smooth="yes"/>
      <point x="539" y="420"/>
      <point x="557" y="422"/>
      <point x="573" y="422" type="curve" smooth="yes"/>
      <point x="585" y="422"/>
      <point x="586" y="419"/>
      <point x="586" y="414" type="curve" smooth="yes"/>
      <point x="586" y="394"/>
      <point x="573" y="317"/>
      <point x="562" y="304" type="curve" smooth="yes"/>
      <point x="545" y="284"/>
      <point x="510" y="271"/>
      <point x="447" y="271" type="curve" smooth="yes"/>
    </contour>
  </outline>
</glyph>
<glyph name="u10645" format="2">
  <advance width="930"/>
  <unicode hex="10645"/>
  <outline>
    <contour>
      <point x="488" y="112" type="curve" smooth="yes"/>
      <point x="624" y="112"/>
      <point x="803" y="160"/>
      <point x="880" y="256" type="curve"/>
      <point x="880" y="432" type="line"/>
      <point x="486" y="432" type="line" smooth="yes"/>
      <point x="417" y="432"/>
      <point x="358" y="422"/>
      <point x="305" y="403" type="curve"/>
      <point x="409" y="521" type="line"/>
      <point x="360" y="565" type="line"/>
      <point x="165" y="341" type="line"/>
      <point x="135" y="378"/>
      <point x="108" y="423"/>
      <point x="83" y="475" type="curve"/>
      <point x="20" y="439" type="line"/>
      <point x="141" y="218"/>
      <point x="287" y="112"/>
    </contour>
    <contour>
      <point x="488" y="177" type="curve" smooth="yes"/>
      <point x="387" y="177"/>
      <point x="295" y="211"/>
      <point x="215" y="286" type="curve"/>
      <point x="291" y="342"/>
      <point x="386" y="369"/>
      <point x="490" y="369" type="curve" smooth="yes"/>
      <point x="600" y="369" type="line"/>
      <point x="600" y="187" type="line"/>
      <point x="560" y="180"/>
      <point x="522" y="177"/>
    </contour>
    <contour>
      <point x="670" y="204" type="curve"/>
      <point x="670" y="369" type="line"/>
      <point x="810" y="369" type="line"/>
      <point x="810" y="276" type="line"/>
      <point x="776" y="244"/>
      <point x="725" y="220"/>
    </contour>
  </outline>
</glyph>
<glyph name="u10646" format="2">
  <advance width="481"/>
  <unicode hex="10646"/>
  <outline>
    <contour>
      <point x="100" y="0" type="line"/>
      <point x="170" y="0" type="line"/>
      <point x="170" y="751" type="line"/>
      <point x="181" y="751"/>
      <point x="192" y="752"/>
      <point x="200" y="752" type="curve" smooth="yes"/>
      <point x="296" y="752"/>
      <point x="329" y="697"/>
      <point x="329" y="656" type="curve" smooth="yes"/>
      <point x="329" y="593"/>
      <point x="301" y="568"/>
      <point x="266" y="548" type="curve"/>
      <point x="265" y="520" type="line"/>
      <point x="314" y="495"/>
      <point x="351" y="464"/>
      <point x="351" y="415" type="curve" smooth="yes"/>
      <point x="351" y="315"/>
      <point x="255" y="245"/>
      <point x="255" y="138" type="curve" smooth="yes"/>
      <point x="255" y="91"/>
      <point x="271" y="44"/>
      <point x="301" y="8" type="curve"/>
      <point x="359" y="49" type="line"/>
      <point x="336" y="76"/>
      <point x="325" y="110"/>
      <point x="325" y="138" type="curve" smooth="yes"/>
      <point x="325" y="246"/>
      <point x="421" y="297"/>
      <point x="421" y="415" type="curve" smooth="yes"/>
      <point x="421" y="473"/>
      <point x="392" y="511"/>
      <point x="351" y="540" type="curve"/>
      <point x="374" y="560"/>
      <point x="399" y="598"/>
      <point x="399" y="653" type="curve" smooth="yes"/>
      <point x="399" y="732"/>
      <point x="342" y="815"/>
      <point x="196" y="815" type="curve" smooth="yes"/>
      <point x="178" y="815"/>
      <point x="137" y="811"/>
      <point x="100" y="804" type="curve"/>
    </contour>
  </outline>
</glyph>
<glyph name="u10647" format="2">
  <advance width="676"/>
  <unicode hex="10647"/>
  <outline>
    <contour>
      <point x="81" y="0" type="line"/>
      <point x="239" y="0" type="line"/>
      <point x="239" y="63" type="line"/>
      <point x="149" y="63" type="line"/>
      <point x="193" y="187" type="line"/>
      <point x="456" y="187" type="line"/>
      <point x="535" y="0" type="line"/>
      <point x="666" y="0" type="line"/>
      <point x="666" y="63" type="line"/>
      <point x="580" y="63" type="line"/>
      <point x="355" y="586" type="line"/>
      <point x="355" y="800" type="line"/>
      <point x="285" y="800" type="line"/>
      <point x="285" y="602" type="line"/>
      <point x="125" y="727" type="line"/>
      <point x="60" y="727" type="line"/>
      <point x="60" y="397" type="line"/>
      <point x="125" y="397" type="line"/>
      <point x="230" y="479" type="line"/>
      <point x="81" y="60" type="line"/>
    </contour>
    <contour>
      <point x="214" y="246" type="line"/>
      <point x="239" y="317" type="line"/>
      <point x="401" y="317" type="line"/>
      <point x="431" y="246" type="line"/>
    </contour>
    <contour>
      <point x="122" y="476" type="line"/>
      <point x="122" y="647" type="line"/>
      <point x="240" y="562" type="line"/>
    </contour>
    <contour>
      <point x="260" y="376" type="line"/>
      <point x="312" y="525" type="line"/>
      <point x="376" y="376" type="line"/>
    </contour>
  </outline>
</glyph>
<glyph name="u10648" format="2">
  <advance width="954"/>
  <unicode hex="10648"/>
  <outline>
    <contour>
      <point x="500" y="0" type="line"/>
      <point x="904" y="0" type="line"/>
      <point x="904" y="60" type="line"/>
      <point x="741" y="590" type="line"/>
      <point x="663" y="590" type="line"/>
      <point x="500" y="60" type="line"/>
    </contour>
    <contour>
      <point x="118" y="63" type="line"/>
      <point x="252" y="507" type="line"/>
      <point x="386" y="63" type="line"/>
    </contour>
    <contour>
      <point x="50" y="0" type="line"/>
      <point x="454" y="0" type="line"/>
      <point x="454" y="60" type="line"/>
      <point x="291" y="590" type="line"/>
      <point x="213" y="590" type="line"/>
      <point x="50" y="60" type="line"/>
    </contour>
    <contour>
      <point x="568" y="63" type="line"/>
      <point x="702" y="507" type="line"/>
      <point x="836" y="63" type="line"/>
    </contour>
    <contour>
      <point x="442" y="500" type="line"/>
      <point x="512" y="500" type="line"/>
      <point x="512" y="607" type="line"/>
      <point x="840" y="607" type="line"/>
      <point x="840" y="670" type="line"/>
      <point x="512" y="670" type="line"/>
      <point x="512" y="800" type="line"/>
      <point x="442" y="800" type="line"/>
      <point x="442" y="670" type="line"/>
      <point x="114" y="670" type="line"/>
      <point x="114" y="607" type="line"/>
      <point x="442" y="607" type="line"/>
    </contour>
  </outline>
</glyph>
<glyph name="u1064A" format="2">
  <advance width="554"/>
  <unicode hex="1064A"/>
  <outline>
    <contour>
      <point x="242" y="0" type="line"/>
      <point x="312" y="0" type="line"/>
      <point x="312" y="326" type="line"/>
      <point x="394" y="340"/>
      <point x="452" y="404"/>
      <point x="452" y="483" type="curve" smooth="yes"/>
      <point x="452" y="514"/>
      <point x="450" y="542"/>
      <point x="437" y="567" type="curve"/>
      <point x="504" y="567" type="line"/>
      <point x="504" y="630" type="line"/>
      <point x="50" y="630" type="line"/>
      <point x="50" y="567" type="line"/>
      <point x="118" y="567" type="line"/>
      <point x="106" y="542"/>
      <point x="102" y="514"/>
      <point x="102" y="483" type="curve" smooth="yes"/>
      <point x="102" y="404"/>
      <point x="159" y="340"/>
      <point x="242" y="326" type="curve"/>
    </contour>
    <contour>
      <point x="242" y="389" type="line"/>
      <point x="202" y="401"/>
      <point x="170" y="433"/>
      <point x="170" y="484" type="curve" smooth="yes"/>
      <point x="170" y="518"/>
      <point x="172" y="546"/>
      <point x="185" y="567" type="curve"/>
      <point x="242" y="567" type="line"/>
    </contour>
    <contour>
      <point x="312" y="390" type="curve"/>
      <point x="312" y="567" type="line"/>
      <point x="372" y="567" type="line"/>
      <point x="381" y="543"/>
      <point x="384" y="513"/>
      <point x="384" y="484" type="curve" smooth="yes"/>
      <point x="384" y="433"/>
      <point x="351" y="401"/>
    </contour>
    <contour>
      <point x="50" y="737" type="line"/>
      <point x="504" y="737" type="line"/>
      <point x="504" y="800" type="line"/>
      <point x="50" y="800" type="line"/>
    </contour>
  </outline>
</glyph>
<glyph name="u1064B" format="2">
  <advance width="659"/>
  <unicode hex="1064B"/>
  <outline>
    <contour>
      <point x="295" y="0" type="line"/>
      <point x="365" y="0" type="line"/>
      <point x="365" y="605" type="line"/>
      <point x="295" y="605" type="line"/>
    </contour>
    <contour>
      <point x="244" y="409" type="line"/>
      <point x="287" y="453" type="line"/>
      <point x="166" y="586" type="line"/>
      <point x="120" y="548" type="line"/>
    </contour>
    <contour>
      <point x="109" y="587" type="curve" smooth="yes"/>
      <point x="157" y="587"/>
      <point x="199" y="627"/>
      <point x="199" y="676" type="curve" smooth="yes"/>
      <point x="199" y="724"/>
      <point x="157" y="765"/>
      <point x="109" y="765" type="curve" smooth="yes"/>
      <point x="60" y="765"/>
      <point x="20" y="724"/>
      <point x="20" y="676" type="curve" smooth="yes"/>
      <point x="20" y="627"/>
      <point x="60" y="587"/>
    </contour>
    <contour>
      <point x="109" y="630" type="curve" smooth="yes"/>
      <point x="84" y="630"/>
      <point x="64" y="649"/>
      <point x="64" y="675" type="curve" smooth="yes"/>
      <point x="64" y="701"/>
      <point x="84" y="722"/>
      <point x="109" y="722" type="curve" smooth="yes"/>
      <point x="135" y="722"/>
      <point x="155" y="701"/>
      <point x="155" y="675" type="curve" smooth="yes"/>
      <point x="155" y="649"/>
      <point x="135" y="630"/>
    </contour>
    <contour>
      <point x="416" y="409" type="line"/>
      <point x="540" y="548" type="line"/>
      <point x="494" y="586" type="line"/>
      <point x="373" y="453" type="line"/>
    </contour>
    <contour>
      <point x="329" y="637" type="curve" smooth="yes"/>
      <point x="377" y="637"/>
      <point x="419" y="677"/>
      <point x="419" y="726" type="curve" smooth="yes"/>
      <point x="419" y="774"/>
      <point x="377" y="815"/>
      <point x="329" y="815" type="curve" smooth="yes"/>
      <point x="280" y="815"/>
      <point x="240" y="774"/>
      <point x="240" y="726" type="curve" smooth="yes"/>
      <point x="240" y="677"/>
      <point x="280" y="637"/>
    </contour>
    <contour>
      <point x="329" y="680" type="curve" smooth="yes"/>
      <point x="304" y="680"/>
      <point x="284" y="699"/>
      <point x="284" y="725" type="curve" smooth="yes"/>
      <point x="284" y="751"/>
      <point x="304" y="772"/>
      <point x="329" y="772" type="curve" smooth="yes"/>
      <point x="355" y="772"/>
      <point x="375" y="751"/>
      <point x="375" y="725" type="curve" smooth="yes"/>
      <point x="375" y="699"/>
      <point x="355" y="680"/>
    </contour>
    <contour>
      <point x="549" y="587" type="curve" smooth="yes"/>
      <point x="597" y="587"/>
      <point x="639" y="627"/>
      <point x="639" y="676" type="curve" smooth="yes"/>
      <point x="639" y="724"/>
      <point x="597" y="765"/>
      <point x="549" y="765" type="curve" smooth="yes"/>
      <point x="500" y="765"/>
      <point x="460" y="724"/>
      <point x="460" y="676" type="curve" smooth="yes"/>
      <point x="460" y="627"/>
      <point x="500" y="587"/>
    </contour>
    <contour>
      <point x="549" y="630" type="curve" smooth="yes"/>
      <point x="524" y="630"/>
      <point x="504" y="649"/>
      <point x="504" y="675" type="curve" smooth="yes"/>
      <point x="504" y="701"/>
      <point x="524" y="722"/>
      <point x="549" y="722" type="curve" smooth="yes"/>
      <point x="575" y="722"/>
      <point x="595" y="701"/>
      <point x="595" y="675" type="curve" smooth="yes"/>
      <point x="595" y="649"/>
      <point x="575" y="630"/>
    </contour>
  </outline>
</glyph>
<glyph name="u1064C" format="2">
  <advance width="700"/>
  <unicode hex="1064C"/>
  <outline>
    <contour>
      <point x="180" y="0" type="line"/>
      <point x="620" y="0" type="line"/>
      <point x="620" y="557" type="line"/>
      <point x="440" y="815" type="line"/>
      <point x="360" y="815" type="line"/>
      <point x="180" y="557" type="line"/>
      <point x="180" y="405" type="line"/>
      <point x="163" y="416"/>
      <point x="144" y="423"/>
      <point x="123" y="423" type="curve" smooth="yes"/>
      <point x="67" y="423"/>
      <point x="20" y="376"/>
      <point x="20" y="320" type="curve" smooth="yes"/>
      <point x="20" y="264"/>
      <point x="67" y="217"/>
      <point x="123" y="217" type="curve" smooth="yes"/>
      <point x="144" y="217"/>
      <point x="163" y="223"/>
      <point x="180" y="234" type="curve"/>
    </contour>
    <contour>
      <point x="123" y="263" type="curve" smooth="yes"/>
      <point x="92" y="263"/>
      <point x="68" y="287"/>
      <point x="68" y="319" type="curve" smooth="yes"/>
      <point x="68" y="351"/>
      <point x="92" y="377"/>
      <point x="123" y="377" type="curve" smooth="yes"/>
      <point x="154" y="377"/>
      <point x="179" y="351"/>
      <point x="179" y="319" type="curve" smooth="yes"/>
      <point x="179" y="287"/>
      <point x="154" y="263"/>
    </contour>
    <contour>
      <point x="250" y="63" type="line"/>
      <point x="250" y="160" type="line"/>
      <point x="550" y="160" type="line"/>
      <point x="550" y="63" type="line"/>
    </contour>
    <contour>
      <point x="250" y="223" type="line"/>
      <point x="250" y="497" type="line"/>
      <point x="550" y="497" type="line"/>
      <point x="550" y="223" type="line"/>
    </contour>
    <contour>
      <point x="259" y="560" type="line"/>
      <point x="400" y="765" type="line"/>
      <point x="541" y="560" type="line"/>
    </contour>
  </outline>
</glyph>
<glyph name="u1064D" format="2">
  <advance width="790"/>
  <unicode hex="1064D"/>
  <outline>
    <contour>
      <point x="100" y="0" type="line"/>
      <point x="170" y="0" type="line"/>
      <point x="170" y="457" type="line"/>
      <point x="360" y="457" type="line"/>
      <point x="360" y="0" type="line"/>
      <point x="430" y="0" type="line"/>
      <point x="430" y="457" type="line"/>
      <point x="620" y="457" type="line"/>
      <point x="620" y="0" type="line"/>
      <point x="690" y="0" type="line"/>
      <point x="690" y="520" type="line"/>
      <point x="170" y="520" type="line"/>
      <point x="170" y="737" type="line"/>
      <point x="690" y="737" type="line"/>
      <point x="690" y="800" type="line"/>
      <point x="100" y="800" type="line"/>
    </contour>
    <contour>
      <point x="225" y="63" type="line"/>
      <point x="348" y="186" type="line"/>
      <point x="303" y="231" type="line"/>
      <point x="179" y="109" type="line"/>
    </contour>
    <contour>
      <point x="485" y="113" type="line"/>
      <point x="608" y="236" type="line"/>
      <point x="563" y="281" type="line"/>
      <point x="439" y="159" type="line"/>
    </contour>
  </outline>
</glyph>
<glyph name="u1064E" format="2">
  <advance width="790"/>
  <unicode hex="1064E"/>
  <outline>
    <contour>
      <point x="100" y="0" type="line"/>
      <point x="170" y="0" type="line"/>
      <point x="170" y="457" type="line"/>
      <point x="620" y="457" type="line"/>
      <point x="620" y="0" type="line"/>
      <point x="690" y="0" type="line"/>
      <point x="690" y="520" type="line"/>
      <point x="170" y="520" type="line"/>
      <point x="170" y="737" type="line"/>
      <point x="690" y="737" type="line"/>
      <point x="690" y="800" type="line"/>
      <point x="100" y="800" type="line"/>
    </contour>
  </outline>
</glyph>
<glyph name="u1064F" format="2">
  <advance width="930"/>
  <unicode hex="1064F"/>
  <outline>
    <contour>
      <point x="100" y="0" type="line"/>
      <point x="170" y="0" type="line"/>
      <point x="170" y="457" type="line"/>
      <point x="360" y="457" type="line"/>
      <point x="360" y="0" type="line"/>
      <point x="430" y="0" type="line"/>
      <point x="430" y="457" type="line"/>
      <point x="620" y="457" type="line"/>
      <point x="620" y="0" type="line"/>
      <point x="690" y="0" type="line"/>
      <point x="690" y="457" type="line"/>
      <point x="760" y="457" type="line"/>
      <point x="760" y="0" type="line"/>
      <point x="830" y="0" type="line"/>
      <point x="830" y="520" type="line"/>
      <point x="170" y="520" type="line"/>
      <point x="170" y="737" type="line"/>
      <point x="740" y="737" type="line"/>
      <point x="740" y="800" type="line"/>
      <point x="501" y="800" type="line"/>
      <point x="617" y="918" type="line"/>
      <point x="565" y="959" type="line"/>
      <point x="432" y="823" type="line"/>
      <point x="299" y="959" type="line"/>
      <point x="247" y="918" type="line"/>
      <point x="362" y="800" type="line"/>
      <point x="100" y="800" type="line"/>
    </contour>
  </outline>
</glyph>
<glyph name="u10650" format="2">
  <advance width="790"/>
  <unicode hex="10650"/>
  <outline>
    <contour>
      <point x="100" y="0" type="line"/>
      <point x="690" y="0" type="line"/>
      <point x="690" y="800" type="line"/>
      <point x="100" y="800" type="line"/>
    </contour>
    <contour>
      <point x="170" y="310" type="curve"/>
      <point x="170" y="508" type="line"/>
      <point x="222" y="507"/>
      <point x="265" y="462"/>
      <point x="265" y="409" type="curve" smooth="yes"/>
      <point x="265" y="354"/>
      <point x="222" y="311"/>
    </contour>
    <contour>
      <point x="170" y="63" type="line"/>
      <point x="170" y="248" type="line"/>
      <point x="260" y="249"/>
      <point x="333" y="318"/>
      <point x="333" y="408" type="curve" smooth="yes"/>
      <point x="333" y="498"/>
      <point x="260" y="569"/>
      <point x="170" y="570" type="curve"/>
      <point x="170" y="737" type="line"/>
      <point x="620" y="737" type="line"/>
      <point x="620" y="570" type="line"/>
      <point x="530" y="569"/>
      <point x="457" y="498"/>
      <point x="457" y="408" type="curve" smooth="yes"/>
      <point x="457" y="318"/>
      <point x="530" y="249"/>
      <point x="620" y="248" type="curve"/>
      <point x="620" y="63" type="line"/>
    </contour>
    <contour>
      <point x="620" y="310" type="line"/>
      <point x="568" y="311"/>
      <point x="525" y="354"/>
      <point x="525" y="409" type="curve" smooth="yes"/>
      <point x="525" y="462"/>
      <point x="568" y="507"/>
      <point x="620" y="508" type="curve"/>
    </contour>
  </outline>
</glyph>
<glyph name="u10651" format="2">
  <advance width="554"/>
  <unicode hex="10651"/>
  <outline>
    <contour>
      <point x="147" y="224" type="line"/>
      <point x="407" y="224" type="line"/>
      <point x="407" y="287" type="line"/>
      <point x="147" y="287" type="line"/>
    </contour>
    <contour>
      <point x="50" y="0" type="line"/>
      <point x="504" y="0" type="line"/>
      <point x="504" y="63" type="line"/>
      <point x="312" y="63" type="line"/>
      <point x="312" y="737" type="line"/>
      <point x="504" y="737" type="line"/>
      <point x="504" y="800" type="line"/>
      <point x="50" y="800" type="line"/>
      <point x="50" y="737" type="line"/>
      <point x="242" y="737" type="line"/>
      <point x="242" y="63" type="line"/>
      <point x="50" y="63" type="line"/>
    </contour>
    <contour>
      <point x="147" y="534" type="line"/>
      <point x="407" y="534" type="line"/>
      <point x="407" y="597" type="line"/>
      <point x="147" y="597" type="line"/>
    </contour>
  </outline>
</glyph>
<glyph name="u10652" format="2">
  <advance width="705"/>
  <unicode hex="10652"/>
  <outline>
    <contour>
      <point x="100" y="0" type="line"/>
      <point x="170" y="0" type="line"/>
      <point x="655" y="80" type="line"/>
      <point x="652" y="140" type="line"/>
      <point x="586" y="142"/>
      <point x="474" y="184"/>
      <point x="474" y="316" type="curve" smooth="yes"/>
      <point x="474" y="441"/>
      <point x="578" y="477"/>
      <point x="621" y="485" type="curve"/>
      <point x="621" y="532" type="line"/>
      <point x="529" y="656" type="line"/>
      <point x="500" y="626"/>
      <point x="448" y="617"/>
      <point x="425" y="617" type="curve" smooth="yes"/>
      <point x="372" y="617"/>
      <point x="340" y="638"/>
      <point x="340" y="690" type="curve" smooth="yes"/>
      <point x="340" y="800" type="line"/>
      <point x="100" y="800" type="line"/>
    </contour>
    <contour>
      <point x="170" y="62" type="line"/>
      <point x="170" y="737" type="line"/>
      <point x="270" y="737" type="line"/>
      <point x="270" y="695" type="line" smooth="yes"/>
      <point x="270" y="605"/>
      <point x="334" y="555"/>
      <point x="425" y="555" type="curve" smooth="yes"/>
      <point x="459" y="555"/>
      <point x="488" y="563"/>
      <point x="510" y="574" type="curve"/>
      <point x="547" y="524" type="line"/>
      <point x="447" y="481"/>
      <point x="404" y="387"/>
      <point x="404" y="311" type="curve" smooth="yes"/>
      <point x="404" y="241"/>
      <point x="441" y="165"/>
      <point x="508" y="120" type="curve"/>
    </contour>
  </outline>
</glyph>
<glyph name="u10653" format="2">
  <advance width="941"/>
  <unicode hex="10653"/>
  <outline>
    <contour>
      <point x="100" y="0" type="line"/>
      <point x="659" y="0" type="line"/>
      <point x="911" y="400" type="line"/>
      <point x="911" y="460" type="line"/>
      <point x="530" y="460" type="line"/>
      <point x="530" y="800" type="line"/>
      <point x="100" y="800" type="line"/>
    </contour>
    <contour>
      <point x="170" y="63" type="line"/>
      <point x="170" y="397" type="line"/>
      <point x="460" y="397" type="line"/>
      <point x="460" y="63" type="line"/>
    </contour>
    <contour>
      <point x="530" y="63" type="line"/>
      <point x="530" y="397" type="line"/>
      <point x="832" y="397" type="line"/>
      <point x="617" y="63" type="line"/>
    </contour>
    <contour>
      <point x="170" y="460" type="line"/>
      <point x="170" y="737" type="line"/>
      <point x="460" y="737" type="line"/>
      <point x="460" y="460" type="line"/>
    </contour>
  </outline>
</glyph>
<glyph name="u10654" format="2">
  <advance width="813"/>
  <unicode hex="10654"/>
  <outline>
    <contour>
      <point x="276" y="-15" type="curve" smooth="yes"/>
      <point x="404" y="-15"/>
      <point x="480" y="122"/>
      <point x="484" y="291" type="curve"/>
      <point x="744" y="291" type="line"/>
      <point x="753" y="321"/>
      <point x="753" y="354"/>
      <point x="753" y="367" type="curve" smooth="yes"/>
      <point x="753" y="558"/>
      <point x="598" y="748"/>
      <point x="407" y="748" type="curve" smooth="yes"/>
      <point x="215" y="748"/>
      <point x="60" y="558"/>
      <point x="60" y="367" type="curve" smooth="yes"/>
      <point x="60" y="311" type="line" smooth="yes"/>
      <point x="60" y="132"/>
      <point x="136" y="-15"/>
    </contour>
    <contour>
      <point x="276" y="42" type="curve" smooth="yes"/>
      <point x="179" y="42"/>
      <point x="127" y="170"/>
      <point x="124" y="291" type="curve"/>
      <point x="421" y="291" type="line"/>
      <point x="417" y="171"/>
      <point x="365" y="42"/>
    </contour>
    <contour>
      <point x="130" y="354" type="line"/>
      <point x="130" y="367" type="line" smooth="yes"/>
      <point x="130" y="519"/>
      <point x="254" y="683"/>
      <point x="407" y="683" type="curve" smooth="yes"/>
      <point x="559" y="683"/>
      <point x="683" y="519"/>
      <point x="683" y="367" type="curve"/>
      <point x="683" y="354" type="line"/>
    </contour>
  </outline>
</glyph>
<glyph name="u10655" format="2">
  <advance width="607"/>
  <unicode hex="10655"/>
  <outline>
    <contour>
      <point x="-16" y="-76" type="line"/>
      <point x="437" y="310" type="line"/>
      <point x="437" y="0" type="line"/>
      <point x="507" y="0" type="line"/>
      <point x="507" y="800" type="line"/>
      <point x="418" y="800" type="line" smooth="yes"/>
      <point x="217" y="800"/>
      <point x="161" y="673"/>
      <point x="161" y="585" type="curve" smooth="yes"/>
      <point x="161" y="497"/>
      <point x="216" y="380"/>
      <point x="418" y="380" type="curve" smooth="yes"/>
      <point x="422" y="380" type="line"/>
      <point x="-60" y="-27" type="line"/>
    </contour>
    <contour>
      <point x="407" y="443" type="line" smooth="yes"/>
      <point x="329" y="443"/>
      <point x="231" y="480"/>
      <point x="231" y="585" type="curve" smooth="yes"/>
      <point x="231" y="689"/>
      <point x="329" y="737"/>
      <point x="407" y="737" type="curve" smooth="yes"/>
      <point x="437" y="737" type="line"/>
      <point x="437" y="443" type="line"/>
    </contour>
  </outline>
</glyph>
<glyph name="u10656" format="2">
  <advance width="564"/>
  <unicode hex="10656"/>
  <outline>
    <contour>
      <point x="151" y="-16" type="line"/>
      <point x="534" y="616" type="line"/>
      <point x="237" y="788" type="line"/>
      <point x="198" y="734" type="line"/>
      <point x="439" y="590" type="line"/>
      <point x="384" y="501" type="line"/>
      <point x="176" y="623" type="line"/>
      <point x="137" y="569" type="line"/>
      <point x="349" y="443" type="line"/>
      <point x="292" y="348" type="line"/>
      <point x="89" y="468" type="line"/>
      <point x="50" y="414" type="line"/>
      <point x="257" y="291" type="line"/>
      <point x="90" y="16" type="line"/>
    </contour>
  </outline>
</glyph>
<glyph name="u10657" format="2">
  <advance width="502"/>
  <unicode hex="10657"/>
  <outline>
    <contour>
      <point x="105" y="0" type="line"/>
      <point x="175" y="0" type="line"/>
      <point x="175" y="470" type="line"/>
      <point x="105" y="470" type="line"/>
    </contour>
    <contour>
      <point x="141" y="536" type="curve" smooth="yes"/>
      <point x="176" y="536"/>
      <point x="203" y="563"/>
      <point x="203" y="597" type="curve" smooth="yes"/>
      <point x="203" y="632"/>
      <point x="176" y="659"/>
      <point x="141" y="659" type="curve" smooth="yes"/>
      <point x="107" y="659"/>
      <point x="80" y="632"/>
      <point x="80" y="597" type="curve" smooth="yes"/>
      <point x="80" y="563"/>
      <point x="107" y="536"/>
    </contour>
    <contour>
      <point x="416" y="420" type="line"/>
      <point x="439" y="482" type="line"/>
      <point x="264" y="551" type="line"/>
      <point x="241" y="494" type="line"/>
    </contour>
    <contour>
      <point x="262" y="586" type="line"/>
      <point x="452" y="586" type="line"/>
      <point x="452" y="649" type="line"/>
      <point x="262" y="649" type="line"/>
    </contour>
    <contour>
      <point x="264" y="684" type="line"/>
      <point x="439" y="753" type="line"/>
      <point x="416" y="815" type="line"/>
      <point x="241" y="741" type="line"/>
    </contour>
  </outline>
</glyph>
<glyph name="u10658" format="2">
  <advance width="576"/>
  <unicode hex="10658"/>
  <outline>
    <contour>
      <point x="253" y="0" type="line"/>
      <point x="323" y="0" type="line"/>
      <point x="323" y="712" type="line"/>
      <point x="478" y="532" type="line"/>
      <point x="526" y="575" type="line"/>
      <point x="323" y="810" type="line"/>
      <point x="253" y="810" type="line"/>
      <point x="50" y="575" type="line"/>
      <point x="98" y="532" type="line"/>
      <point x="253" y="712" type="line"/>
    </contour>
  </outline>
</glyph>
<glyph name="u10659" format="2">
  <advance width="518"/>
  <unicode hex="10659"/>
  <outline>
    <contour>
      <point x="398" y="-15" type="line"/>
      <point x="468" y="-15" type="line"/>
      <point x="468" y="143" type="line"/>
      <point x="398" y="143" type="line"/>
      <point x="398" y="94" type="line"/>
      <point x="136" y="227" type="line"/>
      <point x="430" y="365" type="line"/>
      <point x="430" y="435" type="line"/>
      <point x="136" y="572" type="line"/>
      <point x="398" y="705" type="line"/>
      <point x="398" y="657" type="line"/>
      <point x="468" y="657" type="line"/>
      <point x="468" y="815" type="line"/>
      <point x="398" y="815" type="line"/>
      <point x="398" y="779" type="line"/>
      <point x="50" y="595" type="line"/>
      <point x="50" y="538" type="line"/>
      <point x="352" y="400" type="line"/>
      <point x="50" y="262" type="line"/>
      <point x="50" y="205" type="line"/>
      <point x="398" y="21" type="line"/>
    </contour>
  </outline>
</glyph>
<glyph name="u1065A" format="2">
  <advance width="693"/>
  <unicode hex="1065A"/>
  <outline>
    <contour>
      <point x="573" y="0" type="curve"/>
      <point x="643" y="0" type="line"/>
      <point x="643" y="258"/>
      <point x="528" y="465"/>
      <point x="460" y="536" type="curve"/>
      <point x="403" y="508" type="line"/>
      <point x="490" y="399"/>
      <point x="573" y="218"/>
    </contour>
    <contour>
      <point x="153" y="0" type="curve"/>
      <point x="223" y="0" type="line"/>
      <point x="223" y="218"/>
      <point x="306" y="399"/>
      <point x="393" y="508" type="curve"/>
      <point x="336" y="536" type="line"/>
      <point x="268" y="465"/>
      <point x="153" y="258"/>
    </contour>
    <contour>
      <point x="168" y="513" type="curve" smooth="yes"/>
      <point x="237" y="513"/>
      <point x="280" y="547"/>
      <point x="342" y="602" type="curve"/>
      <point x="304" y="648" type="line"/>
      <point x="251" y="608"/>
      <point x="225" y="575"/>
      <point x="172" y="575" type="curve" smooth="yes"/>
      <point x="130" y="575"/>
      <point x="88" y="610"/>
      <point x="88" y="664" type="curve" smooth="yes"/>
      <point x="88" y="711"/>
      <point x="123" y="753"/>
      <point x="172" y="753" type="curve" smooth="yes"/>
      <point x="225" y="753"/>
      <point x="251" y="720"/>
      <point x="304" y="680" type="curve"/>
      <point x="342" y="726" type="line"/>
      <point x="280" y="781"/>
      <point x="237" y="815"/>
      <point x="168" y="815" type="curve" smooth="yes"/>
      <point x="84" y="815"/>
      <point x="20" y="741"/>
      <point x="20" y="665" type="curve" smooth="yes"/>
      <point x="20" y="574"/>
      <point x="94" y="513"/>
    </contour>
    <contour>
      <point x="392" y="634" type="curve" smooth="yes"/>
      <point x="416" y="634"/>
      <point x="435" y="653"/>
      <point x="435" y="677" type="curve" smooth="yes"/>
      <point x="435" y="701"/>
      <point x="416" y="720"/>
      <point x="392" y="720" type="curve" smooth="yes"/>
      <point x="368" y="720"/>
      <point x="349" y="701"/>
      <point x="349" y="677" type="curve" smooth="yes"/>
      <point x="349" y="653"/>
      <point x="368" y="634"/>
    </contour>
    <contour>
      <point x="525" y="533" type="line"/>
      <point x="565" y="579" type="line"/>
      <point x="486" y="639" type="line"/>
      <point x="449" y="592" type="line"/>
    </contour>
    <contour>
      <point x="486" y="689" type="line"/>
      <point x="565" y="749" type="line"/>
      <point x="525" y="795" type="line"/>
      <point x="449" y="736" type="line"/>
    </contour>
  </outline>
</glyph>
<glyph name="u1065B" format="2">
  <advance width="640"/>
  <unicode hex="1065B"/>
  <outline>
    <contour>
      <point x="50" y="0" type="line"/>
      <point x="120" y="0" type="line"/>
      <point x="120" y="63" type="line" smooth="yes"/>
      <point x="120" y="136"/>
      <point x="129" y="209"/>
      <point x="145" y="277" type="curve"/>
      <point x="285" y="277" type="line"/>
      <point x="285" y="0" type="line"/>
      <point x="355" y="0" type="line"/>
      <point x="355" y="277" type="line"/>
      <point x="494" y="277" type="line"/>
      <point x="510" y="209"/>
      <point x="520" y="136"/>
      <point x="520" y="63" type="curve" smooth="yes"/>
      <point x="520" y="0" type="line"/>
      <point x="590" y="0" type="line"/>
      <point x="590" y="60" type="line" smooth="yes"/>
      <point x="590" y="290"/>
      <point x="499" y="503"/>
      <point x="431" y="597" type="curve"/>
      <point x="520" y="597" type="line"/>
      <point x="520" y="660" type="line"/>
      <point x="355" y="660" type="line"/>
      <point x="355" y="800" type="line"/>
      <point x="285" y="800" type="line"/>
      <point x="285" y="660" type="line"/>
      <point x="120" y="660" type="line"/>
      <point x="120" y="597" type="line"/>
      <point x="209" y="597" type="line"/>
      <point x="141" y="503"/>
      <point x="50" y="290"/>
      <point x="50" y="60" type="curve" smooth="yes"/>
    </contour>
    <contour>
      <point x="162" y="340" type="line"/>
      <point x="193" y="442"/>
      <point x="238" y="531"/>
      <point x="285" y="591" type="curve"/>
      <point x="285" y="340" type="line"/>
    </contour>
    <contour>
      <point x="355" y="340" type="line"/>
      <point x="355" y="591" type="line"/>
      <point x="401" y="531"/>
      <point x="447" y="442"/>
      <point x="478" y="340" type="curve"/>
    </contour>
  </outline>
</glyph>
<glyph name="u1065C" format="2">
  <advance width="734"/>
  <unicode hex="1065C"/>
  <outline>
    <contour>
      <point x="599" y="65" type="line"/>
      <point x="654" y="65" type="line"/>
      <point x="654" y="718" type="line"/>
      <point x="599" y="718" type="line"/>
      <point x="50" y="428" type="line"/>
      <point x="50" y="355" type="line"/>
    </contour>
    <contour>
      <point x="584" y="144" type="line"/>
      <point x="164" y="361" type="line"/>
      <point x="584" y="361" type="line"/>
    </contour>
    <contour>
      <point x="168" y="424" type="line"/>
      <point x="584" y="639" type="line"/>
      <point x="584" y="424" type="line"/>
    </contour>
  </outline>
</glyph>
<glyph name="u1065D" format="2">
  <advance width="855"/>
  <unicode hex="1065D"/>
  <outline>
    <contour>
      <point x="428" y="51" type="curve" smooth="yes"/>
      <point x="631" y="51"/>
      <point x="795" y="215"/>
      <point x="795" y="418" type="curve" smooth="yes"/>
      <point x="795" y="621"/>
      <point x="631" y="785"/>
      <point x="428" y="785" type="curve" smooth="yes"/>
      <point x="224" y="785"/>
      <point x="60" y="621"/>
      <point x="60" y="418" type="curve" smooth="yes"/>
      <point x="60" y="215"/>
      <point x="224" y="51"/>
    </contour>
    <contour>
      <point x="428" y="116" type="curve" smooth="yes"/>
      <point x="263" y="116"/>
      <point x="130" y="254"/>
      <point x="130" y="418" type="curve" smooth="yes"/>
      <point x="130" y="582"/>
      <point x="263" y="720"/>
      <point x="428" y="720" type="curve" smooth="yes"/>
      <point x="592" y="720"/>
      <point x="725" y="582"/>
      <point x="725" y="418" type="curve" smooth="yes"/>
      <point x="725" y="254"/>
      <point x="592" y="116"/>
    </contour>
  </outline>
</glyph>
<glyph name="u1065E" format="2">
  <advance width="879"/>
  <unicode hex="1065E"/>
  <outline>
    <contour>
      <point x="109" y="-12" type="line"/>
      <point x="183" y="54"/>
      <point x="280" y="119"/>
      <point x="436" y="119" type="curve" smooth="yes"/>
      <point x="596" y="119"/>
      <point x="695" y="55"/>
      <point x="770" y="-12" type="curve"/>
      <point x="819" y="32" type="line"/>
      <point x="759" y="81"/>
      <point x="693" y="130"/>
      <point x="600" y="158" type="curve"/>
      <point x="723" y="217"/>
      <point x="807" y="342"/>
      <point x="807" y="488" type="curve" smooth="yes"/>
      <point x="807" y="691"/>
      <point x="643" y="855"/>
      <point x="440" y="855" type="curve" smooth="yes"/>
      <point x="236" y="855"/>
      <point x="72" y="691"/>
      <point x="72" y="488" type="curve" smooth="yes"/>
      <point x="72" y="343"/>
      <point x="156" y="218"/>
      <point x="278" y="158" type="curve"/>
      <point x="186" y="131"/>
      <point x="119" y="81"/>
      <point x="60" y="32" type="curve"/>
    </contour>
    <contour>
      <point x="440" y="186" type="curve" smooth="yes"/>
      <point x="275" y="186"/>
      <point x="142" y="324"/>
      <point x="142" y="488" type="curve" smooth="yes"/>
      <point x="142" y="652"/>
      <point x="275" y="790"/>
      <point x="440" y="790" type="curve" smooth="yes"/>
      <point x="604" y="790"/>
      <point x="737" y="652"/>
      <point x="737" y="488" type="curve" smooth="yes"/>
      <point x="737" y="324"/>
      <point x="604" y="186"/>
    </contour>
  </outline>
</glyph>
<glyph name="u1065F" format="2">
  <advance width="855"/>
  <unicode hex="1065F"/>
  <outline>
    <contour>
      <point x="428" y="51" type="curve" smooth="yes"/>
      <point x="631" y="51"/>
      <point x="795" y="215"/>
      <point x="795" y="418" type="curve" smooth="yes"/>
      <point x="795" y="621"/>
      <point x="631" y="785"/>
      <point x="428" y="785" type="curve" smooth="yes"/>
      <point x="224" y="785"/>
      <point x="60" y="621"/>
      <point x="60" y="418" type="curve" smooth="yes"/>
      <point x="60" y="215"/>
      <point x="224" y="51"/>
    </contour>
    <contour>
      <point x="428" y="116" type="curve" smooth="yes"/>
      <point x="263" y="116"/>
      <point x="130" y="254"/>
      <point x="130" y="418" type="curve" smooth="yes"/>
      <point x="130" y="582"/>
      <point x="263" y="720"/>
      <point x="428" y="720" type="curve" smooth="yes"/>
      <point x="592" y="720"/>
      <point x="725" y="582"/>
      <point x="725" y="418" type="curve" smooth="yes"/>
      <point x="725" y="254"/>
      <point x="592" y="116"/>
    </contour>
    <contour>
      <point x="428" y="255" type="curve" smooth="yes"/>
      <point x="519" y="255"/>
      <point x="593" y="325"/>
      <point x="593" y="415" type="curve" smooth="yes"/>
      <point x="593" y="506"/>
      <point x="519" y="577"/>
      <point x="428" y="577" type="curve" smooth="yes"/>
      <point x="337" y="577"/>
      <point x="263" y="506"/>
      <point x="263" y="415" type="curve" smooth="yes"/>
      <point x="263" y="325"/>
      <point x="337" y="255"/>
    </contour>
    <contour>
      <point x="428" y="317" type="curve" smooth="yes"/>
      <point x="373" y="317"/>
      <point x="331" y="361"/>
      <point x="331" y="416" type="curve" smooth="yes"/>
      <point x="331" y="470"/>
      <point x="373" y="515"/>
      <point x="428" y="515" type="curve" smooth="yes"/>
      <point x="481" y="515"/>
      <point x="525" y="470"/>
      <point x="525" y="416" type="curve" smooth="yes"/>
      <point x="525" y="361"/>
      <point x="481" y="317"/>
    </contour>
  </outline>
</glyph>
<glyph name="u10660" format="2">
  <advance width="698"/>
  <unicode hex="10660"/>
  <outline>
    <contour>
      <point x="476" y="-15" type="curve" smooth="yes"/>
      <point x="521" y="-15"/>
      <point x="572" y="-9"/>
      <point x="648" y="18" type="curve"/>
      <point x="589" y="239" type="line"/>
      <point x="557" y="231"/>
      <point x="514" y="229"/>
      <point x="475" y="229" type="curve" smooth="yes"/>
      <point x="370" y="229"/>
      <point x="299" y="308"/>
      <point x="299" y="399" type="curve" smooth="yes"/>
      <point x="299" y="503"/>
      <point x="370" y="571"/>
      <point x="475" y="571" type="curve" smooth="yes"/>
      <point x="514" y="571"/>
      <point x="557" y="569"/>
      <point x="589" y="561" type="curve"/>
      <point x="648" y="782" type="line"/>
      <point x="572" y="809"/>
      <point x="521" y="815"/>
      <point x="476" y="815" type="curve" smooth="yes"/>
      <point x="244" y="815"/>
      <point x="60" y="650"/>
      <point x="60" y="400" type="curve" smooth="yes"/>
      <point x="60" y="133"/>
      <point x="261" y="-15"/>
    </contour>
    <contour>
      <point x="478" y="48" type="curve" smooth="yes"/>
      <point x="377" y="48"/>
      <point x="285" y="88"/>
      <point x="222" y="156" type="curve"/>
      <point x="314" y="219" type="line"/>
      <point x="357" y="185"/>
      <point x="412" y="166"/>
      <point x="469" y="166" type="curve" smooth="yes"/>
      <point x="483" y="166"/>
      <point x="518" y="168"/>
      <point x="536" y="170" type="curve"/>
      <point x="564" y="60" type="line"/>
      <point x="537" y="52"/>
      <point x="508" y="48"/>
    </contour>
    <contour>
      <point x="184" y="204" type="line"/>
      <point x="150" y="259"/>
      <point x="130" y="325"/>
      <point x="130" y="400" type="curve" smooth="yes"/>
      <point x="130" y="476"/>
      <point x="149" y="542"/>
      <point x="183" y="596" type="curve"/>
      <point x="271" y="536" type="line"/>
      <point x="240" y="491"/>
      <point x="229" y="439"/>
      <point x="229" y="399" type="curve" smooth="yes"/>
      <point x="229" y="346"/>
      <point x="245" y="300"/>
      <point x="271" y="264" type="curve"/>
    </contour>
    <contour>
      <point x="314" y="581" type="curve"/>
      <point x="221" y="644" type="line"/>
      <point x="284" y="712"/>
      <point x="375" y="752"/>
      <point x="478" y="752" type="curve" smooth="yes"/>
      <point x="508" y="752"/>
      <point x="537" y="748"/>
      <point x="564" y="740" type="curve"/>
      <point x="536" y="630" type="line"/>
      <point x="518" y="632"/>
      <point x="500" y="634"/>
      <point x="486" y="634" type="curve" smooth="yes"/>
      <point x="409" y="634"/>
      <point x="353" y="612"/>
    </contour>
  </outline>
</glyph>
<glyph name="u10661" format="2">
  <advance width="1005"/>
  <unicode hex="10661"/>
  <outline>
    <contour>
      <point x="290" y="126" type="curve" smooth="yes"/>
      <point x="381" y="126"/>
      <point x="455" y="196"/>
      <point x="455" y="286" type="curve" smooth="yes"/>
      <point x="455" y="377"/>
      <point x="381" y="433"/>
      <point x="290" y="433" type="curve" smooth="yes"/>
      <point x="268" y="433"/>
      <point x="247" y="429"/>
      <point x="228" y="421" type="curve"/>
      <point x="253" y="364" type="line"/>
      <point x="264" y="369"/>
      <point x="277" y="371"/>
      <point x="290" y="371" type="curve" smooth="yes"/>
      <point x="343" y="371"/>
      <point x="387" y="341"/>
      <point x="387" y="287" type="curve" smooth="yes"/>
      <point x="387" y="232"/>
      <point x="343" y="188"/>
      <point x="290" y="188" type="curve" smooth="yes"/>
      <point x="170" y="188"/>
      <point x="130" y="312"/>
      <point x="130" y="398" type="curve" smooth="yes"/>
      <point x="130" y="562"/>
      <point x="255" y="750"/>
      <point x="470" y="750" type="curve" smooth="yes"/>
      <point x="535" y="750" type="line" smooth="yes"/>
      <point x="750" y="750"/>
      <point x="875" y="562"/>
      <point x="875" y="398" type="curve" smooth="yes"/>
      <point x="875" y="312"/>
      <point x="835" y="188"/>
      <point x="715" y="188" type="curve" smooth="yes"/>
      <point x="662" y="188"/>
      <point x="618" y="232"/>
      <point x="618" y="287" type="curve" smooth="yes"/>
      <point x="618" y="341"/>
      <point x="662" y="371"/>
      <point x="715" y="371" type="curve" smooth="yes"/>
      <point x="728" y="371"/>
      <point x="741" y="369"/>
      <point x="752" y="364" type="curve"/>
      <point x="777" y="421" type="line"/>
      <point x="758" y="429"/>
      <point x="737" y="433"/>
      <point x="715" y="433" type="curve" smooth="yes"/>
      <point x="624" y="433"/>
      <point x="550" y="377"/>
      <point x="550" y="286" type="curve" smooth="yes"/>
      <point x="550" y="196"/>
      <point x="624" y="126"/>
      <point x="715" y="126" type="curve" smooth="yes"/>
      <point x="855" y="126"/>
      <point x="945" y="225"/>
      <point x="945" y="398" type="curve" smooth="yes"/>
      <point x="945" y="601"/>
      <point x="782" y="815"/>
      <point x="535" y="815" type="curve" smooth="yes"/>
      <point x="470" y="815" type="line" smooth="yes"/>
      <point x="223" y="815"/>
      <point x="60" y="601"/>
      <point x="60" y="398" type="curve" smooth="yes"/>
      <point x="60" y="225"/>
      <point x="150" y="126"/>
    </contour>
  </outline>
</glyph>
<glyph name="u10662" format="2">
  <advance width="664"/>
  <unicode hex="10662"/>
  <outline>
    <contour>
      <point x="150" y="0" type="line"/>
      <point x="514" y="0" type="line"/>
      <point x="514" y="63" type="line"/>
      <point x="367" y="63" type="line"/>
      <point x="367" y="192" type="line"/>
      <point x="614" y="192" type="line"/>
      <point x="614" y="252" type="line"/>
      <point x="374" y="815" type="line"/>
      <point x="290" y="815" type="line"/>
      <point x="50" y="252" type="line"/>
      <point x="50" y="192" type="line"/>
      <point x="297" y="192" type="line"/>
      <point x="297" y="63" type="line"/>
      <point x="150" y="63" type="line"/>
    </contour>
    <contour>
      <point x="118" y="255" type="line"/>
      <point x="332" y="753" type="line"/>
      <point x="546" y="255" type="line"/>
    </contour>
  </outline>
</glyph>
<glyph name="u10663" format="2">
  <advance width="526"/>
  <unicode hex="10663"/>
  <outline>
    <contour>
      <point x="432" y="211" type="line"/>
      <point x="476" y="256" type="line"/>
      <point x="181" y="550" type="line"/>
      <point x="200" y="562"/>
      <point x="223" y="569"/>
      <point x="247" y="569" type="curve" smooth="yes"/>
      <point x="269" y="569"/>
      <point x="293" y="562"/>
      <point x="315" y="544" type="curve"/>
      <point x="359" y="588" type="line"/>
      <point x="318" y="620"/>
      <point x="277" y="634"/>
      <point x="238" y="634" type="curve" smooth="yes"/>
      <point x="139" y="634"/>
      <point x="50" y="545"/>
      <point x="50" y="449" type="curve" smooth="yes"/>
      <point x="50" y="406"/>
      <point x="66" y="362"/>
      <point x="96" y="325" type="curve"/>
      <point x="140" y="369" type="line"/>
      <point x="123" y="387"/>
      <point x="116" y="411"/>
      <point x="116" y="436" type="curve" smooth="yes"/>
      <point x="116" y="461"/>
      <point x="123" y="486"/>
      <point x="136" y="506" type="curve"/>
    </contour>
  </outline>
</glyph>
<glyph name="u10664" format="2">
  <advance width="589"/>
  <unicode hex="10664"/>
  <outline>
    <contour>
      <point x="368" y="227" type="line"/>
      <point x="466" y="238"/>
      <point x="539" y="310"/>
      <point x="539" y="407" type="curve" smooth="yes"/>
      <point x="539" y="498"/>
      <point x="488" y="585"/>
      <point x="368" y="599" type="curve"/>
      <point x="368" y="537" type="line"/>
      <point x="425" y="530"/>
      <point x="455" y="490"/>
      <point x="466" y="447" type="curve"/>
      <point x="50" y="447" type="line"/>
      <point x="50" y="384" type="line"/>
      <point x="468" y="384" type="line"/>
      <point x="457" y="337"/>
      <point x="417" y="290"/>
      <point x="368" y="289" type="curve"/>
    </contour>
  </outline>
</glyph>
<glyph name="u10665" format="2">
  <advance width="526"/>
  <unicode hex="10665"/>
  <outline>
    <contour>
      <point x="288" y="211" type="curve" smooth="yes"/>
      <point x="387" y="211"/>
      <point x="476" y="300"/>
      <point x="476" y="396" type="curve" smooth="yes"/>
      <point x="476" y="439"/>
      <point x="460" y="483"/>
      <point x="430" y="520" type="curve"/>
      <point x="386" y="476" type="line"/>
      <point x="403" y="458"/>
      <point x="410" y="434"/>
      <point x="410" y="409" type="curve" smooth="yes"/>
      <point x="410" y="383"/>
      <point x="402" y="359"/>
      <point x="389" y="338" type="curve"/>
      <point x="94" y="634" type="line"/>
      <point x="50" y="589" type="line"/>
      <point x="344" y="294" type="line"/>
      <point x="325" y="283"/>
      <point x="303" y="276"/>
      <point x="279" y="276" type="curve" smooth="yes"/>
      <point x="257" y="276"/>
      <point x="233" y="283"/>
      <point x="211" y="301" type="curve"/>
      <point x="167" y="257" type="line"/>
      <point x="208" y="225"/>
      <point x="249" y="211"/>
    </contour>
  </outline>
</glyph>
<glyph name="u10666" format="2">
  <advance width="813"/>
  <unicode hex="10666"/>
  <outline>
    <contour>
      <point x="263" y="0" type="curve"/>
      <point x="392" y="0" type="line"/>
      <point x="470" y="183"/>
      <point x="763" y="350"/>
      <point x="763" y="610" type="curve" smooth="yes"/>
      <point x="763" y="664"/>
      <point x="737" y="815"/>
      <point x="566" y="857" type="curve"/>
      <point x="546" y="803" type="line"/>
      <point x="671" y="769"/>
      <point x="693" y="670"/>
      <point x="693" y="610" type="curve" smooth="yes"/>
      <point x="693" y="399"/>
      <point x="442" y="213"/>
      <point x="340" y="62" type="curve"/>
      <point x="304" y="62"/>
      <point x="290" y="78"/>
      <point x="290" y="103" type="curve" smooth="yes"/>
      <point x="290" y="287"/>
      <point x="558" y="395"/>
      <point x="558" y="624" type="curve" smooth="yes"/>
      <point x="558" y="738"/>
      <point x="478" y="801"/>
      <point x="329" y="824" type="curve"/>
      <point x="318" y="766" type="line"/>
      <point x="429" y="751"/>
      <point x="488" y="707"/>
      <point x="488" y="624" type="curve" smooth="yes"/>
      <point x="488" y="422"/>
      <point x="220" y="322"/>
      <point x="220" y="103" type="curve" smooth="yes"/>
      <point x="220" y="90"/>
      <point x="220" y="78"/>
      <point x="221" y="66" type="curve"/>
      <point x="160" y="74"/>
      <point x="120" y="104"/>
      <point x="120" y="174" type="curve" smooth="yes"/>
      <point x="120" y="327"/>
      <point x="318" y="375"/>
      <point x="318" y="604" type="curve" smooth="yes"/>
      <point x="318" y="744"/>
      <point x="226" y="794"/>
      <point x="90" y="806" type="curve"/>
      <point x="77" y="747" type="line"/>
      <point x="188" y="740"/>
      <point x="248" y="701"/>
      <point x="248" y="604" type="curve" smooth="yes"/>
      <point x="248" y="402"/>
      <point x="50" y="350"/>
      <point x="50" y="165" type="curve" smooth="yes"/>
      <point x="50" y="46"/>
      <point x="135" y="0"/>
    </contour>
  </outline>
</glyph>
<glyph name="u10667" format="2">
  <advance width="476"/>
  <unicode hex="10667"/>
  <outline>
    <contour>
      <point x="194" y="-15" type="curve" smooth="yes"/>
      <point x="269" y="-15"/>
      <point x="349" y="32"/>
      <point x="446" y="170" type="curve"/>
      <point x="387" y="198" type="line"/>
      <point x="319" y="93"/>
      <point x="244" y="49"/>
      <point x="191" y="49" type="curve" smooth="yes"/>
      <point x="149" y="49"/>
      <point x="120" y="77"/>
      <point x="120" y="125" type="curve" smooth="yes"/>
      <point x="120" y="181"/>
      <point x="155" y="254"/>
      <point x="178" y="299" type="curve" smooth="yes"/>
      <point x="250" y="439" type="line"/>
      <point x="378" y="360" type="line"/>
      <point x="410" y="414" type="line"/>
      <point x="279" y="495" type="line"/>
      <point x="430" y="786" type="line"/>
      <point x="365" y="815" type="line"/>
      <point x="220" y="532" type="line"/>
      <point x="116" y="597" type="line"/>
      <point x="84" y="543" type="line"/>
      <point x="192" y="476" type="line"/>
      <point x="117" y="329" type="line" smooth="yes"/>
      <point x="90" y="276"/>
      <point x="50" y="194"/>
      <point x="50" y="125" type="curve" smooth="yes"/>
      <point x="50" y="47"/>
      <point x="108" y="-15"/>
    </contour>
  </outline>
</glyph>
<glyph name="u10668" format="2">
  <advance width="586"/>
  <unicode hex="10668"/>
  <outline>
    <contour>
      <point x="90" y="0" type="line"/>
      <point x="160" y="0" type="line"/>
      <point x="160" y="567" type="line"/>
      <point x="521" y="567" type="line"/>
      <point x="521" y="630" type="line"/>
      <point x="50" y="630" type="line"/>
      <point x="50" y="567" type="line"/>
      <point x="90" y="567" type="line"/>
    </contour>
    <contour>
      <point x="331" y="357" type="line"/>
      <point x="376" y="402" type="line"/>
      <point x="253" y="525" type="line"/>
      <point x="207" y="479" type="line"/>
    </contour>
    <contour>
      <point x="511" y="357" type="line"/>
      <point x="556" y="402" type="line"/>
      <point x="433" y="525" type="line"/>
      <point x="387" y="479" type="line"/>
    </contour>
    <contour>
      <point x="253" y="657" type="line"/>
      <point x="376" y="780" type="line"/>
      <point x="331" y="825" type="line"/>
      <point x="207" y="703" type="line"/>
    </contour>
    <contour>
      <point x="433" y="657" type="line"/>
      <point x="556" y="780" type="line"/>
      <point x="511" y="825" type="line"/>
      <point x="387" y="703" type="line"/>
    </contour>
  </outline>
</glyph>
<glyph name="u10669" format="2">
  <advance width="690"/>
  <unicode hex="10669"/>
  <outline>
    <contour>
      <point x="310" y="0" type="line"/>
      <point x="380" y="0" type="line"/>
      <point x="380" y="330" type="line"/>
      <point x="640" y="330" type="line"/>
      <point x="640" y="620" type="line"/>
      <point x="380" y="620" type="line"/>
      <point x="380" y="800" type="line"/>
      <point x="310" y="800" type="line"/>
      <point x="310" y="620" type="line"/>
      <point x="50" y="620" type="line"/>
      <point x="50" y="330" type="line"/>
      <point x="310" y="330" type="line"/>
    </contour>
    <contour>
      <point x="120" y="393" type="line"/>
      <point x="120" y="557" type="line"/>
      <point x="310" y="557" type="line"/>
      <point x="310" y="393" type="line"/>
    </contour>
    <contour>
      <point x="380" y="393" type="line"/>
      <point x="380" y="557" type="line"/>
      <point x="570" y="557" type="line"/>
      <point x="570" y="393" type="line"/>
    </contour>
  </outline>
</glyph>
<glyph name="u1066A" format="2">
  <advance width="681"/>
  <unicode hex="1066A"/>
  <outline>
    <contour>
      <point x="106" y="-7" type="line"/>
      <point x="340" y="345" type="line"/>
      <point x="575" y="-7" type="line"/>
      <point x="631" y="28" type="line"/>
      <point x="380" y="405" type="line"/>
      <point x="601" y="737" type="line"/>
      <point x="601" y="800" type="line"/>
      <point x="80" y="800" type="line"/>
      <point x="80" y="737" type="line"/>
      <point x="301" y="405" type="line"/>
      <point x="50" y="28" type="line"/>
    </contour>
    <contour>
      <point x="340" y="464" type="line"/>
      <point x="159" y="737" type="line"/>
      <point x="521" y="737" type="line"/>
    </contour>
  </outline>
</glyph>
<glyph name="u1066B" format="2">
  <advance width="554"/>
  <unicode hex="1066B"/>
  <outline>
    <contour>
      <point x="50" y="0" type="line"/>
      <point x="504" y="0" type="line"/>
      <point x="504" y="63" type="line"/>
      <point x="312" y="63" type="line"/>
      <point x="312" y="737" type="line"/>
      <point x="504" y="737" type="line"/>
      <point x="504" y="800" type="line"/>
      <point x="50" y="800" type="line"/>
      <point x="50" y="737" type="line"/>
      <point x="242" y="737" type="line"/>
      <point x="242" y="63" type="line"/>
      <point x="50" y="63" type="line"/>
    </contour>
  </outline>
</glyph>
<glyph name="u1066C" format="2">
  <advance width="624"/>
  <unicode hex="1066C"/>
  <outline>
    <contour>
      <point x="93" y="-7" type="line"/>
      <point x="255" y="389" type="line"/>
      <point x="273" y="385"/>
      <point x="291" y="384"/>
      <point x="311" y="384" type="curve" smooth="yes"/>
      <point x="331" y="384"/>
      <point x="350" y="386"/>
      <point x="368" y="389" type="curve"/>
      <point x="531" y="-7" type="line"/>
      <point x="594" y="21" type="line"/>
      <point x="432" y="410" type="line"/>
      <point x="507" y="446"/>
      <point x="554" y="516"/>
      <point x="554" y="599" type="curve" smooth="yes"/>
      <point x="554" y="721"/>
      <point x="454" y="815"/>
      <point x="311" y="815" type="curve" smooth="yes"/>
      <point x="170" y="815"/>
      <point x="70" y="721"/>
      <point x="70" y="599" type="curve" smooth="yes"/>
      <point x="70" y="516"/>
      <point x="117" y="446"/>
      <point x="191" y="410" type="curve"/>
      <point x="30" y="21" type="line"/>
    </contour>
    <contour>
      <point x="310" y="449" type="curve" smooth="yes"/>
      <point x="205" y="449"/>
      <point x="140" y="516"/>
      <point x="140" y="599" type="curve" smooth="yes"/>
      <point x="140" y="684"/>
      <point x="205" y="750"/>
      <point x="310" y="750" type="curve" smooth="yes"/>
      <point x="414" y="750"/>
      <point x="484" y="684"/>
      <point x="484" y="599" type="curve" smooth="yes"/>
      <point x="484" y="516"/>
      <point x="414" y="449"/>
    </contour>
  </outline>
</glyph>
<glyph name="u1066D" format="2">
  <advance width="960"/>
  <unicode hex="1066D"/>
  <outline>
    <contour>
      <point x="315" y="0" type="line"/>
      <point x="645" y="0" type="line"/>
      <point x="645" y="63" type="line"/>
      <point x="515" y="63" type="line"/>
      <point x="515" y="350" type="line"/>
      <point x="644" y="350" type="line" smooth="yes"/>
      <point x="726" y="350"/>
      <point x="761" y="406"/>
      <point x="775" y="470" type="curve"/>
      <point x="845" y="470" type="line"/>
      <point x="845" y="437" type="line"/>
      <point x="910" y="437" type="line"/>
      <point x="910" y="558" type="line"/>
      <point x="845" y="558" type="line"/>
      <point x="845" y="527" type="line"/>
      <point x="783" y="527" type="line"/>
      <point x="784" y="539"/>
      <point x="784" y="551"/>
      <point x="784" y="563" type="curve" smooth="yes"/>
      <point x="784" y="580"/>
      <point x="781" y="599"/>
      <point x="775" y="620" type="curve"/>
      <point x="845" y="620" type="line"/>
      <point x="845" y="587" type="line"/>
      <point x="910" y="587" type="line"/>
      <point x="910" y="708" type="line"/>
      <point x="845" y="708" type="line"/>
      <point x="845" y="677" type="line"/>
      <point x="750" y="677" type="line"/>
      <point x="708" y="748"/>
      <point x="624" y="815"/>
      <point x="480" y="815" type="curve" smooth="yes"/>
      <point x="372" y="815"/>
      <point x="260" y="765"/>
      <point x="207" y="677" type="curve"/>
      <point x="115" y="677" type="line"/>
      <point x="115" y="708" type="line"/>
      <point x="50" y="708" type="line"/>
      <point x="50" y="587" type="line"/>
      <point x="115" y="587" type="line"/>
      <point x="115" y="620" type="line"/>
      <point x="183" y="620" type="line"/>
      <point x="179" y="602"/>
      <point x="176" y="583"/>
      <point x="176" y="563" type="curve" smooth="yes"/>
      <point x="176" y="551"/>
      <point x="176" y="539"/>
      <point x="177" y="527" type="curve"/>
      <point x="115" y="527" type="line"/>
      <point x="115" y="558" type="line"/>
      <point x="50" y="558" type="line"/>
      <point x="50" y="437" type="line"/>
      <point x="115" y="437" type="line"/>
      <point x="115" y="470" type="line"/>
      <point x="184" y="470" type="line"/>
      <point x="198" y="406"/>
      <point x="234" y="350"/>
      <point x="316" y="350" type="curve" smooth="yes"/>
      <point x="445" y="350" type="line"/>
      <point x="445" y="63" type="line"/>
      <point x="315" y="63" type="line"/>
    </contour>
    <contour>
      <point x="303" y="413" type="line" smooth="yes"/>
      <point x="286" y="413"/>
      <point x="268" y="431"/>
      <point x="257" y="470" type="curve"/>
      <point x="366" y="470" type="line"/>
      <point x="366" y="527" type="line"/>
      <point x="247" y="527" type="line"/>
      <point x="246" y="538"/>
      <point x="246" y="550"/>
      <point x="246" y="563" type="curve" smooth="yes"/>
      <point x="246" y="582"/>
      <point x="249" y="602"/>
      <point x="255" y="620" type="curve"/>
      <point x="366" y="620" type="line"/>
      <point x="366" y="677" type="line"/>
      <point x="287" y="677" type="line"/>
      <point x="325" y="721"/>
      <point x="389" y="750"/>
      <point x="480" y="750" type="curve" smooth="yes"/>
      <point x="571" y="750"/>
      <point x="635" y="721"/>
      <point x="673" y="677" type="curve"/>
      <point x="594" y="677" type="line"/>
      <point x="594" y="620" type="line"/>
      <point x="705" y="620" type="line"/>
      <point x="711" y="602"/>
      <point x="714" y="582"/>
      <point x="714" y="563" type="curve" smooth="yes"/>
      <point x="714" y="550"/>
      <point x="713" y="538"/>
      <point x="712" y="527" type="curve"/>
      <point x="594" y="527" type="line"/>
      <point x="594" y="470" type="line"/>
      <point x="703" y="470" type="line"/>
      <point x="691" y="431"/>
      <point x="673" y="413"/>
      <point x="657" y="413" type="curve" smooth="yes"/>
      <point x="515" y="413" type="line"/>
      <point x="515" y="527" type="line"/>
      <point x="445" y="527" type="line"/>
      <point x="445" y="413" type="line"/>
    </contour>
    <contour>
      <point x="445" y="610" type="line"/>
      <point x="515" y="610" type="line"/>
      <point x="515" y="717" type="line"/>
      <point x="445" y="717" type="line"/>
    </contour>
  </outline>
</glyph>
<glyph name="u1066E" format="2">
  <advance width="895"/>
  <unicode hex="1066E"/>
  <outline>
    <contour>
      <point x="448" y="-15" type="curve" smooth="yes"/>
      <point x="651" y="-15"/>
      <point x="845" y="59"/>
      <point x="845" y="232" type="curve" smooth="yes"/>
      <point x="845" y="330"/>
      <point x="782" y="397"/>
      <point x="690" y="436" type="curve"/>
      <point x="699" y="476"/>
      <point x="704" y="517"/>
      <point x="704" y="577" type="curve" smooth="yes"/>
      <point x="704" y="708"/>
      <point x="617" y="815"/>
      <point x="486" y="815" type="curve" smooth="yes"/>
      <point x="257" y="815"/>
      <point x="269" y="602"/>
      <point x="194" y="431" type="curve"/>
      <point x="108" y="392"/>
      <point x="50" y="326"/>
      <point x="50" y="232" type="curve" smooth="yes"/>
      <point x="50" y="59"/>
      <point x="244" y="-15"/>
    </contour>
    <contour>
      <point x="448" y="50" type="curve" smooth="yes"/>
      <point x="283" y="50"/>
      <point x="120" y="98"/>
      <point x="120" y="232" type="curve" smooth="yes"/>
      <point x="120" y="366"/>
      <point x="283" y="414"/>
      <point x="448" y="414" type="curve" smooth="yes"/>
      <point x="612" y="414"/>
      <point x="775" y="366"/>
      <point x="775" y="232" type="curve" smooth="yes"/>
      <point x="775" y="98"/>
      <point x="612" y="50"/>
    </contour>
    <contour>
      <point x="625" y="458" type="curve"/>
      <point x="570" y="472"/>
      <point x="509" y="479"/>
      <point x="448" y="479" type="curve" smooth="yes"/>
      <point x="389" y="479"/>
      <point x="331" y="473"/>
      <point x="279" y="460" type="curve"/>
      <point x="322" y="587"/>
      <point x="324" y="750"/>
      <point x="486" y="750" type="curve" smooth="yes"/>
      <point x="581" y="750"/>
      <point x="634" y="674"/>
      <point x="634" y="578" type="curve" smooth="yes"/>
      <point x="634" y="543"/>
      <point x="631" y="495"/>
    </contour>
  </outline>
</glyph>
<glyph name="u1066F" format="2">
  <advance width="640"/>
  <unicode hex="1066F"/>
  <outline>
    <contour>
      <point x="50" y="0" type="line"/>
      <point x="590" y="0" type="line"/>
      <point x="590" y="60" type="line" smooth="yes"/>
      <point x="590" y="311"/>
      <point x="493" y="554"/>
      <point x="355" y="619" type="curve"/>
      <point x="355" y="800" type="line"/>
      <point x="285" y="800" type="line"/>
      <point x="285" y="619" type="line"/>
      <point x="147" y="554"/>
      <point x="50" y="311"/>
      <point x="50" y="60" type="curve" smooth="yes"/>
    </contour>
    <contour>
      <point x="120" y="63" type="line"/>
      <point x="120" y="269"/>
      <point x="182" y="467"/>
      <point x="285" y="547" type="curve"/>
      <point x="285" y="63" type="line"/>
    </contour>
    <contour>
      <point x="355" y="63" type="line"/>
      <point x="355" y="547" type="line"/>
      <point x="458" y="467"/>
      <point x="520" y="269"/>
      <point x="520" y="63" type="curve"/>
    </contour>
  </outline>
</glyph>
<glyph name="u10670" format="2">
  <advance width="782"/>
  <unicode hex="10670"/>
  <outline>
    <contour>
      <point x="95" y="-15" type="line"/>
      <point x="228" y="247" type="line"/>
      <point x="483" y="247" type="line"/>
      <point x="439" y="162" type="line"/>
      <point x="504" y="133" type="line"/>
      <point x="752" y="619" type="line"/>
      <point x="691" y="649" type="line"/>
      <point x="634" y="540" type="line"/>
      <point x="376" y="540" type="line"/>
      <point x="394" y="583"/>
      <point x="410" y="631"/>
      <point x="410" y="675" type="curve" smooth="yes"/>
      <point x="410" y="753"/>
      <point x="352" y="815"/>
      <point x="266" y="815" type="curve" smooth="yes"/>
      <point x="205" y="815"/>
      <point x="141" y="784"/>
      <point x="67" y="699" type="curve"/>
      <point x="112" y="655" type="line"/>
      <point x="169" y="722"/>
      <point x="226" y="751"/>
      <point x="269" y="751" type="curve" smooth="yes"/>
      <point x="311" y="751"/>
      <point x="340" y="723"/>
      <point x="340" y="675" type="curve" smooth="yes"/>
      <point x="340" y="619"/>
      <point x="305" y="546"/>
      <point x="282" y="501" type="curve" smooth="yes"/>
      <point x="30" y="14" type="line"/>
    </contour>
    <contour>
      <point x="260" y="310" type="line"/>
      <point x="346" y="477" type="line"/>
      <point x="602" y="477" type="line"/>
      <point x="515" y="310" type="line"/>
    </contour>
  </outline>
</glyph>
<glyph name="u10671" format="2">
  <advance width="575"/>
  <unicode hex="10671"/>
  <outline>
    <contour>
      <point x="253" y="0" type="line"/>
      <point x="323" y="0" type="line"/>
      <point x="323" y="360" type="line"/>
      <point x="253" y="360" type="line"/>
    </contour>
    <contour>
      <point x="287" y="342" type="curve" smooth="yes"/>
      <point x="418" y="342"/>
      <point x="525" y="446"/>
      <point x="525" y="577" type="curve" smooth="yes"/>
      <point x="525" y="708"/>
      <point x="418" y="815"/>
      <point x="287" y="815" type="curve" smooth="yes"/>
      <point x="156" y="815"/>
      <point x="50" y="708"/>
      <point x="50" y="577" type="curve" smooth="yes"/>
      <point x="50" y="446"/>
      <point x="156" y="342"/>
    </contour>
    <contour>
      <point x="287" y="407" type="curve" smooth="yes"/>
      <point x="193" y="407"/>
      <point x="120" y="482"/>
      <point x="120" y="578" type="curve" smooth="yes"/>
      <point x="120" y="674"/>
      <point x="193" y="750"/>
      <point x="287" y="750" type="curve" smooth="yes"/>
      <point x="382" y="750"/>
      <point x="455" y="674"/>
      <point x="455" y="578" type="curve" smooth="yes"/>
      <point x="455" y="482"/>
      <point x="382" y="407"/>
    </contour>
    <contour>
      <point x="123" y="0" type="line"/>
      <point x="453" y="0" type="line"/>
      <point x="453" y="63" type="line"/>
      <point x="123" y="63" type="line"/>
    </contour>
  </outline>
</glyph>
<glyph name="u10673" format="2">
  <advance width="788"/>
  <unicode hex="10673"/>
  <outline>
    <contour>
      <point x="100" y="0" type="line"/>
      <point x="170" y="0" type="line"/>
      <point x="170" y="147" type="line"/>
      <point x="708" y="147" type="line"/>
      <point x="708" y="645" type="line"/>
      <point x="170" y="645" type="line"/>
      <point x="170" y="800" type="line"/>
      <point x="100" y="800" type="line"/>
    </contour>
    <contour>
      <point x="170" y="210" type="line"/>
      <point x="170" y="292" type="line"/>
      <point x="373" y="292" type="line"/>
      <point x="373" y="210" type="line"/>
    </contour>
    <contour>
      <point x="170" y="355" type="line"/>
      <point x="170" y="437" type="line"/>
      <point x="373" y="437" type="line"/>
      <point x="373" y="355" type="line"/>
    </contour>
    <contour>
      <point x="438" y="210" type="line"/>
      <point x="438" y="292" type="line"/>
      <point x="638" y="292" type="line"/>
      <point x="638" y="210" type="line"/>
    </contour>
    <contour>
      <point x="170" y="500" type="line"/>
      <point x="170" y="582" type="line"/>
      <point x="373" y="582" type="line"/>
      <point x="373" y="500" type="line"/>
    </contour>
    <contour>
      <point x="438" y="355" type="line"/>
      <point x="438" y="437" type="line"/>
      <point x="638" y="437" type="line"/>
      <point x="638" y="355" type="line"/>
    </contour>
    <contour>
      <point x="438" y="500" type="line"/>
      <point x="438" y="582" type="line"/>
      <point x="638" y="582" type="line"/>
      <point x="638" y="500" type="line"/>
    </contour>
  </outline>
</glyph>
<glyph name="u10674" format="2">
  <advance width="694"/>
  <unicode hex="10674"/>
  <outline>
    <contour>
      <point x="312" y="0" type="line"/>
      <point x="382" y="0" type="line"/>
      <point x="382" y="737" type="line"/>
      <point x="464" y="737" type="line"/>
      <point x="464" y="800" type="line"/>
      <point x="230" y="800" type="line"/>
      <point x="230" y="737" type="line"/>
      <point x="312" y="737" type="line"/>
    </contour>
    <contour>
      <point x="258" y="399" type="line"/>
      <point x="308" y="447" type="line"/>
      <point x="155" y="610" type="line"/>
      <point x="193" y="646" type="line"/>
      <point x="149" y="692" type="line"/>
      <point x="20" y="571" type="line"/>
      <point x="63" y="525" type="line"/>
      <point x="104" y="563" type="line"/>
    </contour>
    <contour>
      <point x="436" y="399" type="line"/>
      <point x="590" y="563" type="line"/>
      <point x="631" y="525" type="line"/>
      <point x="674" y="571" type="line"/>
      <point x="545" y="692" type="line"/>
      <point x="501" y="646" type="line"/>
      <point x="539" y="610" type="line"/>
      <point x="386" y="447" type="line"/>
    </contour>
  </outline>
</glyph>
<glyph name="u10675" format="2">
  <advance width="590"/>
  <unicode hex="10675"/>
  <outline>
    <contour>
      <point x="180" y="0" type="line"/>
      <point x="250" y="0" type="line"/>
      <point x="250" y="496" type="line"/>
      <point x="286" y="504"/>
      <point x="318" y="523"/>
      <point x="341" y="549" type="curve"/>
      <point x="547" y="508" type="line"/>
      <point x="560" y="570" type="line"/>
      <point x="373" y="607" type="line"/>
      <point x="377" y="621"/>
      <point x="380" y="637"/>
      <point x="380" y="653" type="curve" smooth="yes"/>
      <point x="380" y="672"/>
      <point x="376" y="691"/>
      <point x="370" y="709" type="curve"/>
      <point x="560" y="747" type="line"/>
      <point x="547" y="809" type="line"/>
      <point x="333" y="766" type="line"/>
      <point x="303" y="796"/>
      <point x="261" y="815"/>
      <point x="215" y="815" type="curve" smooth="yes"/>
      <point x="124" y="815"/>
      <point x="50" y="744"/>
      <point x="50" y="653" type="curve" smooth="yes"/>
      <point x="50" y="575"/>
      <point x="106" y="512"/>
      <point x="180" y="496" type="curve"/>
    </contour>
    <contour>
      <point x="215" y="555" type="curve" smooth="yes"/>
      <point x="160" y="555"/>
      <point x="118" y="599"/>
      <point x="118" y="654" type="curve" smooth="yes"/>
      <point x="118" y="708"/>
      <point x="160" y="753"/>
      <point x="215" y="753" type="curve" smooth="yes"/>
      <point x="268" y="753"/>
      <point x="312" y="708"/>
      <point x="312" y="654" type="curve" smooth="yes"/>
      <point x="312" y="599"/>
      <point x="268" y="555"/>
    </contour>
  </outline>
</glyph>
<glyph name="u10676" format="2">
  <advance width="1222"/>
  <unicode hex="10676"/>
  <outline>
    <contour>
      <point x="76" y="127" type="line"/>
      <point x="326" y="349" type="line"/>
      <point x="553" y="147" type="line"/>
      <point x="1172" y="147" type="line"/>
      <point x="1172" y="210" type="line"/>
      <point x="894" y="400" type="line"/>
      <point x="1122" y="582" type="line"/>
      <point x="1122" y="645" type="line"/>
      <point x="553" y="645" type="line"/>
      <point x="326" y="443" type="line"/>
      <point x="76" y="666" type="line"/>
      <point x="30" y="613" type="line"/>
      <point x="277" y="396" type="line"/>
      <point x="30" y="180" type="line"/>
    </contour>
    <contour>
      <point x="553" y="242" type="line"/>
      <point x="373" y="396" type="line"/>
      <point x="553" y="551" type="line"/>
    </contour>
    <contour>
      <point x="623" y="210" type="line"/>
      <point x="623" y="582" type="line"/>
      <point x="1025" y="582" type="line"/>
      <point x="829" y="429" type="line"/>
      <point x="829" y="367" type="line"/>
      <point x="1066" y="210" type="line"/>
    </contour>
  </outline>
</glyph>
<glyph name="u10677" format="2">
  <advance width="750"/>
  <unicode hex="10677"/>
  <outline>
    <contour>
      <point x="80" y="0" type="line"/>
      <point x="150" y="0" type="line"/>
      <point x="150" y="357" type="line"/>
      <point x="340" y="357" type="line"/>
      <point x="340" y="0" type="line"/>
      <point x="410" y="0" type="line"/>
      <point x="410" y="357" type="line"/>
      <point x="600" y="357" type="line"/>
      <point x="600" y="0" type="line"/>
      <point x="670" y="0" type="line"/>
      <point x="670" y="800" type="line"/>
      <point x="80" y="800" type="line"/>
    </contour>
    <contour>
      <point x="245" y="151" type="curve" smooth="yes"/>
      <point x="269" y="151"/>
      <point x="288" y="170"/>
      <point x="288" y="194" type="curve" smooth="yes"/>
      <point x="288" y="218"/>
      <point x="269" y="237"/>
      <point x="245" y="237" type="curve" smooth="yes"/>
      <point x="221" y="237"/>
      <point x="202" y="218"/>
      <point x="202" y="194" type="curve" smooth="yes"/>
      <point x="202" y="170"/>
      <point x="221" y="151"/>
    </contour>
    <contour>
      <point x="505" y="151" type="curve" smooth="yes"/>
      <point x="529" y="151"/>
      <point x="548" y="170"/>
      <point x="548" y="194" type="curve" smooth="yes"/>
      <point x="548" y="218"/>
      <point x="529" y="237"/>
      <point x="505" y="237" type="curve" smooth="yes"/>
      <point x="481" y="237"/>
      <point x="462" y="218"/>
      <point x="462" y="194" type="curve" smooth="yes"/>
      <point x="462" y="170"/>
      <point x="481" y="151"/>
    </contour>
    <contour>
      <point x="150" y="420" type="line"/>
      <point x="150" y="737" type="line"/>
      <point x="340" y="737" type="line"/>
      <point x="340" y="420" type="line"/>
    </contour>
    <contour>
      <point x="245" y="541" type="curve" smooth="yes"/>
      <point x="269" y="541"/>
      <point x="288" y="560"/>
      <point x="288" y="584" type="curve" smooth="yes"/>
      <point x="288" y="608"/>
      <point x="269" y="627"/>
      <point x="245" y="627" type="curve" smooth="yes"/>
      <point x="221" y="627"/>
      <point x="202" y="608"/>
      <point x="202" y="584" type="curve" smooth="yes"/>
      <point x="202" y="560"/>
      <point x="221" y="541"/>
    </contour>
    <contour>
      <point x="410" y="420" type="line"/>
      <point x="410" y="737" type="line"/>
      <point x="600" y="737" type="line"/>
      <point x="600" y="420" type="line"/>
    </contour>
    <contour>
      <point x="505" y="541" type="curve" smooth="yes"/>
      <point x="529" y="541"/>
      <point x="548" y="560"/>
      <point x="548" y="584" type="curve" smooth="yes"/>
      <point x="548" y="608"/>
      <point x="529" y="627"/>
      <point x="505" y="627" type="curve" smooth="yes"/>
      <point x="481" y="627"/>
      <point x="462" y="608"/>
      <point x="462" y="584" type="curve" smooth="yes"/>
      <point x="462" y="560"/>
      <point x="481" y="541"/>
    </contour>
  </outline>
</glyph>
<glyph name="u10678" format="2">
  <advance width="524"/>
  <unicode hex="10678"/>
  <outline>
    <contour>
      <point x="101" y="-16" type="line"/>
      <point x="484" y="616" type="line"/>
      <point x="187" y="788" type="line"/>
      <point x="148" y="734" type="line"/>
      <point x="389" y="590" type="line"/>
      <point x="312" y="464" type="line"/>
      <point x="97" y="591" type="line"/>
      <point x="58" y="537" type="line"/>
      <point x="277" y="407" type="line"/>
      <point x="40" y="16" type="line"/>
    </contour>
  </outline>
</glyph>
<glyph name="u10679" format="2">
  <advance width="617"/>
  <unicode hex="10679"/>
  <outline>
    <contour>
      <point x="274" y="0" type="line"/>
      <point x="344" y="0" type="line"/>
      <point x="344" y="290" type="line"/>
      <point x="518" y="290" type="line"/>
      <point x="518" y="353" type="line"/>
      <point x="380" y="353" type="line"/>
      <point x="476" y="383"/>
      <point x="546" y="471"/>
      <point x="546" y="577" type="curve" smooth="yes"/>
      <point x="546" y="618"/>
      <point x="535" y="656"/>
      <point x="517" y="690" type="curve"/>
      <point x="607" y="780" type="line"/>
      <point x="562" y="825" type="line"/>
      <point x="478" y="742" type="line"/>
      <point x="435" y="787"/>
      <point x="375" y="815"/>
      <point x="308" y="815" type="curve" smooth="yes"/>
      <point x="241" y="815"/>
      <point x="181" y="787"/>
      <point x="138" y="743" type="curve"/>
      <point x="55" y="825" type="line"/>
      <point x="10" y="780" type="line"/>
      <point x="99" y="690" type="line"/>
      <point x="81" y="656"/>
      <point x="71" y="618"/>
      <point x="71" y="577" type="curve" smooth="yes"/>
      <point x="71" y="471"/>
      <point x="140" y="383"/>
      <point x="236" y="353" type="curve"/>
      <point x="98" y="353" type="line"/>
      <point x="98" y="290" type="line"/>
      <point x="274" y="290" type="line"/>
    </contour>
    <contour>
      <point x="308" y="407" type="curve" smooth="yes"/>
      <point x="214" y="407"/>
      <point x="141" y="482"/>
      <point x="141" y="578" type="curve" smooth="yes"/>
      <point x="141" y="674"/>
      <point x="214" y="750"/>
      <point x="308" y="750" type="curve" smooth="yes"/>
      <point x="403" y="750"/>
      <point x="476" y="674"/>
      <point x="476" y="578" type="curve" smooth="yes"/>
      <point x="476" y="482"/>
      <point x="403" y="407"/>
    </contour>
  </outline>
</glyph>
<glyph name="u1067A" format="2">
  <advance width="675"/>
  <unicode hex="1067A"/>
  <outline>
    <contour>
      <point x="50" y="0" type="line"/>
      <point x="380" y="0" type="line"/>
      <point x="380" y="63" type="line"/>
      <point x="227" y="63" type="line"/>
      <point x="380" y="363" type="line"/>
      <point x="591" y="363" type="line"/>
      <point x="591" y="426" type="line"/>
      <point x="412" y="426" type="line"/>
      <point x="428" y="456" type="line" smooth="yes"/>
      <point x="439" y="477"/>
      <point x="451" y="502"/>
      <point x="462" y="529" type="curve"/>
      <point x="625" y="613" type="line"/>
      <point x="595" y="670" type="line"/>
      <point x="490" y="615" type="line"/>
      <point x="493" y="630"/>
      <point x="495" y="645"/>
      <point x="495" y="660" type="curve" smooth="yes"/>
      <point x="495" y="675"/>
      <point x="493" y="690"/>
      <point x="488" y="704" type="curve"/>
      <point x="591" y="807" type="line"/>
      <point x="546" y="852" type="line"/>
      <point x="453" y="761" type="line"/>
      <point x="428" y="785"/>
      <point x="393" y="800"/>
      <point x="351" y="800" type="curve" smooth="yes"/>
      <point x="290" y="800"/>
      <point x="226" y="769"/>
      <point x="152" y="684" type="curve"/>
      <point x="197" y="640" type="line"/>
      <point x="254" y="707"/>
      <point x="311" y="736"/>
      <point x="354" y="736" type="curve" smooth="yes"/>
      <point x="396" y="736"/>
      <point x="425" y="708"/>
      <point x="425" y="660" type="curve" smooth="yes"/>
      <point x="425" y="604"/>
      <point x="390" y="531"/>
      <point x="367" y="486" type="curve" smooth="yes"/>
      <point x="336" y="426" type="line"/>
      <point x="227" y="426" type="line"/>
      <point x="304" y="503" type="line"/>
      <point x="259" y="548" type="line"/>
      <point x="134" y="426" type="line"/>
      <point x="134" y="363" type="line"/>
      <point x="303" y="363" type="line"/>
      <point x="148" y="63" type="line"/>
      <point x="50" y="63" type="line"/>
    </contour>
  </outline>
</glyph>
<glyph name="u1067B" format="2">
  <advance width="740"/>
  <unicode hex="1067B"/>
  <outline>
    <contour>
      <point x="80" y="560" type="line"/>
      <point x="150" y="560" type="line"/>
      <point x="150" y="737" type="line"/>
      <point x="610" y="737" type="line"/>
      <point x="610" y="560" type="line"/>
      <point x="680" y="560" type="line"/>
      <point x="680" y="800" type="line"/>
      <point x="80" y="800" type="line"/>
    </contour>
    <contour>
      <point x="120" y="0" type="line"/>
      <point x="511" y="0" type="line"/>
      <point x="511" y="63" type="line"/>
      <point x="418" y="63" type="line"/>
      <point x="440" y="220" type="line"/>
      <point x="370" y="220" type="line"/>
      <point x="348" y="63" type="line"/>
      <point x="181" y="63" type="line"/>
      <point x="160" y="220" type="line"/>
      <point x="90" y="220" type="line"/>
    </contour>
    <contour>
      <point x="155" y="281" type="curve" smooth="yes"/>
      <point x="179" y="281"/>
      <point x="198" y="300"/>
      <point x="198" y="324" type="curve" smooth="yes"/>
      <point x="198" y="348"/>
      <point x="179" y="367"/>
      <point x="155" y="367" type="curve" smooth="yes"/>
      <point x="131" y="367"/>
      <point x="112" y="348"/>
      <point x="112" y="324" type="curve" smooth="yes"/>
      <point x="112" y="300"/>
      <point x="131" y="281"/>
    </contour>
    <contour>
      <point x="335" y="281" type="curve" smooth="yes"/>
      <point x="359" y="281"/>
      <point x="378" y="300"/>
      <point x="378" y="324" type="curve" smooth="yes"/>
      <point x="378" y="348"/>
      <point x="359" y="367"/>
      <point x="335" y="367" type="curve" smooth="yes"/>
      <point x="311" y="367"/>
      <point x="292" y="348"/>
      <point x="292" y="324" type="curve" smooth="yes"/>
      <point x="292" y="300"/>
      <point x="311" y="281"/>
    </contour>
    <contour>
      <point x="225" y="411" type="curve" smooth="yes"/>
      <point x="249" y="411"/>
      <point x="268" y="430"/>
      <point x="268" y="454" type="curve" smooth="yes"/>
      <point x="268" y="478"/>
      <point x="249" y="497"/>
      <point x="225" y="497" type="curve" smooth="yes"/>
      <point x="201" y="497"/>
      <point x="182" y="478"/>
      <point x="182" y="454" type="curve" smooth="yes"/>
      <point x="182" y="430"/>
      <point x="201" y="411"/>
    </contour>
    <contour>
      <point x="515" y="281" type="curve" smooth="yes"/>
      <point x="539" y="281"/>
      <point x="558" y="300"/>
      <point x="558" y="324" type="curve" smooth="yes"/>
      <point x="558" y="348"/>
      <point x="539" y="367"/>
      <point x="515" y="367" type="curve" smooth="yes"/>
      <point x="491" y="367"/>
      <point x="472" y="348"/>
      <point x="472" y="324" type="curve" smooth="yes"/>
      <point x="472" y="300"/>
      <point x="491" y="281"/>
    </contour>
    <contour>
      <point x="405" y="411" type="curve" smooth="yes"/>
      <point x="429" y="411"/>
      <point x="448" y="430"/>
      <point x="448" y="454" type="curve" smooth="yes"/>
      <point x="448" y="478"/>
      <point x="429" y="497"/>
      <point x="405" y="497" type="curve" smooth="yes"/>
      <point x="381" y="497"/>
      <point x="362" y="478"/>
      <point x="362" y="454" type="curve" smooth="yes"/>
      <point x="362" y="430"/>
      <point x="381" y="411"/>
    </contour>
    <contour>
      <point x="285" y="541" type="curve" smooth="yes"/>
      <point x="309" y="541"/>
      <point x="328" y="560"/>
      <point x="328" y="584" type="curve" smooth="yes"/>
      <point x="328" y="608"/>
      <point x="309" y="627"/>
      <point x="285" y="627" type="curve" smooth="yes"/>
      <point x="261" y="627"/>
      <point x="242" y="608"/>
      <point x="242" y="584" type="curve" smooth="yes"/>
      <point x="242" y="560"/>
      <point x="261" y="541"/>
    </contour>
    <contour>
      <point x="585" y="411" type="curve" smooth="yes"/>
      <point x="609" y="411"/>
      <point x="628" y="430"/>
      <point x="628" y="454" type="curve" smooth="yes"/>
      <point x="628" y="478"/>
      <point x="609" y="497"/>
      <point x="585" y="497" type="curve" smooth="yes"/>
      <point x="561" y="497"/>
      <point x="542" y="478"/>
      <point x="542" y="454" type="curve" smooth="yes"/>
      <point x="542" y="430"/>
      <point x="561" y="411"/>
    </contour>
    <contour>
      <point x="465" y="541" type="curve" smooth="yes"/>
      <point x="489" y="541"/>
      <point x="508" y="560"/>
      <point x="508" y="584" type="curve" smooth="yes"/>
      <point x="508" y="608"/>
      <point x="489" y="627"/>
      <point x="465" y="627" type="curve" smooth="yes"/>
      <point x="441" y="627"/>
      <point x="422" y="608"/>
      <point x="422" y="584" type="curve" smooth="yes"/>
      <point x="422" y="560"/>
      <point x="441" y="541"/>
    </contour>
  </outline>
</glyph>
<glyph name="u1067C" format="2">
  <advance width="935"/>
  <unicode hex="1067C"/>
  <outline>
    <contour>
      <point x="662" y="188" type="line"/>
      <point x="734" y="189"/>
      <point x="875" y="216"/>
      <point x="879" y="318" type="curve"/>
      <point x="905" y="320" type="line"/>
      <point x="898" y="375" type="line"/>
      <point x="873" y="372" type="line"/>
      <point x="854" y="441"/>
      <point x="799" y="507"/>
      <point x="723" y="507" type="curve" smooth="yes"/>
      <point x="695" y="507"/>
      <point x="655" y="486"/>
      <point x="618" y="463" type="curve"/>
      <point x="616" y="578"/>
      <point x="564" y="699"/>
      <point x="416" y="700" type="curve"/>
      <point x="419" y="716"/>
      <point x="421" y="739"/>
      <point x="421" y="754" type="curve" smooth="yes"/>
      <point x="421" y="806"/>
      <point x="392" y="863"/>
      <point x="309" y="863" type="curve" smooth="yes"/>
      <point x="253" y="863"/>
      <point x="216" y="830"/>
      <point x="191" y="789" type="curve"/>
      <point x="182" y="791"/>
      <point x="172" y="792"/>
      <point x="162" y="792" type="curve" smooth="yes"/>
      <point x="96" y="792"/>
      <point x="50" y="742"/>
      <point x="50" y="687" type="curve" smooth="yes"/>
      <point x="50" y="618"/>
      <point x="80" y="563"/>
      <point x="132" y="525" type="curve"/>
      <point x="127" y="515"/>
      <point x="123" y="505"/>
      <point x="119" y="495" type="curve"/>
      <point x="177" y="465" type="line"/>
      <point x="200" y="565"/>
      <point x="317" y="637"/>
      <point x="413" y="637" type="curve" smooth="yes"/>
      <point x="501" y="637"/>
      <point x="552" y="567"/>
      <point x="552" y="495" type="curve" smooth="yes"/>
      <point x="552" y="465"/>
      <point x="551" y="437"/>
      <point x="547" y="412" type="curve"/>
      <point x="613" y="405" type="line"/>
      <point x="649" y="428"/>
      <point x="674" y="443"/>
      <point x="707" y="443" type="curve" smooth="yes"/>
      <point x="743" y="443"/>
      <point x="786" y="422"/>
      <point x="803" y="365" type="curve"/>
      <point x="749" y="360" type="line"/>
      <point x="752" y="309" type="line"/>
      <point x="812" y="313" type="line"/>
      <point x="812" y="305" type="line" smooth="yes"/>
      <point x="812" y="274"/>
      <point x="695" y="249"/>
      <point x="654" y="247" type="curve"/>
    </contour>
    <contour>
      <point x="155" y="0" type="curve"/>
      <point x="595" y="0" type="line"/>
      <point x="589" y="37"/>
      <point x="585" y="77"/>
      <point x="585" y="121" type="curve" smooth="yes"/>
      <point x="585" y="160"/>
      <point x="588" y="203"/>
      <point x="595" y="250" type="curve"/>
      <point x="525" y="250" type="line"/>
      <point x="517" y="204"/>
      <point x="514" y="164"/>
      <point x="514" y="126" type="curve" smooth="yes"/>
      <point x="514" y="104"/>
      <point x="515" y="83"/>
      <point x="516" y="63" type="curve"/>
      <point x="213" y="63" type="line"/>
      <point x="208" y="97"/>
      <point x="206" y="131"/>
      <point x="206" y="165" type="curve" smooth="yes"/>
      <point x="206" y="257"/>
      <point x="217" y="330"/>
      <point x="251" y="422" type="curve"/>
      <point x="187" y="442" type="line"/>
      <point x="154" y="347"/>
      <point x="136" y="253"/>
      <point x="136" y="161" type="curve" smooth="yes"/>
      <point x="136" y="107"/>
      <point x="142" y="53"/>
    </contour>
    <contour>
      <point x="166" y="579" type="curve"/>
      <point x="133" y="599"/>
      <point x="114" y="630"/>
      <point x="114" y="682" type="curve" smooth="yes"/>
      <point x="114" y="708"/>
      <point x="130" y="727"/>
      <point x="161" y="727" type="curve" smooth="yes"/>
      <point x="201" y="727"/>
      <point x="221" y="686"/>
      <point x="236" y="644" type="curve"/>
      <point x="210" y="627"/>
      <point x="186" y="605"/>
    </contour>
    <contour>
      <point x="424" y="425" type="curve" smooth="yes"/>
      <point x="448" y="425"/>
      <point x="467" y="444"/>
      <point x="467" y="468" type="curve" smooth="yes"/>
      <point x="467" y="492"/>
      <point x="448" y="511"/>
      <point x="424" y="511" type="curve" smooth="yes"/>
      <point x="400" y="511"/>
      <point x="381" y="492"/>
      <point x="381" y="468" type="curve" smooth="yes"/>
      <point x="381" y="444"/>
      <point x="400" y="425"/>
    </contour>
    <contour>
      <point x="301" y="679" type="curve"/>
      <point x="289" y="710"/>
      <point x="271" y="740"/>
      <point x="246" y="761" type="curve"/>
      <point x="261" y="783"/>
      <point x="282" y="799"/>
      <point x="305" y="799" type="curve" smooth="yes"/>
      <point x="336" y="799"/>
      <point x="357" y="775"/>
      <point x="357" y="753" type="curve" smooth="yes"/>
      <point x="357" y="735"/>
      <point x="354" y="709"/>
      <point x="350" y="693" type="curve"/>
      <point x="334" y="690"/>
      <point x="317" y="685"/>
    </contour>
  </outline>
</glyph>
<glyph name="u1067D" format="2">
  <advance width="564"/>
  <unicode hex="1067D"/>
  <outline>
    <contour>
      <point x="70" y="0" type="curve"/>
      <point x="143" y="0" type="line"/>
      <point x="148" y="90"/>
      <point x="222" y="181"/>
      <point x="299" y="275" type="curve"/>
      <point x="534" y="275" type="line"/>
      <point x="534" y="338" type="line"/>
      <point x="348" y="338" type="line"/>
      <point x="417" y="428"/>
      <point x="476" y="524"/>
      <point x="476" y="631" type="curve" smooth="yes"/>
      <point x="476" y="730"/>
      <point x="413" y="815"/>
      <point x="278" y="815" type="curve" smooth="yes"/>
      <point x="181" y="815"/>
      <point x="116" y="751"/>
      <point x="80" y="680" type="curve"/>
      <point x="135" y="645" type="line"/>
      <point x="168" y="718"/>
      <point x="212" y="752"/>
      <point x="280" y="752" type="curve" smooth="yes"/>
      <point x="367" y="752"/>
      <point x="406" y="695"/>
      <point x="406" y="631" type="curve" smooth="yes"/>
      <point x="406" y="578"/>
      <point x="391" y="530"/>
      <point x="368" y="485" type="curve"/>
      <point x="60" y="485" type="line"/>
      <point x="60" y="275" type="line"/>
      <point x="213" y="275" type="line"/>
      <point x="144" y="191"/>
      <point x="80" y="104"/>
    </contour>
    <contour>
      <point x="130" y="338" type="line"/>
      <point x="130" y="422" type="line"/>
      <point x="329" y="422" type="line"/>
      <point x="310" y="393"/>
      <point x="288" y="365"/>
      <point x="265" y="338" type="curve"/>
    </contour>
  </outline>
</glyph>
<glyph name="u1067E" format="2">
  <advance width="711"/>
  <unicode hex="1067E"/>
  <outline>
    <contour>
      <point x="30" y="0" type="line"/>
      <point x="611" y="0" type="line"/>
      <point x="611" y="800" type="line"/>
      <point x="251" y="800" type="line"/>
      <point x="251" y="360" type="line"/>
      <point x="164" y="281"/>
      <point x="94" y="185"/>
      <point x="30" y="60" type="curve"/>
    </contour>
    <contour>
      <point x="109" y="63" type="line"/>
      <point x="156" y="156"/>
      <point x="226" y="248"/>
      <point x="321" y="341" type="curve"/>
      <point x="321" y="737" type="line"/>
      <point x="541" y="737" type="line"/>
      <point x="541" y="63" type="line"/>
    </contour>
  </outline>
</glyph>
<glyph name="u1067F" format="2">
  <advance width="491"/>
  <unicode hex="1067F"/>
  <outline>
    <contour>
      <point x="245" y="-15" type="curve" smooth="yes"/>
      <point x="348" y="-15"/>
      <point x="391" y="76"/>
      <point x="391" y="159" type="curve" smooth="yes"/>
      <point x="391" y="227"/>
      <point x="367" y="317"/>
      <point x="282" y="481" type="curve"/>
      <point x="325" y="563"/>
      <point x="382" y="665"/>
      <point x="461" y="792" type="curve"/>
      <point x="408" y="826" type="line"/>
      <point x="340" y="717"/>
      <point x="287" y="626"/>
      <point x="245" y="550" type="curve"/>
      <point x="203" y="626"/>
      <point x="150" y="717"/>
      <point x="83" y="826" type="curve"/>
      <point x="30" y="792" type="line"/>
      <point x="108" y="665"/>
      <point x="166" y="563"/>
      <point x="209" y="481" type="curve"/>
      <point x="123" y="316"/>
      <point x="100" y="228"/>
      <point x="100" y="159" type="curve" smooth="yes"/>
      <point x="100" y="38"/>
      <point x="163" y="-15"/>
    </contour>
    <contour>
      <point x="243" y="50" type="curve" smooth="yes"/>
      <point x="198" y="50"/>
      <point x="167" y="83"/>
      <point x="167" y="157" type="curve" smooth="yes"/>
      <point x="167" y="203"/>
      <point x="181" y="273"/>
      <point x="245" y="408" type="curve"/>
      <point x="309" y="273"/>
      <point x="324" y="203"/>
      <point x="324" y="157" type="curve" smooth="yes"/>
      <point x="324" y="81"/>
      <point x="291" y="50"/>
    </contour>
  </outline>
</glyph>
<glyph name="u10680" format="2">
  <advance width="1002"/>
  <unicode hex="10680"/>
  <outline>
    <contour>
      <point x="378" y="-15" type="curve" smooth="yes"/>
      <point x="471" y="-15"/>
      <point x="555" y="19"/>
      <point x="620" y="76" type="curve"/>
      <point x="552" y="108" type="line"/>
      <point x="503" y="72"/>
      <point x="443" y="50"/>
      <point x="378" y="50" type="curve" smooth="yes"/>
      <point x="239" y="50"/>
      <point x="142" y="113"/>
      <point x="123" y="265" type="curve"/>
      <point x="50" y="265" type="line"/>
      <point x="55" y="99"/>
      <point x="195" y="-15"/>
    </contour>
    <contour>
      <point x="411" y="257" type="line"/>
      <point x="952" y="257" type="line"/>
      <point x="952" y="550" type="line"/>
      <point x="411" y="550" type="line"/>
      <point x="411" y="487" type="line"/>
      <point x="882" y="487" type="line"/>
      <point x="882" y="320" type="line"/>
      <point x="411" y="320" type="line"/>
    </contour>
    <contour>
      <point x="153" y="643" type="line"/>
      <point x="208" y="708"/>
      <point x="289" y="750"/>
      <point x="380" y="750" type="curve" smooth="yes"/>
      <point x="464" y="750"/>
      <point x="541" y="713"/>
      <point x="595" y="655" type="curve"/>
      <point x="659" y="686" type="line"/>
      <point x="592" y="765"/>
      <point x="492" y="815"/>
      <point x="380" y="815" type="curve" smooth="yes"/>
      <point x="266" y="815"/>
      <point x="163" y="763"/>
      <point x="96" y="682" type="curve"/>
    </contour>
  </outline>
</glyph>
<glyph name="u10681" format="2">
  <advance width="1186"/>
  <unicode hex="10681"/>
  <outline>
    <contour>
      <point x="639" y="-15" type="line"/>
      <point x="810" y="-12"/>
      <point x="1136" y="17"/>
      <point x="1136" y="212" type="curve" smooth="yes"/>
      <point x="1136" y="305"/>
      <point x="1062" y="352"/>
      <point x="984" y="352" type="curve" smooth="yes"/>
      <point x="766" y="352"/>
      <point x="692" y="128"/>
      <point x="400" y="128" type="curve" smooth="yes"/>
      <point x="284" y="128"/>
      <point x="120" y="168"/>
      <point x="120" y="302" type="curve" smooth="yes"/>
      <point x="120" y="402"/>
      <point x="203" y="463"/>
      <point x="305" y="463" type="curve" smooth="yes"/>
      <point x="395" y="463"/>
      <point x="494" y="390"/>
      <point x="530" y="354" type="curve"/>
      <point x="552" y="417" type="line"/>
      <point x="514" y="466"/>
      <point x="406" y="528"/>
      <point x="306" y="528" type="curve" smooth="yes"/>
      <point x="157" y="528"/>
      <point x="50" y="442"/>
      <point x="50" y="302" type="curve" smooth="yes"/>
      <point x="50" y="129"/>
      <point x="238" y="63"/>
      <point x="396" y="63" type="curve" smooth="yes"/>
      <point x="712" y="63"/>
      <point x="833" y="287"/>
      <point x="977" y="287" type="curve" smooth="yes"/>
      <point x="1038" y="287"/>
      <point x="1066" y="268"/>
      <point x="1066" y="212" type="curve" smooth="yes"/>
      <point x="1066" y="71"/>
      <point x="734" y="53"/>
      <point x="643" y="48" type="curve"/>
    </contour>
    <contour>
      <point x="590" y="235" type="line"/>
      <point x="665" y="364"/>
      <point x="613" y="631"/>
      <point x="737" y="631" type="curve" smooth="yes"/>
      <point x="788" y="631"/>
      <point x="822" y="581"/>
      <point x="822" y="485" type="curve" smooth="yes"/>
      <point x="822" y="456"/>
      <point x="820" y="417"/>
      <point x="816" y="383" type="curve"/>
      <point x="882" y="362" type="line"/>
      <point x="888" y="397"/>
      <point x="892" y="434"/>
      <point x="892" y="484" type="curve" smooth="yes"/>
      <point x="892" y="615"/>
      <point x="848" y="696"/>
      <point x="737" y="696" type="curve" smooth="yes"/>
      <point x="525" y="696"/>
      <point x="596" y="363"/>
      <point x="532" y="271" type="curve"/>
    </contour>
  </outline>
</glyph>
